<svg id="Layer_1" enable-background="new 0 0 1920 338.7" viewBox="0 0 1920 338.7" xmlns="http://www.w3.org/2000/svg" xmlns:xlink="http://www.w3.org/1999/xlink"><defs><linearGradient id="SVGID_1_" gradientUnits="userSpaceOnUse" x1="960" x2="960" y1="338.6952" y2="-238.8405"><stop offset="0" stop-color="#034466"/><stop offset="1" stop-color="#1a5d80"/></linearGradient></defs><path d="m1920 197.7h-1920v-59.3l960 51.5 960-51.5z" fill="#fff"/><path d="m1900 300.7v-6.5c-6 0-10.5 0-15.3 0-.5-2.7-.7-7.2-2.5-8.8 0-.9.1-1.9-.2-2.5-1-.4-2.9.1-3.9-.4-.9-1.3-1.2-3.1-2.4-4.2-2.6-.4-6 .5-9.1.2-.8-.6-1.3-1-1.7-2-1.4 0-2.8 0-4.1 0-.3 0-1.1.2-.9 1.2-1.1-.4-2.2.2-3.3.3-2.3.3-4.8-.3-7.2.2-.7 1.3-.2 3.7-.6 5.2-1.5.1-1.6-.9-3.2-.6-.6.4-.6 1.4-1.7 1.3-.7.9.8 2.6-1 2.3-1.1 0-.5-1.3-.6-1.7 0-.7.3-1.8.1-2.5-.1-.5-.2-.7-.4-1.2-.3-1 .8-1.8.6-2.7-.1-.8-.6-.3-.6-1 0-4.6 0-10 0-14.5 0-1.7-.7-3.7-1.8-4.4-1.6-.4-2 1.3-2.5 1.9-1.1.2-2.2.4-1.7 1.9-.5-1.2-.1-3.2-.2-4.6 1.3-.9.4-1.9 1.3-2.7-.1-1.2-2.2-.5-2.4-1.5.8-1.1.9-3.6.4-5.2-.5-.7-2.1-.8-2.6-.6-.8-5-.9-11.4-1.5-16.2-.1-.6.5-1.9-.7-2.1-1.2.8-.7 2.4-.7 3.7 0 4.4.3 9.2 0 12.9-1.4.3-3 .3-2.8 1.9-1.3-.3-3.2-.2-4.8-.2-1.1 0-.1-1.8-1.7-1.4-1.1.6-.5 2.8-.6 4.2-.5-1-.2-2.7-1.3-3.1-1.1.3-1 1.4-1.3 2.3-.2.6-.3 2.6-.5 3.1-.5 1.1-1.2 1.3-2 2.1 0 3.4.2 6 .6 9.1.1.8-.3.3-.3 1.2 0 3.6 0 7.2 0 10.8 0 .7-2.5.4-2.8 1.2-1.1-.3-2-1.4-3.2-1.7-1.1-.3-2.6.1-4.1-.2-.1-2 .2-3.8 0-5.4 0-.3-.3-.6-.4-1-.1-.5.1-1.3 0-1.5-.4-.8-1.5-1-1.7-1.7-.3-1.2.3-2.8.2-4.2-.1-1.3-.4-2.5-.7-3.9-1.1-.2-3.3-.1-4.6.2-1 .6-.7 2.3-2 2.7-.1 2.9.3 6.3-.2 8.9-2 .5-.9-1.9-2.4-1.9-.1-1.7.2-3.8-.2-5.2-2.2-.3-4.4-.4-6.7-.6-2-.1-5.5-.8-7.2-.4-1 .2-2.5 1.6-2.8 2.5-.9 2.9 1 7.9-.4 10.8-.9.4-2.3.3-3.2.6-.3 2.3.5 6 .1 8.3-.2 1 .4 1.8-1.2 1.7-1 0 .3-1.8-.4-2.1-.2 0 .8-.1-.2-.1v.1c-1-.1-2.7-.1-3.8-.1-.4 1.1-1 2.4-2.7 2.3-.5-1.8 0-4.3.2-6.2-.1-.7-.7-.8-.9-1.5-.4-1.6.4-4.1 0-5.6-.4-1.4-1.5-1.6-2.4-2.3-.1-2.1-.1-4.3-.4-6.2-3.2-.4-6.9-.4-10.6-.4-.7 0-.4-1-1.1-1.2-2.8-1-7.7-.3-11.3-.2-.6-.7.1-2.4-.4-3.1-2.7-1.3-6.5-1.2-10.4-1-.6-1.1-.5-2.3-1.5-3.3-2 0-3.3.6-5.2.2-.1-1.7.2-3.8-.2-5.2-.9-.3-2.3-.2-3.5-.2-.9-.2-.1-2-.9-2.3-3-.7-7.9.2-10.2-1.2-.7.1-1 .6-2 .4-.7.5-.8-.5-1.5-.6-.5 0-.8.4-1.3.4-.7-.1-1.3-.5-2-.6-6.3-.6-14.4-.1-21.3-.4-.4-2.4-.2-5-.2-7.5 0-2.6.6-5.6-.2-7.5-.6-1.5-3.2-2.5-5-3.7-1.5-.9-3.5-3.1-5.2-3.5-2.7-.6-6.8-.1-10.2-.2-1.3 0-2.2-.5-3.4 0-.5 9.1.1 19.1-.1 28.6-4.2.5-7.4.1-13.4.8 0 1.1 0 2.2 0 3.3 0 .6-5-.3-7 .6 0 .9 0 2 0 3h-1v-1.2-5.8h-2v6h-.9c-.5-4-.3-6.7-.8-10.5-.7-.6-1.9-.8-2.6-1.4.2-4.5-.9-7.8-1.3-11.8.1-.9-1-.8-.9-1.7.2-5.5-.1-10.5-1.1-14.9-.4-.7-1.9-.4-2.2-1.1.7-1.4-.2-2.3-.4-3.1-.2-.6 0-1.1-.2-1.5-.4-.9-1.3-1.5-1.7-2.4-.6-1.3-.7-2.4-.9-4-.1-.6.4-1.6-.4-1.6-.2 0-.4 0-.7 0-1.1 0-.6.6-.7 1-.1.8.1 1 0 1.6-.2 1.8-1.6 2.4-2.4 3.8-.8 1.5-1 2.8-1.1 4.6-.3.5-1.8-.1-2 .6-.5.8-.1 2.4-.2 3.5.2.9-.9.7-.9 1.5.1 2.9-.4 5.2-.2 8.1-1.8-.9-3.7-3.3-5.6-4.6-.6-.7.6-1.1 0-1.7-3.2-2.2-10.3-2.7-15.4-1.9-.9.6.4 1-.4 1.5-1 .2-1.3 1.1-2.2 1.4-.7-.2-1.5-.3-2.4-.4-.8-.1-.3-1.3-.4-1.9-.4-.5-1.6-.3-1.7-1-.1-1.1.2-2.5-.2-3.3-1.9-.6-4.2-.9-6.5-1.2-.7-.2-.2-1.4-.9-1.5-1-.1-2-.1-2.2.6-.4-.4-.4-1.2-1.5-1-1-.3-1 .4-1.3.8-.6-.8-1.6-.1-2.6-.2-.7-.1-1.3-.5-2-.6-2.2-.1-4.4.4-5.6 1.5-.3 1.2.2 3.1 0 4.8-4.3-.2-6.1 1.3-8 2.9-.5 9.5-.1 19.9-.7 29.4-.8-.3-.4-1.6-.4-2.5 0-1.1.2-2.3-.2-2.9-.3-.9-1.9-.7-2.8-1-.4-6.2.5-13.3-.2-18.9-.1-.8-.9-1.3-.4-2.1 0-.7-.6-.7-1.1-1 .4-.4.1-1.1 0-1.5-1.5-.4-3-.8-4.8-1-.2-1-.3-1.9-.2-3.1-1.3-.7-2.7-1.2-4.6-1.4-.4.9-.1 2.4-.2 3.7 0 .9-1.3.5-1.5 1.2.2.9-.2 1.2-.9 1.4.5 1-.3 1.7-.4 2.7-.5 4.3.1 9.5-.2 14.3-.9.4-2.7.1-3.9.2-.1-16 .2-31.7.2-47.5-9.6.1-18.7-.2-28.2-.2-.5 17.2-.5 34.7-1 52-.7.4-1.8.4-2.9.4l.1-.5-2-.1.1 2.4c-.7 0-1.2.1-1.2.1v.4l-.2.2v-3.4h-.5l-.7.3-1.5-.3h.7l-.1-1.4-.6-5.3-.2 3.7h-2.9l-1.4-5.4-1.1 4.4h-.4v2.6h-.3l-.1 1.3-1.4 1v .2h-1.2v-5.4l-1.3-.5-2-4.3-1.1 3.4-.6.8v6h-4v1h-4v2h-2v-2h-8v .3l-.6-.8-.3-.5-1.1-.6-.7-.1-1.2-1.2-1 1.7h-.1v-9.9h-4v-11h-6.5l-.5-65h-2v-5h-2v-1h-3c0 0-5.7-12.5-19.5-12.5-13.8 0-20.8 11.5-20.8 12.5h-1.7v2h-2v5h-3v10h-1v13.5l-9 2.3-.7 31.2h-10.2v-29.4l-2-.5v-7.2h-1-1v-3h-1v-1h-3v-4.6l-18.1-13.3-18.9 9.4v4.1l-12-1.9v-.6l-9-.1h-5.1-4.3l.1 1.9-5.2.1-.5 1.2v1.8l-10.1 1.4-.3 3.4c-.1-7.1-.2-14.3-.3-21.5-.2-.5-1.3-.2-1.3-1 0-5.9 0-11.8 0-17.8-1-.6-2.4-.5-3.7-1-.2-2.3.4-4.1 0-5.8-.3-1.1-1.6-2.4-1-4.4-.9-.5-2-.9-2.8-1.5-.2-.7.5-.9 0-1.4-1.2-.8-2.7-2-3.2-3.7-1.2-3.7.1-9.6-.9-13.9-.3-1.3-1.3-2.3-.6-3.5-.4-.7-1.3-.9-1.5-1.7 0-5.1-1.2-11.1-.2-15.8-1.5-2.2-.9-6.3-1.3-9.5-.7 2.5-.2 6.1-.7 8.9-.4.2-.4.7-.7 1 .9 2 .4 4.7.2 7.5-.1 2.7.6 5.7 0 7.7-.3.9-1.4 1.2-1.7 1.9.6 1.3-.4 2.2-.7 3.5-.7 4 .5 8.7 0 13.9 0 .8-1.1.6-.9 1.5-.2 4-1.8 7.1-3 10.4-.5 1.3-1 2.7-1.5 4.1-.5 1.3-1.3 2.5-1.5 3.9-.3 2.1.3 4.6-.2 7.1-.2.5-1.6-.1-1.3.8-.5 1.4-1.5 2.8-1.7 4.4-.7 4.4.7 10-.2 14.5-.2 1.1-1.3 2.2-1.5 3.3-.7 3.5 0 7.8 0 11.6 0 2.8 0 5.7 0 8.7l-5.7-.9-.2-23.1-27.7-3.7-12.4 3.2.1 20.7-.9.2-4.2.4-.3.6-2.2-.1-.2-1.2-1.2-.2-.2-4.2-.4-.1-.3-3.8-.9-.7-.8-.2v-2.6l-.8-.7-1-.2-2.2-.5v-8l-.2-.1v-2.4l-2.6-.1-.1 2.1-3.7-.4-2.6.1-4.7 1.3v6.1l-2.6.8-2.4.1v.5l-1 .2v2.6 2.2h-3v3.1l.1.6-.3-.5-.9-.1-.4.5-1.5.5v4.1l-.9-.1-.3-1.2-.8.1v23.8c-5-.6-9.7-1.1-14.6-1.6-1.1.3-1 3-2 2.6-.5-34.4-1-68.6-2-102.5-.6.8-.1 2.5-1.2 2.9-.1-.8.3-2-.6-2.1-.3 2-.4 4.3-.9 6.2-.1-1.3.3-3-.3-3.9-1.5.5-.9 2.8-1.8 3.9-.4-3-.2-8.5-.6-12.5-5.4-.6-10.6-1.4-16.3-1.8.1-.9-1-1.8-1.2-2.6-.4-2-.8-4.4-.9-6.5-.4-8.9-1.8-18.9-1.8-27.5 0 8.8 0 18.5 0 27.5 0 3 1.3 6-.1 8.6-3.6-.4-7.1-.7-10.4-1.3 0 3.5.2 8.7.2 13.2 0 1.3.6 3.1-.5 3.9-1.5-2.2.6-7.6-2.3-8.6-.2 6.6-.3 13.4-.9 19.7-.4-.4-1.5-.2-2.3-.3-1.3-7.5-.9-15.6-2.3-23-.9 22.4-.8 44.8-.5 68.8h-1.9v-1h-3v-17h-1v-5h-1v-4.2-1.8h-1v-3h-2v-2h-1v-1h-1v-4h-1v-2.2-3.8h-1v-6h0l-.3-21-.7 21h-1v5h-2v5h-2v1.4 4.4 2.2h-1v3h-1v3h-1v4h-1v5h-2v18h-2v-1h-1v-2h1v-2h-1v-1h1v-2h-1v-2h1v-3h-3v-1h2v-1h-3v-2h1v-2h-3v-1h2v-2h-3v-1h2v-3h-2v-2h-2v-2h1v-2h-2v-1h1v-2.2.2h-1v1h-1v-2.4l1 .2v-1.8h-3v-1.4l-7-18.2-16.3-1.9-5.3 18.5h-22.6c0-2-.1-2.6-.1-3.5-.2-4.1.6-8.7 0-12.7-.1-.7-.7-1.6-.8-2.4-.3-2 .3-4.2 0-6-.3-1.2 1.1-.9 1.1-1.8-1.5-1-1.9-2.8-2.8-4.2-.9-1.5-2.2-3-2.5-4.5-.2-.9.3-1.9.3-2.7 0-5.3.3-10.9-1.4-15.9-.4-1.2-1.3-2.3-1.7-3.5-.7-2.2-.6-4.6-1.1-7-1-4.2-2.4-8.4-3.6-12.7-.6-2-1.6-4-2.2-6-.3-1-.2-2.1-.6-3.2-.2-.8-.9-1.7-1.1-2.5-.3-1.3 0-2.8-.3-4.2-.2-1.4-1-2.6-1.1-4-.2-1.6.2-3.2 0-4.7-.1-1.1-.7-2.1-.8-3.2-.6-5.4-.2-11.2-.6-17.1-.2-3.2.6-6.7-.6-9.9-.9 7-.5 14.5-.8 21.6-.3 5.4-.6 10.9-1.7 16.4-.4 1.8-.4 3.7-.8 5.2-.6 2.2-2.9 3.9-2.2 6.5-1.8 1.8-3.4 3.8-3.1 7.4-1.9 1.9-2.7 4.7-2.5 8.4-1.8 2-1 4.6-1.4 7-.2 1-1 1.8-1.1 2.7-.3 1.5.3 2.9 0 4.5-.2.9-.9 1.8-1.1 2.7-.8 4.3.1 9.2-.3 14.1-.8-.4-1.8-.7-2.8-.2.1 1.3 2.7 1.8 2 3-2 1-4.5.1-6.4.2-.2 1.4 2 1.7 2.5 3.5.3 1.3-.2 2.5 0 4.2-.4.6-1.8.9-1.7 1.9-.2 21.6-.2 22.6-.2 22.6h-29.1c0 0 0-8.3 0-10.8 0-7.3-.1-14.5-.1-21.4-2 .3-3.1 1.3-5.2 1.5.2-8.8-.3-16.9-.2-25.6-1-2.3-.4-7.7-.5-11.4 0-.9.5-2.3-.5-2.7.1 5.6 0 11.5-.3 17.4-.3 6 1 12.2 0 17.6-.3 1.9-2.1 3.9-1.4 6-3.1.7-5.8 1.6-8.7 2.5-2.3 7.7-4.3 16.3-6.4 24.8-.7 2.7-1.8 5.9-2.2 8.5-.9 5.6-1.4 12.6-1.4 12.6h-29.5v-70.2l-28.3-6.7-.5-4-.4 4.8h-1.7-1.4l-12.3 4.2-2.2 112.4-1.8.6.2 8.5-1.1-.3-.9.9h-.4l-.2-3.6-1.2-.1-2-1.3h-2.9l-2 2h-2.5v1h-2.8l-.4-7.9-6.7-.7v.6h-3v .2l-.4-.2h-3.7v2h-3.1l-3.9-1.3v.6l-.1 1.7h-4.3l.4-34h .4l-.9-1.5h-1.6v-14.5l1.6-.2.6-1-2.6-.2-.1-1.2-3.7-.1-2.2-.6-.3-1.3-1.9-.1-.4-2-.4 1.4-2 .1-.2-3.1-.5-.1-.3-4.4-.4.1-.3-2.7h-.6l-.1-.7h-.5l-.2.5-.4.4-.2 2.7-.2 1.4h-1.6v-9.8l-.1-.2.2-.6-.5-.5v-1l-.5-.2-.3-2-.5-.1-.6-.9-.3-2.3-1.7-1.5h-.9l-.2-4h-1.6v1h .5l-.2 2.4-.8-.1-1.4 1.2-.2 1.1h-.4l-.1 1.5-.7.5-.6 1-1.2.3v1.3l-1 .4v1l-.6.3.2 1.7-.5.9v7.5h-.5l-.2-3h-.6l-.2-1.7-.4-.1-.3.9h-.5l-.5 2.4-1 .1v4.4l-.3-.1-.1 1.3-.5.5-2.6.2-1.2 1.1-2.1.5v1.7h-2v-.5l-1.8 1.1-.8.6.2 4.4-.8.8.1 1.2-.6.6-.1 3.2-.7.7-.1 6.1-.7.8-.7 25.6-2 .2-.1.6-1.1.1-.1 2.5-1.6 39.9h-1.4l.1-1.3-2.9-.7h-1.9v-4h-1l-.7-1h-.7l-1.6-.1v.5l-5 .7v2.9h-2v-1h-2.8l-1.9-33.6-7-1.4h-3.2l-18.7 3h-3.4v-1h-2v1h-2v-1.2-.4l-12.2 1.5 1.5 34.5h-.7l-1.3-32.8-7.1-1.3-1.2-16.9-9.9-1.4v-1.6l-.7-1.3-5.4-.1.1-1.9h-4.4-5.1l-8.5.1v.6l-17 2.7v4.6h-4v1h-2v1h-1v1h-1-1v1h-2.6l-2.4-.6v5.4l.7 41.2h-.7v13.4l-.3-.4h-5.8v2h-2v-3h-3v2h-3v-23h-1v-1h-30v6h-1v-53h-1v-10h-3v-5h-2v-2h-2.2c0-1-7-12.5-20.8-12.5-13.8 0-19.5 12.5-19.5 12.5h-2.5v1h-2v5h-2.5l-.5 65h-6v11h-4v29h-5v-18h-8v2h-2v-2h-4v-1h-4v-6l-.8-.8-1.2-3.4-1.8 4.3-1.2.5v5.4h-3v-5h-.9l-1.1-4.4-1.4 5.4h-2.6v35h-2v-3.7l-1 .6v-26c0 0-1-.1-1.8-.1 0-.6.4-1.4 0-1.7-1.7-.1-3.6.2-4.6-.4-.5-17.2-.6-34.7-1-52-9.5 0-18.6.3-28.2.2.1 15.8.4 31.5.2 47.5-1.2-.1-3 .3-3.9-.2-.3-4.8.3-10-.2-14.3-.1-1-1-1.7-.4-2.7-.6-.1-1.1-.5-.9-1.4-.2-.7-1.5-.3-1.5-1.2-.1-1.2.2-2.7-.2-3.7-1.9.1-3.3.7-4.6 1.4.1 1.2-.1 2.1-.2 3.1-1.7.2-3.3.6-4.8 1-.1.4-.4 1.2 0 1.5-.4.2-1.1.3-1.1 1 .5.9-.3 1.3-.4 2.1-.7 5.7.2 12.7-.2 18.9-1 .3-2.5.1-2.8 1-.4.6-.2 1.8-.2 2.9 0 .9.4 2.2-.4 2.5-.6-9.5-.2-19.8-.7-29.4-2-1.6-3.7-3.1-8-2.9-.2-1.7.3-3.6 0-4.8-1.3-1.2-3.4-1.7-5.6-1.5-.7 0-1.2.5-2 .6-1 .1-2-.6-2.6.2-.3-.3-.3-1-1.3-.8-1.1-.2-1.1.5-1.5 1-.2-.6-1.2-.6-2.2-.6-.7.2-.2 1.4-.9 1.5-2.3.3-4.6.5-6.5 1.2-.5.8-.1 2.2-.2 3.3-.1.7-1.3.5-1.7 1-.1.7.3 1.8-.4 1.9-.8.1-1.7.1-2.4.4-.9-.3-1.2-1.1-2.2-1.4-.8-.5.5-.9-.4-1.5-5.2-.7-12.2-.3-15.4 1.9-.6.6.6 1 0 1.7-2 1.3-3.9 3.8-5.6 4.6.2-2.9-.3-5.3-.2-8.1 0-.8-1.1-.6-.9-1.5-.1-1.1.2-2.7-.2-3.5-.1-.7-1.6-.1-2-.6-.1-1.8-.3-3.2-1.1-4.6-.7-1.4-2.2-2-2.4-3.9-.1-.6.1-.8 0-1.6 0-.4.5-1-.7-1-.2 0-.4 0-.7 0-.9 0-.4.9-.4 1.6-.1 1.6-.3 2.8-.9 4.1-.4.9-1.3 1.4-1.7 2.3-.2.4 0 .8-.2 1.5-.2.8-1.1 1.7-.4 3-.3.7-1.8.5-2.2 1.1-1 4.4-1.3 9.4-1.1 14.9.1.9-.9.8-.9 1.7-.4 4-1.6 7.2-1.3 11.8-.7.6-1.9.8-2.6 1.4-.6 4.4 0 7.9-.8 11.6-.2 1-1.5 2-2.5 3v .6c0 .1.5.3.4.4-.8 1.5-1.4 3-1.4 4.2 0-3.7 0-7.5 0-11.2-2-.8-7 0-7-.6 0-1.1 0-2.2 0-3.3-6-.7-9.4-.2-13.6-.8-.1-9.5.3-19.4-.2-28.6-1.2-.5-2.2 0-3.5 0-3.3.1-7.5-.4-10.2.2-1.7.4-3.8 2.5-5.2 3.5-1.8 1.2-4.4 2.1-5 3.7-.8 2-.2 4.9-.2 7.5 0 2.5.2 5.1-.2 7.5-6.9.3-15-.2-21.3.4-.7.1-1.3.5-2 .6-.5.1-.8-.4-1.3-.4-.7.1-.8 1.1-1.5.6-1 .2-1.2-.3-2-.4-2.3 1.4-7.2.5-10.2 1.2-.8.3 0 2.1-.9 2.3-1.2 0-2.6-.1-3.5.2-.4 1.4-.1 3.5-.2 5.2-1.9.4-3.2-.2-5.2-.2-1.1 1-1 2.2-1.5 3.3-3.9-.2-7.8-.3-10.4 1-.6.7.1 2.4-.4 3.1-3.6-.1-8.5-.8-11.3.2-.7.1-.3 1.1-1.1 1.2-3.7 0-7.4-.1-10.6.4-.3 1.9-.3 4.1-.4 6.2-.9.8-2 .9-2.4 2.3-.4 1.5.4 4 0 5.6-.2.7-.8.9-.9 1.5.2 1.8.7 4.4.2 6.2-1.7.1-2.1-1.2-2.5-2.3-1.1 0-2.5 0-3.5.1v.1c-1 0-.2 0-.4.1-.7.3.5 2.1-.5 2.1-1.6 0-1.1-.8-1.2-1.7-.4-2.3.3-6 0-8.3-.9-.3-2.4-.2-3.2-.6-1.4-2.9.5-7.9-.4-10.8-.3-.9-1.8-2.3-2.8-2.5-1.7-.4-5.2.2-7.2.4-2.3.2-4.5.3-6.7.6-.4 1.4-.1 3.5-.2 5.2-1.5 0-.3 2.4-2.4 1.9-.5-2.6-.1-6-.2-8.9-1.2-.4-1-2.1-2-2.7-1.3-.3-3.5-.4-4.6-.2-.2 1.3-.6 2.6-.7 3.9-.1 1.4.5 3.1.2 4.2-.2.8-1.3 1-1.7 1.7-.1.3.1 1 0 1.5-.1.4-.4.7-.4 1-.2 1.6.1 3.5 0 5.4-1.5.3-3-.1-4.1.2-1.2.4-1.9 1.4-3 1.7-.3-.7-2.5-.5-2.5-1.2 0-3.6 0-7.2 0-10.8 0-.9-.6-.4-.5-1.2.5-3.1.5-5.7.5-9.1-.7-.8-1.5-1-2-2.1-.2-.5-.4-2.5-.6-3.1-.3-.9-.2-2-1.3-2.3-1.1.4-.8 2.1-1.3 3.1-.1-1.5.4-3.6-.6-4.2-1.6-.4-.6 1.3-1.7 1.4-1.6 0-3.5-.1-4.8.2.2-1.7-1.5-1.7-2.8-1.9-.3-3.7 0-8.6 0-12.9 0-1.3.5-2.9-.7-3.7-1.2.2-.6 1.5-.7 2.1-.6 4.9-.7 11.3-1.5 16.2-.5-.3-2.1-.1-2.6.6-.5 1.6-.3 4.1.4 5.2-.2 1-2.3.4-2.4 1.5.9.8 0 1.8 1.3 2.7-.1 1.5.3 3.5-.2 4.6.4-1.5-.7-1.7-1.7-1.9-.5-.6-.6-2.3-2.2-1.9-1.1.7-1.6 2.8-1.6 4.4 0 4.5 0 9.9 0 14.5 0 .6-.7.2-.8 1-.2.9.8 1.7.5 2.7-.1.5-.3.6-.4 1.2-.1.7.2 1.8.1 2.5 0 .5.6 1.8-.6 1.7-1.8.3-.4-1.4-1.1-2.3-1.1 0-1.1-.9-1.7-1.4-1.7-.3-1.8.7-3.3.6-.5-1.5.1-3.9-.6-5.2-2.4-.4-4.9.1-7.2-.2-1.1-.1-2.1-.7-3.3-.2.2-1-.5-1.2-.9-1.2-1.4 0-2.8 0-4.1 0-.4 1-.9 1.4-1.7 2-3.2.2-6.5-.5-9.1-.2-1.2 1.1-1.5 2.9-2.4 4.2-1 .4-2.9-.1-3.9.3-.3.6-.2 1.6-.2 2.5-1.8 1.5-1.7 6.1-2.3 8.8-4.8 0-9 0-15 0v6.5h-20v38h1220 444 256v-38h-20zm-811.1-123.4l-.1-3.6h1.1c0 1 0 2.5.1 3.8z" fill="url(#SVGID_1_)"/></svg>