<?xml version="1.0" encoding="utf-8"?>
<!-- Generator: Adobe Illustrator 19.2.1, SVG Export Plug-In . SVG Version: 6.00 Build 0)  -->
<svg version="1.1" id="Layer_1" xmlns="http://www.w3.org/2000/svg" xmlns:xlink="http://www.w3.org/1999/xlink" x="0px" y="0px"
	 viewBox="0 0 1920 338.7" style="enable-background:new 0 0 1920 338.7;" xml:space="preserve">
<style type="text/css">
	.st0{fill:#FFFFFF;}
	.st1{fill:url(#SVGID_1_);}
</style>
<polygon class="st0" points="1920,197.7 0,197.7 0,138.4 960,189.9 1920,138.4 "/>
<linearGradient id="SVGID_1_" gradientUnits="userSpaceOnUse" x1="960" y1="338.6952" x2="960" y2="-238.8405">
	<stop  offset="0" style="stop-color:#034466"/>
	<stop  offset="1" style="stop-color:#1A5D80"/>
</linearGradient>
<path class="st1" d="M1900,300.7v-6.5c-6,0-10.5,0-15.3,0c-0.5-2.7-0.7-7.2-2.5-8.8c0-0.9,0.1-1.9-0.2-2.5c-1-0.4-2.9,0.1-3.9-0.4
	c-0.9-1.3-1.2-3.1-2.4-4.2c-2.6-0.4-6,0.5-9.1,0.2c-0.8-0.6-1.3-1-1.7-2c-1.4,0-2.8,0-4.1,0c-0.3,0-1.1,0.2-0.9,1.2
	c-1.1-0.4-2.2,0.2-3.3,0.3c-2.3,0.3-4.8-0.3-7.2,0.2c-0.7,1.3-0.2,3.7-0.6,5.2c-1.5,0.1-1.6-0.9-3.2-0.6c-0.6,0.4-0.6,1.4-1.7,1.3
	c-0.7,0.9,0.8,2.6-1,2.3c-1.1,0-0.5-1.3-0.6-1.7c0-0.7,0.3-1.8,0.1-2.5c-0.1-0.5-0.2-0.7-0.4-1.2c-0.3-1,0.8-1.8,0.6-2.7
	c-0.1-0.8-0.6-0.3-0.6-1c0-4.6,0-10,0-14.5c0-1.7-0.7-3.7-1.8-4.4c-1.6-0.4-2,1.3-2.5,1.9c-1.1,0.2-2.2,0.4-1.7,1.9
	c-0.5-1.2-0.1-3.2-0.2-4.6c1.3-0.9,0.4-1.9,1.3-2.7c-0.1-1.2-2.2-0.5-2.4-1.5c0.8-1.1,0.9-3.6,0.4-5.2c-0.5-0.7-2.1-0.8-2.6-0.6
	c-0.8-5-0.9-11.4-1.5-16.2c-0.1-0.6,0.5-1.9-0.7-2.1c-1.2,0.8-0.7,2.4-0.7,3.7c0,4.4,0.3,9.2,0,12.9c-1.4,0.3-3,0.3-2.8,1.9
	c-1.3-0.3-3.2-0.2-4.8-0.2c-1.1,0-0.1-1.8-1.7-1.4c-1.1,0.6-0.5,2.8-0.6,4.2c-0.5-1-0.2-2.7-1.3-3.1c-1.1,0.3-1,1.4-1.3,2.3
	c-0.2,0.6-0.3,2.6-0.5,3.1c-0.5,1.1-1.2,1.3-2,2.1c0,3.4,0.2,6,0.6,9.1c0.1,0.8-0.3,0.3-0.3,1.2c0,3.6,0,7.2,0,10.8
	c0,0.7-2.5,0.4-2.8,1.2c-1.1-0.3-2-1.4-3.2-1.7c-1.1-0.3-2.6,0.1-4.1-0.2c-0.1-2,0.2-3.8,0-5.4c0-0.3-0.3-0.6-0.4-1
	c-0.1-0.5,0.1-1.3,0-1.5c-0.4-0.8-1.5-1-1.7-1.7c-0.3-1.2,0.3-2.8,0.2-4.2c-0.1-1.3-0.4-2.5-0.7-3.9c-1.1-0.2-3.3-0.1-4.6,0.2
	c-1,0.6-0.7,2.3-2,2.7c-0.1,2.9,0.3,6.3-0.2,8.9c-2,0.5-0.9-1.9-2.4-1.9c-0.1-1.7,0.2-3.8-0.2-5.2c-2.2-0.3-4.4-0.4-6.7-0.6
	c-2-0.1-5.5-0.8-7.2-0.4c-1,0.2-2.5,1.6-2.8,2.5c-0.9,2.9,1,7.9-0.4,10.8c-0.9,0.4-2.3,0.3-3.2,0.6c-0.3,2.3,0.5,6,0.1,8.3
	c-0.2,1,0.4,1.8-1.2,1.7c-1,0,0.3-1.8-0.4-2.1c-0.2,0,0.8-0.1-0.2-0.1V283c-1-0.1-2.7-0.1-3.8-0.1c-0.4,1.1-1,2.4-2.7,2.3
	c-0.5-1.8,0-4.3,0.2-6.2c-0.1-0.7-0.7-0.8-0.9-1.5c-0.4-1.6,0.4-4.1,0-5.6c-0.4-1.4-1.5-1.6-2.4-2.3c-0.1-2.1-0.1-4.3-0.4-6.2
	c-3.2-0.4-6.9-0.4-10.6-0.4c-0.7,0-0.4-1-1.1-1.2c-2.8-1-7.7-0.3-11.3-0.2c-0.6-0.7,0.1-2.4-0.4-3.1c-2.7-1.3-6.5-1.2-10.4-1
	c-0.6-1.1-0.5-2.3-1.5-3.3c-2,0-3.3,0.6-5.2,0.2c-0.1-1.7,0.2-3.8-0.2-5.2c-0.9-0.3-2.3-0.2-3.5-0.2c-0.9-0.2-0.1-2-0.9-2.3
	c-3-0.7-7.9,0.2-10.2-1.2c-0.7,0.1-1,0.6-2,0.4c-0.7,0.5-0.8-0.5-1.5-0.6c-0.5,0-0.8,0.4-1.3,0.4c-0.7-0.1-1.3-0.5-2-0.6
	c-6.3-0.6-14.4-0.1-21.3-0.4c-0.4-2.4-0.2-5-0.2-7.5c0-2.6,0.6-5.6-0.2-7.5c-0.6-1.5-3.2-2.5-5-3.7c-1.5-0.9-3.5-3.1-5.2-3.5
	c-2.7-0.6-6.8-0.1-10.2-0.2c-1.3,0-2.2-0.5-3.4,0c-0.5,9.1,0.1,19.1-0.1,28.6c-4.2,0.5-7.4,0.1-13.4,0.8c0,1.1,0,2.2,0,3.3
	c0,0.6-5-0.3-7,0.6c0,0.9,0,2,0,3h-1v-1.2v-5.8h-2v6h-0.9c-0.5-4-0.3-6.7-0.8-10.5c-0.7-0.6-1.9-0.8-2.6-1.4
	c0.2-4.5-0.9-7.8-1.3-11.8c0.1-0.9-1-0.8-0.9-1.7c0.2-5.5-0.1-10.5-1.1-14.9c-0.4-0.7-1.9-0.4-2.2-1.1c0.7-1.4-0.2-2.3-0.4-3.1
	c-0.2-0.6,0-1.1-0.2-1.5c-0.4-0.9-1.3-1.5-1.7-2.4c-0.6-1.3-0.7-2.4-0.9-4c-0.1-0.6,0.4-1.6-0.4-1.6c-0.2,0-0.4,0-0.7,0
	c-1.1,0-0.6,0.6-0.7,1c-0.1,0.8,0.1,1,0,1.6c-0.2,1.8-1.6,2.4-2.4,3.8c-0.8,1.5-1,2.8-1.1,4.6c-0.3,0.5-1.8-0.1-2,0.6
	c-0.5,0.8-0.1,2.4-0.2,3.5c0.2,0.9-0.9,0.7-0.9,1.5c0.1,2.9-0.4,5.2-0.2,8.1c-1.8-0.9-3.7-3.3-5.6-4.6c-0.6-0.7,0.6-1.1,0-1.7
	c-3.2-2.2-10.3-2.7-15.4-1.9c-0.9,0.6,0.4,1-0.4,1.5c-1,0.2-1.3,1.1-2.2,1.4c-0.7-0.2-1.5-0.3-2.4-0.4c-0.8-0.1-0.3-1.3-0.4-1.9
	c-0.4-0.5-1.6-0.3-1.7-1c-0.1-1.1,0.2-2.5-0.2-3.3c-1.9-0.6-4.2-0.9-6.5-1.2c-0.7-0.2-0.2-1.4-0.9-1.5c-1-0.1-2-0.1-2.2,0.6
	c-0.4-0.4-0.4-1.2-1.5-1c-1-0.3-1,0.4-1.3,0.8c-0.6-0.8-1.6-0.1-2.6-0.2c-0.7-0.1-1.3-0.5-2-0.6c-2.2-0.1-4.4,0.4-5.6,1.5
	c-0.3,1.2,0.2,3.1,0,4.8c-4.3-0.2-6.1,1.3-8,2.9c-0.5,9.5-0.1,19.9-0.7,29.4c-0.8-0.3-0.4-1.6-0.4-2.5c0-1.1,0.2-2.3-0.2-2.9
	c-0.3-0.9-1.9-0.7-2.8-1c-0.4-6.2,0.5-13.3-0.2-18.9c-0.1-0.8-0.9-1.3-0.4-2.1c0-0.7-0.6-0.7-1.1-1c0.4-0.4,0.1-1.1,0-1.5
	c-1.5-0.4-3-0.8-4.8-1c-0.2-1-0.3-1.9-0.2-3.1c-1.3-0.7-2.7-1.2-4.6-1.4c-0.4,0.9-0.1,2.4-0.2,3.7c0,0.9-1.3,0.5-1.5,1.2
	c0.2,0.9-0.2,1.2-0.9,1.4c0.5,1-0.3,1.7-0.4,2.7c-0.5,4.3,0.1,9.5-0.2,14.3c-0.9,0.4-2.7,0.1-3.9,0.2c-0.1-16,0.2-31.7,0.2-47.5
	c-9.6,0.1-18.7-0.2-28.2-0.2c-0.5,17.2-0.5,34.7-1,52c-0.7,0.4-1.8,0.4-2.9,0.4l0.1-0.5l-2-0.1l0.1,2.4c-0.7,0-1.2,0.1-1.2,0.1v0.4
	l-0.2,0.2l0-3.4h-0.5l-0.7,0.3l-1.5-0.3h0.7l-0.1-1.4l-0.6-5.3l-0.2,3.7h-2.9l-1.4-5.4l-1.1,4.4h-0.4v2.6l-0.3,0l-0.1,1.3l-1.4,1
	l0,0.2h-1.2v-5.4l-1.3-0.5l-2-4.3l-1.1,3.4l-0.6,0.8v6h-4v1h-4v2h-2v-2h-8v0.3l-0.6-0.8l-0.3-0.5l-1.1-0.6l-0.7-0.1l-1.2-1.2l-1,1.7
	l-0.1,0v-9.9h-4v-11h-6.5l-0.5-65h-2v-5h-2v-1h-3c0,0-5.7-12.5-19.5-12.5c-13.8,0-20.8,11.5-20.8,12.5h-1.7v2h-2v5h-3v10h-1v13.5
	l-9,2.3l-0.7,31.2H1366v-29.4l-2-0.5v-7.2h-1h-1v-3h-1v-1h-3v-4.6l-18.1-13.3l-18.9,9.4v4.1l-12-1.9v-0.6l-9-0.1h-5.1l-4.3,0
	l0.1,1.9l-5.2,0.1l-0.5,1.2v1.8l-10.1,1.4l-0.3,3.4c-0.1-7.1-0.2-14.3-0.3-21.5c-0.2-0.5-1.3-0.2-1.3-1c0-5.9,0-11.8,0-17.8
	c-1-0.6-2.4-0.5-3.7-1c-0.2-2.3,0.4-4.1,0-5.8c-0.3-1.1-1.6-2.4-1-4.4c-0.9-0.5-2-0.9-2.8-1.5c-0.2-0.7,0.5-0.9,0-1.4
	c-1.2-0.8-2.7-2-3.2-3.7c-1.2-3.7,0.1-9.6-0.9-13.9c-0.3-1.3-1.3-2.3-0.6-3.5c-0.4-0.7-1.3-0.9-1.5-1.7c0-5.1-1.2-11.1-0.2-15.8
	c-1.5-2.2-0.9-6.3-1.3-9.5c-0.7,2.5-0.2,6.1-0.7,8.9c-0.4,0.2-0.4,0.7-0.7,1c0.9,2,0.4,4.7,0.2,7.5c-0.1,2.7,0.6,5.7,0,7.7
	c-0.3,0.9-1.4,1.2-1.7,1.9c0.6,1.3-0.4,2.2-0.7,3.5c-0.7,4,0.5,8.7,0,13.9c0,0.8-1.1,0.6-0.9,1.5c-0.2,4-1.8,7.1-3,10.4
	c-0.5,1.3-1,2.7-1.5,4.1c-0.5,1.3-1.3,2.5-1.5,3.9c-0.3,2.1,0.3,4.6-0.2,7.1c-0.2,0.5-1.6-0.1-1.3,0.8c-0.5,1.4-1.5,2.8-1.7,4.4
	c-0.7,4.4,0.7,10-0.2,14.5c-0.2,1.1-1.3,2.2-1.5,3.3c-0.7,3.5,0,7.8,0,11.6c0,2.8,0,5.7,0,8.7l-5.7-0.9l-0.2-23.1l-27.7-3.7
	l-12.4,3.2l0.1,20.7l-0.9,0.2l-4.2,0.4l-0.3,0.6l-2.2-0.1l-0.2-1.2l-1.2-0.2l-0.2-4.2l-0.4-0.1l-0.3-3.8l-0.9-0.7l-0.8-0.2V175
	l-0.8-0.7l-1-0.2l-2.2-0.5v-8l-0.2-0.1l0-2.4l-2.6-0.1l-0.1,2.1l-3.7-0.4l-2.6,0.1l-4.7,1.3v6.1l-2.6,0.8l-2.4,0.1v0.5l-1,0.2v2.6
	v2.2h-3v3.1l0.1,0.6l-0.3-0.5l-0.9-0.1l-0.4,0.5l-1.5,0.5v4.1l-0.9-0.1l-0.3-1.2l-0.8,0.1v23.8c-5-0.6-9.7-1.1-14.6-1.6
	c-1.1,0.3-1,3-2,2.6c-0.5-34.4-1-68.6-2-102.5c-0.6,0.8-0.1,2.5-1.2,2.9c-0.1-0.8,0.3-2-0.6-2.1c-0.3,2-0.4,4.3-0.9,6.2
	c-0.1-1.3,0.3-3-0.3-3.9c-1.5,0.5-0.9,2.8-1.8,3.9c-0.4-3-0.2-8.5-0.6-12.5c-5.4-0.6-10.6-1.4-16.3-1.8c0.1-0.9-1-1.8-1.2-2.6
	c-0.4-2-0.8-4.4-0.9-6.5c-0.4-8.9-1.8-18.9-1.8-27.5c0,8.8,0,18.5,0,27.5c0,3,1.3,6-0.1,8.6c-3.6-0.4-7.1-0.7-10.4-1.3
	c0,3.5,0.2,8.7,0.2,13.2c0,1.3,0.6,3.1-0.5,3.9c-1.5-2.2,0.6-7.6-2.3-8.6c-0.2,6.6-0.3,13.4-0.9,19.7c-0.4-0.4-1.5-0.2-2.3-0.3
	c-1.3-7.5-0.9-15.6-2.3-23c-0.9,22.4-0.8,44.8-0.5,68.8h-1.9v-1h-3v-17h-1v-5h-1v-4.2v-1.8h-1v-3h-2v-2h-1v-1h-1v-4h-1v-2.2v-3.8h-1
	v-6h0l-0.3-21l-0.7,21h-1v5h-2v5h-2v1.4v4.4v2.2h-1v3h-1v3h-1v4h-1v5h-2v18h-2v-1h-1v-2h1v-2h-1v-1h1v-2h-1v-2h1v-3h-3v-1h2v-1h-3
	v-2h1v-2h-3v-1h2v-2h-3v-1h2v-3h-2v-2h-2v-2h1v-2h-2v-1h1v-2.2v0.2h-1v1h-1v-2.4l1,0.2v-1.8h-3v-1.4l-7-18.2l-16.3-1.9l-5.3,18.5
	h-22.6c0-2-0.1-2.6-0.1-3.5c-0.2-4.1,0.6-8.7,0-12.7c-0.1-0.7-0.7-1.6-0.8-2.4c-0.3-2,0.3-4.2,0-6c-0.3-1.2,1.1-0.9,1.1-1.8
	c-1.5-1-1.9-2.8-2.8-4.2c-0.9-1.5-2.2-3-2.5-4.5c-0.2-0.9,0.3-1.9,0.3-2.7c0-5.3,0.3-10.9-1.4-15.9c-0.4-1.2-1.3-2.3-1.7-3.5
	c-0.7-2.2-0.6-4.6-1.1-7c-1-4.2-2.4-8.4-3.6-12.7c-0.6-2-1.6-4-2.2-6c-0.3-1-0.2-2.1-0.6-3.2c-0.2-0.8-0.9-1.7-1.1-2.5
	c-0.3-1.3,0-2.8-0.3-4.2c-0.2-1.4-1-2.6-1.1-4c-0.2-1.6,0.2-3.2,0-4.7c-0.1-1.1-0.7-2.1-0.8-3.2c-0.6-5.4-0.2-11.2-0.6-17.1
	c-0.2-3.2,0.6-6.7-0.6-9.9c-0.9,7-0.5,14.5-0.8,21.6c-0.3,5.4-0.6,10.9-1.7,16.4c-0.4,1.8-0.4,3.7-0.8,5.2c-0.6,2.2-2.9,3.9-2.2,6.5
	c-1.8,1.8-3.4,3.8-3.1,7.4c-1.9,1.9-2.7,4.7-2.5,8.4c-1.8,2-1,4.6-1.4,7c-0.2,1-1,1.8-1.1,2.7c-0.3,1.5,0.3,2.9,0,4.5
	c-0.2,0.9-0.9,1.8-1.1,2.7c-0.8,4.3,0.1,9.2-0.3,14.1c-0.8-0.4-1.8-0.7-2.8-0.2c0.1,1.3,2.7,1.8,2,3c-2,1-4.5,0.1-6.4,0.2
	c-0.2,1.4,2,1.7,2.5,3.5c0.3,1.3-0.2,2.5,0,4.2c-0.4,0.6-1.8,0.9-1.7,1.9c-0.2,21.6-0.2,22.6-0.2,22.6H927c0,0,0-8.3,0-10.8
	c0-7.3-0.1-14.5-0.1-21.4c-2,0.3-3.1,1.3-5.2,1.5c0.2-8.8-0.3-16.9-0.2-25.6c-1-2.3-0.4-7.7-0.5-11.4c0-0.9,0.5-2.3-0.5-2.7
	c0.1,5.6,0,11.5-0.3,17.4c-0.3,6,1,12.2,0,17.6c-0.3,1.9-2.1,3.9-1.4,6c-3.1,0.7-5.8,1.6-8.7,2.5c-2.3,7.7-4.3,16.3-6.4,24.8
	c-0.7,2.7-1.8,5.9-2.2,8.5c-0.9,5.6-1.4,12.6-1.4,12.6h-29.5l0-70.2l-28.3-6.7l-0.5-4l-0.4,4.8h-1.7h-1.4L826,78.6L823.8,191
	l-1.8,0.6l0.2,8.5l-1.1-0.3l-0.9,0.9h-0.4l-0.2-3.6l-1.2-0.1l-2-1.3h-2.9l-2,2H809v1h-2.8l-0.4-7.9l-6.7-0.7v0.6h-3v0.2l-0.4-0.2
	H792v2h-3.1l-3.9-1.3v0.6l-0.1,1.7h-4.3l0.4-34h0.4l-0.9-1.5l-1.6,0v-14.5l1.6-0.2l0.6-1l-2.6-0.2l-0.1-1.2l-3.7-0.1l-2.2-0.6
	l-0.3-1.3l-1.9-0.1l-0.4-2l-0.4,1.4l-2,0.1l-0.2-3.1l-0.5-0.1l-0.3-4.4l-0.4,0.1l-0.3-2.7l-0.6,0l-0.1-0.7h-0.5l-0.2,0.5l-0.4,0.4
	l-0.2,2.7l-0.2,1.4H762v-9.8l-0.1-0.2l0.2-0.6l-0.5-0.5l0-1l-0.5-0.2l-0.3-2l-0.5-0.1l-0.6-0.9l-0.3-2.3l-1.7-1.5h-0.9l-0.2-4H755v1
	h0.5l-0.2,2.4l-0.8-0.1l-1.4,1.2l-0.2,1.1l-0.4,0l-0.1,1.5l-0.7,0.5l-0.6,1l-1.2,0.3v1.3l-1,0.4v1l-0.6,0.3l0.2,1.7l-0.5,0.9l0,7.5
	h-0.5l-0.2-3h-0.6l-0.2-1.7l-0.4-0.1l-0.3,0.9l-0.5,0l-0.5,2.4l-1,0.1v4.4l-0.3-0.1l-0.1,1.3l-0.5,0.5l-2.6,0.2l-1.2,1.1L737,138
	v1.7h-2v-0.5l-1.8,1.1l-0.8,0.6l0.2,4.4l-0.8,0.8l0.1,1.2l-0.6,0.6l-0.1,3.2l-0.7,0.7l-0.1,6.1l-0.7,0.8l-0.7,25.6l-2,0.2l-0.1,0.6
	l-1.1,0.1l-0.1,2.5l-1.6,39.9h-1.4l0.1-1.3l-2.9-0.7H718v-4h-1l-0.7-1h-0.7l-1.6-0.1v0.5l-5,0.7v2.9h-2v-1h-2.8l-1.9-33.6l-7-1.4
	h-3.2l-18.7,3H670v-1h-2v1h-2v-1.2v-0.4l-12.2,1.5l1.5,34.5l-0.7,0l-1.3-32.8l-7.1-1.3l-1.2-16.9l-9.9-1.4V172l-0.7-1.3l-5.4-0.1
	l0.1-1.9l-4.4,0h-5.1l-8.5,0.1v0.6l-17,2.7v4.6h-4v1h-2v1h-1v1h-1h-1v1h-2.6l-2.4-0.6v5.4l0.7,41.2l-0.7,0v13.4l-0.3-0.4H574v2h-2
	v-3h-3v2h-3v-23h-1v-1h-30v6h-1v-53h-1v-10h-3v-5h-2v-2h-2.2c0-1-7-12.5-20.8-12.5c-13.8,0-19.5,12.5-19.5,12.5H483v1h-2v5h-2.5
	l-0.5,65h-6v11h-4v29h-5v-18h-8v2h-2v-2h-4v-1h-4v-6l-0.8-0.8l-1.2-3.4l-1.8,4.3l-1.2,0.5v5.4h-3v-5h-0.9l-1.1-4.4l-1.4,5.4H431v35
	h-2V272l-1,0.6v-26c0,0-1-0.1-1.8-0.1c0-0.6,0.4-1.4,0-1.7c-1.7-0.1-3.6,0.2-4.6-0.4c-0.5-17.2-0.6-34.7-1-52
	c-9.5,0-18.6,0.3-28.2,0.2c0.1,15.8,0.4,31.5,0.2,47.5c-1.2-0.1-3,0.3-3.9-0.2c-0.3-4.8,0.3-10-0.2-14.3c-0.1-1-1-1.7-0.4-2.7
	c-0.6-0.1-1.1-0.5-0.9-1.4c-0.2-0.7-1.5-0.3-1.5-1.2c-0.1-1.2,0.2-2.7-0.2-3.7c-1.9,0.1-3.3,0.7-4.6,1.4c0.1,1.2-0.1,2.1-0.2,3.1
	c-1.7,0.2-3.3,0.6-4.8,1c-0.1,0.4-0.4,1.2,0,1.5c-0.4,0.2-1.1,0.3-1.1,1c0.5,0.9-0.3,1.3-0.4,2.1c-0.7,5.7,0.2,12.7-0.2,18.9
	c-1,0.3-2.5,0.1-2.8,1c-0.4,0.6-0.2,1.8-0.2,2.9c0,0.9,0.4,2.2-0.4,2.5c-0.6-9.5-0.2-19.8-0.7-29.4c-2-1.6-3.7-3.1-8-2.9
	c-0.2-1.7,0.3-3.6,0-4.8c-1.3-1.2-3.4-1.7-5.6-1.5c-0.7,0-1.2,0.5-2,0.6c-1,0.1-2-0.6-2.6,0.2c-0.3-0.3-0.3-1-1.3-0.8
	c-1.1-0.2-1.1,0.5-1.5,1c-0.2-0.6-1.2-0.6-2.2-0.6c-0.7,0.2-0.2,1.4-0.9,1.5c-2.3,0.3-4.6,0.5-6.5,1.2c-0.5,0.8-0.1,2.2-0.2,3.3
	c-0.1,0.7-1.3,0.5-1.7,1c-0.1,0.7,0.3,1.8-0.4,1.9c-0.8,0.1-1.7,0.1-2.4,0.4c-0.9-0.3-1.2-1.1-2.2-1.4c-0.8-0.5,0.5-0.9-0.4-1.5
	c-5.2-0.7-12.2-0.3-15.4,1.9c-0.6,0.6,0.6,1,0,1.7c-2,1.3-3.9,3.8-5.6,4.6c0.2-2.9-0.3-5.3-0.2-8.1c0-0.8-1.1-0.6-0.9-1.5
	c-0.1-1.1,0.2-2.7-0.2-3.5c-0.1-0.7-1.6-0.1-2-0.6c-0.1-1.8-0.3-3.2-1.1-4.6c-0.7-1.4-2.2-2-2.4-3.9c-0.1-0.6,0.1-0.8,0-1.6
	c0-0.4,0.5-1-0.7-1c-0.2,0-0.4,0-0.7,0c-0.9,0-0.4,0.9-0.4,1.6c-0.1,1.6-0.3,2.8-0.9,4.1c-0.4,0.9-1.3,1.4-1.7,2.3
	c-0.2,0.4,0,0.8-0.2,1.5c-0.2,0.8-1.1,1.7-0.4,3c-0.3,0.7-1.8,0.5-2.2,1.1c-1,4.4-1.3,9.4-1.1,14.9c0.1,0.9-0.9,0.8-0.9,1.7
	c-0.4,4-1.6,7.2-1.3,11.8c-0.7,0.6-1.9,0.8-2.6,1.4c-0.6,4.4,0,7.9-0.8,11.6c-0.2,1-1.5,2-2.5,3v0.6c0,0.1,0.5,0.3,0.4,0.4
	c-0.8,1.5-1.4,3-1.4,4.2c0-3.7,0-7.5,0-11.2c-2-0.8-7,0-7-0.6c0-1.1,0-2.2,0-3.3c-6-0.7-9.4-0.2-13.6-0.8
	c-0.1-9.5,0.3-19.4-0.2-28.6c-1.2-0.5-2.2,0-3.5,0c-3.3,0.1-7.5-0.4-10.2,0.2c-1.7,0.4-3.8,2.5-5.2,3.5c-1.8,1.2-4.4,2.1-5,3.7
	c-0.8,2-0.2,4.9-0.2,7.5c0,2.5,0.2,5.1-0.2,7.5c-6.9,0.3-15-0.2-21.3,0.4c-0.7,0.1-1.3,0.5-2,0.6c-0.5,0.1-0.8-0.4-1.3-0.4
	c-0.7,0.1-0.8,1.1-1.5,0.6c-1,0.2-1.2-0.3-2-0.4c-2.3,1.4-7.2,0.5-10.2,1.2c-0.8,0.3,0,2.1-0.9,2.3c-1.2,0-2.6-0.1-3.5,0.2
	c-0.4,1.4-0.1,3.5-0.2,5.2c-1.9,0.4-3.2-0.2-5.2-0.2c-1.1,1-1,2.2-1.5,3.3c-3.9-0.2-7.8-0.3-10.4,1c-0.6,0.7,0.1,2.4-0.4,3.1
	c-3.6-0.1-8.5-0.8-11.3,0.2c-0.7,0.1-0.3,1.1-1.1,1.2c-3.7,0-7.4-0.1-10.6,0.4c-0.3,1.9-0.3,4.1-0.4,6.2c-0.9,0.8-2,0.9-2.4,2.3
	c-0.4,1.5,0.4,4,0,5.6c-0.2,0.7-0.8,0.9-0.9,1.5c0.2,1.8,0.7,4.4,0.2,6.2c-1.7,0.1-2.1-1.2-2.5-2.3c-1.1,0-2.5,0-3.5,0.1v0.1
	c-1,0-0.2,0-0.4,0.1c-0.7,0.3,0.5,2.1-0.5,2.1c-1.6,0-1.1-0.8-1.2-1.7c-0.4-2.3,0.3-6,0-8.3c-0.9-0.3-2.4-0.2-3.2-0.6
	c-1.4-2.9,0.5-7.9-0.4-10.8c-0.3-0.9-1.8-2.3-2.8-2.5c-1.7-0.4-5.2,0.2-7.2,0.4c-2.3,0.2-4.5,0.3-6.7,0.6c-0.4,1.4-0.1,3.5-0.2,5.2
	c-1.5,0-0.3,2.4-2.4,1.9c-0.5-2.6-0.1-6-0.2-8.9c-1.2-0.4-1-2.1-2-2.7c-1.3-0.3-3.5-0.4-4.6-0.2c-0.2,1.3-0.6,2.6-0.7,3.9
	c-0.1,1.4,0.5,3.1,0.2,4.2c-0.2,0.8-1.3,1-1.7,1.7c-0.1,0.3,0.1,1,0,1.5c-0.1,0.4-0.4,0.7-0.4,1c-0.2,1.6,0.1,3.5,0,5.4
	c-1.5,0.3-3-0.1-4.1,0.2c-1.2,0.4-1.9,1.4-3,1.7c-0.3-0.7-2.5-0.5-2.5-1.2c0-3.6,0-7.2,0-10.8c0-0.9-0.6-0.4-0.5-1.2
	c0.5-3.1,0.5-5.7,0.5-9.1c-0.7-0.8-1.5-1-2-2.1c-0.2-0.5-0.4-2.5-0.6-3.1c-0.3-0.9-0.2-2-1.3-2.3c-1.1,0.4-0.8,2.1-1.3,3.1
	c-0.1-1.5,0.4-3.6-0.6-4.2c-1.6-0.4-0.6,1.3-1.7,1.4c-1.6,0-3.5-0.1-4.8,0.2c0.2-1.7-1.5-1.7-2.8-1.9c-0.3-3.7,0-8.6,0-12.9
	c0-1.3,0.5-2.9-0.7-3.7c-1.2,0.2-0.6,1.5-0.7,2.1c-0.6,4.9-0.7,11.3-1.5,16.2c-0.5-0.3-2.1-0.1-2.6,0.6c-0.5,1.6-0.3,4.1,0.4,5.2
	c-0.2,1-2.3,0.4-2.4,1.5c0.9,0.8,0,1.8,1.3,2.7c-0.1,1.5,0.3,3.5-0.2,4.6c0.4-1.5-0.7-1.7-1.7-1.9c-0.5-0.6-0.6-2.3-2.2-1.9
	c-1.1,0.7-1.6,2.8-1.6,4.4c0,4.5,0,9.9,0,14.5c0,0.6-0.7,0.2-0.8,1c-0.2,0.9,0.8,1.7,0.5,2.7c-0.1,0.5-0.3,0.6-0.4,1.2
	c-0.1,0.7,0.2,1.8,0.1,2.5c0,0.5,0.6,1.8-0.6,1.7c-1.8,0.3-0.4-1.4-1.1-2.3c-1.1,0-1.1-0.9-1.7-1.4c-1.7-0.3-1.8,0.7-3.3,0.6
	c-0.5-1.5,0.1-3.9-0.6-5.2c-2.4-0.4-4.9,0.1-7.2-0.2c-1.1-0.1-2.1-0.7-3.3-0.2c0.2-1-0.5-1.2-0.9-1.2c-1.4,0-2.8,0-4.1,0
	c-0.4,1-0.9,1.4-1.7,2c-3.2,0.2-6.5-0.5-9.1-0.2c-1.2,1.1-1.5,2.9-2.4,4.2c-1,0.4-2.9-0.1-3.9,0.3c-0.3,0.6-0.2,1.6-0.2,2.5
	c-1.8,1.5-1.7,6.1-2.3,8.8c-4.8,0-9,0-15,0v6.5H0v38h1220h444h256v-38H1900z M1088.9,177.3l-0.1-3.6h1.1c0,1,0,2.5,0.1,3.8
	L1088.9,177.3z"/>
</svg>
