<svg id="Layer_1" enable-background="new 0 0 200 50" viewBox="0 0 200 50" xmlns="http://www.w3.org/2000/svg"><path d="m0 0h50v50h-50z" fill="none"/><path d="m50 0h50v50h-50z" fill="none"/><path d="m100 0h50v50h-50z" fill="none"/><path d="m150 0h50v50h-50z" fill="none"/><path d="m135.5 33.9c-.5-1.5-4.2-3.6-5.9-4.3-.1-.1-.3 0-.4 0l-4.2 2-3.8-2c-.1-.1-.2-.1-.4 0-1.5.6-5.9 2.6-6.4 4.4-.3 1.2-.4 1.8-.4 1.8 0 0 0 .1 0 .1 0 .6.3.9.6 1 .4.2.8.2 1.3.2.1 0 .2 0 .3 0h17.6c.1 0 .3 0 .4 0 .1 0 .3 0 .4 0 .3 0 1.4 0 1.4-1.1-.1-.6-.1-.9-.5-2.1zm-.9 2.2c-.1 0-.2 0-.3 0-.1 0-.3 0-.4 0h-17.6c-.1 0-.2 0-.3 0-.1 0-.2 0-.3 0 0 0 0 0 0 0-.1 0-.4 0-.6-.1 0 0-.1 0-.1-.2 0-.2.2-.7.4-1.8.3-1 3.4-2.8 5.6-3.7l3.8 2c .1.1.3.1.4 0l4.2-2c2.5 1.1 5 2.9 5.2 3.7.4 1.2.4 1.4.4 1.8.1.3.1.3-.4.3z" fill="#7f8c8d"/><path d="m120.4 24.3c.2.6.5 1 .8 1.5.1.1.2.3.2.4.3.5.6.8.9 1.1 0 .4-.1 1-.2 1.4-.1.2.1.5.3.5.2.1.5-.1.5-.3.1-.5.2-1.3.2-1.8 0-.1-.1-.3-.2-.4-.3-.2-.6-.5-.8-1-.1-.1-.2-.3-.3-.4-.3-.5-.6-.9-.8-1.5-.1-.2-.2-.3-.4-.3 0 0-.2-.1-.2-.2-.4-.8-.6-2.1-.6-2.3 0 0 .1 0 .2 0 .1 0 .2 0 .3-.1.1-.1.1-.2.1-.3-.1-2.5.8-3.9 1.6-4.6.1-.1.2-.3.1-.5 0 0 0 0 0 0 .4-.3 1-.2 1-.2v-.4l.4-.2c0-.1 0-.2.1-.4.2.2.6.4.9.4.9.3 1.6.5 2 .7 1.9.7 2.9 2.7 2.8 5.3 0 .1 0 .2.1.3s.2.1.3.1c.1 0 .1 0 .1 0 .1.3-.1 1.5-.5 2.3-.1.1-.2.2-.2.2-.2 0-.3.1-.4.3-.2.6-.5 1-.8 1.5-.1.1-.2.3-.3.4-.3.4-.5.7-.8.9-.1.1-.2.2-.2.4 0 .4 0 1.2.2 1.9.1.2.2.3.4.3 0 0 .1 0 .1 0 .2-.1.4-.3.3-.5-.1-.5-.2-1.1-.2-1.4.3-.3.5-.6.8-1 .1-.1.2-.3.3-.4.3-.4.6-.9.8-1.5.2-.1.5-.3.6-.6.5-.9.8-2.5.6-3-.1-.2-.3-.4-.5-.5 0-2.8-1.2-4.9-3.4-5.8-.4-.2-1.1-.5-2.1-.7-.4-.1-.6-.3-.6-.3 0-.1-.1-.2-.2-.3-.1-.1-.2-.1-.3-.1-.4.1-.7.6-.9.9-.1.1-.1.3-.1.4-.6.1-1.4.4-1.6 1.2 0 .1 0 .2 0 .2-.8.9-1.5 2.2-1.5 4.4-.3.1-.5.3-.6.5-.2.6.1 2.1.6 3 .6.2.8.4 1.1.5z" fill="#7f8c8d"/><path d="m34.6 22.7l-3.3 2.3v-4.6c0-.2-.2-.4-.4-.4h-11.7c-.2 0-.4.2-.4.4v4.6l-3.3-2.3c-.2-.1-.5-.1-.6.1s-.1.5.1.6l8.4 5.7c.5.3 1.1.5 1.7.5s1.2-.2 1.7-.5l8.4-5.7c.2-.1.3-.4.1-.6-.2-.1-.5-.2-.7-.1zm-8.4 5.8c-.7.5-1.8.5-2.5 0l-4.2-2.9c0-.1.1-.1.1-.2v-4.5h10.8v4.5c0 .1 0 .2.1.2z" fill="#7f8c8d"/><path d="m36.4 21l-9.7-7.5c-.5-.3-1.1-.5-1.7-.5s-1.2.2-1.7.5l-9.7 7.5c-.4.3-.7.9-.7 1.4v12.3c0 1.2 1 2.2 2.2 2.2h19.7c1.2 0 2.2-1 2.2-2.2v-12.3c.1-.5-.2-1.1-.6-1.4zm-.2 13.8c0 .7-.6 1.3-1.3 1.3h-19.8c-.7 0-1.3-.6-1.3-1.3v-12.4c0-.2.2-.6.3-.7l9.7-7.5c.3-.2.7-.4 1.1-.4.4 0 .9.1 1.1.4l9.7 7.5c.2.1.3.5.3.7v12.4z" fill="#7f8c8d"/><path d="m28.1 22.7h-6.3c-.2 0-.4.2-.4.4s.2.4.4.4h6.3c.2 0 .4-.2.4-.4.1-.2-.1-.4-.4-.4z" fill="#7f8c8d"/><path d="m28.1 24.5h-6.3c-.2 0-.4.2-.4.4s.2.4.4.4h6.3c.2 0 .4-.2.4-.4s-.1-.4-.4-.4z" fill="#7f8c8d"/><path d="m87.1 32.9c-.1-.4-.3-.8-.9-1.2l-5.3-3.7c-.3-.2-.6-.3-.9-.3-.5 0-1 .2-1.3.7l-1.4 2c-.1.2-.1.3-.1.5-.5.1-2.1 0-4.6-2.5-2.5-2.4-3.6-4.2-3.5-5.4 0 0 0 0 .1-.1.1 0 .2-.1.3-.2l1.9-1.5c.7-.5.8-1.5.3-2.2l-3.8-5.2c-.7-1-1.6-1.1-2.5-.3-.6.5-1.6 1.7-2 2.5-.2.4-.3.8-.3 1.2-.1.6-.5 2.3.1 4.7.7 3.3 2.6 6.5 5.6 9.4 5.1 4.9 9.5 5.6 11.8 5.7l0 0c1.3 0 2.2-.2 2.6-.4.4 0 .8-.1 1.1-.3.7-.4 1.9-1.4 2.4-2.1.4-.5.5-.9.4-1.3zm-1.1.7c-.4.5-1.5 1.5-2.2 1.8-.1.1-.2.1-.3.1-.6-.3-1.7-.8-2-1.2-.2-.2-.4-.2-.6-.1-.2.2-.2.4-.1.6.3.4.8.7 1.3 1-.4.1-1 .2-1.7.2l0 0c-2.1 0-6.3-.7-11.1-5.4-6.8-6.6-5.5-12.6-5.3-13.2 0-.1 0-.1 0-.2 0-.2 0-.5.2-.7.4-.6 1.3-1.8 1.8-2.2.2-.2.4-.3.6-.3.1 0 .3 0 .6.5l3.8 5.2c.2.3.2.8-.1 1l-1.9 1.4c0 0 0 0 0 0-.5-.4-1.2-1-1.4-1.3-.1-.2-.4-.3-.6-.1-.2.1-.3.4-.1.6.3.5 1 1 1.5 1.4-.4 1.5.8 3.5 3.7 6.3 2.3 2.3 4 2.8 5 2.8.4 0 .8-.1.9-.2.1-.1.2-.2.2-.3 0-.1 0-.2 0-.2 0-.1 0-.1 0-.2l1.4-1.9c.2-.3.7-.4 1-.1l5.4 3.7c.3.2.5.4.5.6-.2 0-.3.2-.5.4z" fill="#7f8c8d"/><path d="m74.5 18.2c3.5 1.1 6.3 3.8 7.3 7.3.1.2.2.3.4.3 0 0 .1 0 .1 0 .2-.1.4-.3.3-.6-1.2-3.8-4.2-6.7-7.9-7.9-.2-.1-.5.1-.6.3 0 .3.1.6.4.6z" fill="#7f8c8d"/><path d="m75.1 14.9c5.3 1.2 9.3 5.5 10.2 10.8 0 .2.2.4.4.4 0 0 .1 0 .1 0 .2 0 .4-.3.4-.5-1-5.7-5.3-10.2-10.9-11.5-.2-.1-.5.1-.5.3-.1.2.1.4.3.5z" fill="#7f8c8d"/><path d="m175 22.9c-2.5 0-7.3-.5-7.3-2.2 0-1.1 1.8-1.6 3.3-1.9.2 0 .5.1.5.4 0 .2-.1.5-.4.5-2.2.4-2.6.9-2.6 1 0 .4 2.2 1.3 6.4 1.3s6.4-.9 6.4-1.3c0-.1-.4-.6-2.5-1-.2 0-.4-.3-.4-.5 0-.2.3-.4.5-.4 2.2.4 3.3 1 3.3 1.9.1 1.7-4.7 2.2-7.2 2.2z" fill="#7f8c8d"/><path d="m175 28.6c-2.8 0-7.3-.6-7.3-2.2v-5.6c0-.2.2-.4.4-.4.2 0 .4.2.4.4v5.6c.1.4 2.4 1.3 6.4 1.3 4 0 6.3-.9 6.4-1.3v-5.6c0-.2.2-.4.4-.4.2 0 .4.2.4.4v5.6c.2 1.6-4.3 2.2-7.1 2.2z" fill="#7f8c8d"/><path d="m175 31.2c-5.1 0-10.5-1.4-10.5-3.4 0-1 1.2-1.8 3.6-2.3.2-.1.5.1.5.3.1.2-.1.5-.3.5-2.3.5-2.9 1.2-2.9 1.5 0 .9 3.8 2.5 9.6 2.5 5.9 0 9.6-1.7 9.6-2.5 0-.3-.6-.9-2.9-1.5-.2-.1-.4-.3-.3-.5.1-.2.3-.4.5-.3 2.3.6 3.5 1.3 3.5 2.3.1 2-5.3 3.4-10.4 3.4z" fill="#7f8c8d"/><path d="m175 37c-5.6 0-10.5-1.6-10.5-3.4v-5.7c0-.2.2-.4.4-.4s.4.2.4.4v5.7c0 .7 3.7 2.5 9.6 2.5 5.9 0 9.6-1.8 9.6-2.5v-5.7c0-.2.2-.4.4-.4.2 0 .4.2.4.4v5.7c.2 1.8-4.7 3.4-10.3 3.4z" fill="#7f8c8d"/><path d="m175 18.5c-.7 0-4.2-.1-4.2-1.3 0-1 2.1-1.3 3.4-1.3.2 0 .5.2.5.4 0 .2-.2.5-.4.5-1.3.1-2.1.3-2.4.4.4.2 1.5.5 3.2.5 1.7 0 2.8-.3 3.2-.5-.2-.1-.8-.3-1.8-.4-.2 0-.4-.2-.4-.5 0-.2.2-.4.5-.4 1.8.2 2.7.6 2.7 1.3-.1 1.3-3.6 1.3-4.3 1.3z" fill="#7f8c8d"/><path d="m175 21.1c-.7 0-4.2-.1-4.2-1.3v-2.3c0-.2.2-.4.4-.4s.4.2.4.4v2.2c.2.2 1.4.5 3.3.5 1.9 0 3.1-.3 3.3-.5v-2.2c0-.2.2-.4.4-.4s.4.2.4.4v2.3c.2 1.2-3.3 1.3-4 1.3z" fill="#7f8c8d"/><path d="m174.4 17.3c-.1 0-.2 0-.3-.1 0 0-.1-.1-.1-.1 0 0 0-.1 0-.1-.3-.6-.8-2.4-.9-2.6-.1-.3 0-.7.2-1 .2-.3.5-.5.9-.5.6-.1 1.2.3 1.4.8.1-.1.3-.1.5-.1.4 0 .9.2 1.1.6.2.3.3.7.2 1.2-.1.4-.3.7-.5.9-.3.2-1.8.8-2.3.9 0 .1-.1.1-.2.1.1 0 .1 0 0 0zm0-3.4c0 0 0 0 0 0-.2 0-.3.1-.3.2 0 .1-.1.1-.1.3.1.3.4 1.5.7 2.1.5-.2 1.5-.6 1.8-.7.1 0 .1-.1.1-.3 0-.2 0-.4-.1-.5-.1-.1-.2-.2-.4-.2-.1 0-.2 0-.2.1 0 0-.1 0-.1 0-.1 0-.1.1-.2.2-.1.2-.4.3-.6.2-.2-.1-.3-.3-.2-.6.1-.2.1-.2.1-.3 0 0 0-.1 0-.1-.1-.2-.3-.4-.5-.4z" fill="#7f8c8d"/><circle cx="175" cy="25.5" fill="#7f8c8d" r=".8"/><circle cx="170.4" cy="24.8" fill="#7f8c8d" r=".8"/><circle cx="179.6" cy="24.8" fill="#7f8c8d" r=".8"/><circle cx="167.4" cy="32.2" fill="#7f8c8d" r=".8"/><circle cx="183.1" cy="32.2" fill="#7f8c8d" r=".8"/><circle cx="172.4" cy="33.5" fill="#7f8c8d" r=".8"/><circle cx="178.1" cy="33.5" fill="#7f8c8d" r=".8"/></svg>