<?xml version="1.0" encoding="utf-8"?>
<!-- Generator: Adobe Illustrator 19.2.1, SVG Export Plug-In . SVG Version: 6.00 Build 0)  -->
<svg version="1.1" id="Layer_1" xmlns="http://www.w3.org/2000/svg" xmlns:xlink="http://www.w3.org/1999/xlink" x="0px" y="0px"
	 viewBox="0 0 251.9 154" style="enable-background:new 0 0 251.9 154;" xml:space="preserve">
<path class="st0" d="M74,28.5H61.4V39H61c-6.2-7.9-15.3-12.6-25.4-12.6C13.4,26.4,0,44.6,0,65.7c0,20.5,13.7,39,35.5,39
	c10.4,0,19.1-4.1,25.6-12.3h0.3v10.3H74V28.5z M37.1,38.1c15.6,0,24.9,12,24.9,26.8c0,15-8.5,28.1-24.8,28.1
	c-15.8,0-24.3-13.7-24.3-28.2C12.9,50.9,22.4,38.1,37.1,38.1 M162.6,28.5H150v74.1h12.6V28.5z M133.1,40.2
	c-3.3-7.7-11.2-13.7-19.7-13.7c-12,0-22.1,8.5-22.1,21c0,23.3,33.4,17.7,33.4,34.2c0,6.8-5.2,11.4-12,11.4c-8.4,0-12-4.9-15.1-11.8
	l-11.2,4.7c3.9,11.7,13.7,18.8,26.2,18.8c13.7,0,25.1-10.1,25.1-24.1c0-12.5-8.5-17.7-17.2-21.3c-8.7-3.6-17.2-6.2-17.2-12.9
	c0-4.7,4.7-8.2,9.1-8.2c4.6,0,8.4,3.6,10.1,7.6L133.1,40.2z M251.9,28.5h-12.6V39H239c-6.2-7.9-15.3-12.6-25.4-12.6
	c-22.2,0-35.6,18.1-35.6,39.3c0,20.5,13.7,39,35.5,39c10.4,0,19.1-4.1,25.6-12.3h0.3v10.3h12.6V28.5z M215,38.1
	c15.6,0,24.9,12,24.9,26.8c0,15-8.5,28.1-24.8,28.1c-15.8,0-24.3-13.7-24.3-28.2C190.9,50.9,200.3,38.1,215,38.1 M156.3,0
	c-4.9,0-9,4.1-9,9c0,5,4.1,9,9,9c4.9,0,9-3.9,9-9C165.3,4.1,161.2,0,156.3,0z M156.5,14.1c-2.9,0-5.3-2.4-5.3-5.3
	c0-2.9,2.4-5.3,5.3-5.3c2.9,0,5.3,2.4,5.3,5.3C161.7,11.8,159.4,14.1,156.5,14.1z"/>
<path class="st0" d="M239.8,132.9c0.7-2.7,2.3-7,5.5-7c2.4,0,3.1,1.6,3.1,3.8c0,1.8-0.4,4.1-1.8,8c-1.6,4.4-2.6,5.5-5.3,5.5
	c-1.7,0-2.9-1.6-2.9-3.3C238.4,137.9,239.2,134.9,239.8,132.9 M238,154l0.3-0.9h-3.3l2.7-11.3h0.1c0.7,1.7,2.3,2.3,4,2.3
	c5.2,0,10.1-6.6,10.1-11.8c0-6-3.8-7.3-5.9-7.3c-2.4,0-3.7,1.2-5,2.8l-0.1-0.1l0.7-2.7c-2.3,0.2-4.7,0.5-5.8,0.5h-0.9l-0.3,1.1h3.6
	l-6.4,26.5h-2.5L229,154H238z M217.5,126.6l-2.5,10.8c-0.3,1.4-0.9,3.2-0.9,3.7c0,2.4,1.9,3.2,3.9,3.2c2.7,0,5.4-1.9,6.7-4.1
	l0.1,0.1c-0.4,2.1,0.4,4,2.9,4c3.6,0,5.5-3.7,6.5-6.8l-0.8-0.3c-0.7,1.8-2.2,5.5-4.4,5.5c-0.9,0-1.2-0.8-1.2-1.6
	c0-0.7,1.4-5.8,1.9-7.8l2-7.7h-3.3l-2.6,10.1c-1.1,4-4,7.1-6.8,7.1c-0.5,0-1.8-0.2-1.8-1.6c0-0.8,0.4-1.9,0.5-2.5l3.3-13.6
	c-1.7,0.2-4.9,0.5-6.1,0.5h-0.9l-0.3,1.1H217.5z M200.7,130.9c0.9-2.5,2.5-5,5.4-5c2.3,0,3.3,1.5,3.3,3.8c0,2.8-0.8,5.8-1.7,8.4
	c-0.9,2.6-2.3,5-5.3,5c-2.1,0-3.5-1.7-3.5-3.8C198.8,137.8,200.1,132.5,200.7,130.9 M213.1,132.3c0-3.9-2.8-7.3-6.7-7.3
	c-5.8,0-11.1,6.2-11.1,12.4c0,3.1,2.4,6.7,7.1,6.7C208.1,144.1,213.1,137.6,213.1,132.3 M182.9,143.6h3.3l2.2-8.6
	c1.1-4.4,3.8-7.6,4.7-7.6c0.8,0,1.3,1.2,2.6,1.2c1,0,1.8-0.8,1.8-1.8c0-1.2-1.1-1.8-2.1-1.8c-2.5,0-4.5,2.5-5.6,4.6l-0.1,0l1.1-4.6
	c-1.7,0.2-4.9,0.5-6.1,0.5h-0.9l-0.3,1.1h3.6L182.9,143.6z M172.4,144.8c1.6,0.2,3.5,0.5,3.5,2.7c0,4.1-6,5.3-9,5.3
	c-4.8,0-5.1-3.2-5.1-3.8c0-2.4,1-3.8,2.9-5C166.6,144.5,170.4,144.6,172.4,144.8 M181.1,124.7c-2.1,0-2.8,2.5-3.3,4.2h0
	c-1-2.2-2.8-3.8-5.3-3.8c-4,0-8.1,3.1-8.1,7.5c0,1.2,0.6,2.7,1.4,3.5c-2.6,1.2-4.4,3.1-4.4,4.9c0,1.7,0.8,2.5,2.3,2.8v0.1
	c-2,0.8-4.5,2.2-4.5,4.9c0,3.9,3.9,5.2,7.1,5.2c5,0,11.5-1.8,11.5-7.9c0-3.6-2.1-4.4-6.9-4.8c-3.8-0.3-6.8-0.4-6.8-2.1
	c0-1.1,1.6-2.2,2.6-2.2c1,0.7,2.2,1.1,3.5,1.1c3.9,0,6.5-2.2,7.7-5.3c1.9-4.7,1.4-5.3,1.9-5.4c0.5,0.4,1,0.8,1.7,0.8
	c0.8,0,1.5-0.8,1.5-1.6C182.9,125.5,182.2,124.7,181.1,124.7 M170.3,137c-1.5,0-2.8-0.9-2.8-2.6c0-0.6,0.6-8.4,4.9-8.5
	c0.7,0,2.7,0,2.7,2.7C175,131.4,173.6,137,170.3,137"/>
</svg>
