<svg id="Layer_1" enable-background="new 0 0 251.9 154" viewBox="0 0 251.9 154" xmlns="http://www.w3.org/2000/svg"><path d="m74 28.5h-12.6v10.5h-.4c-6.2-7.9-15.3-12.6-25.4-12.6-22.2 0-35.6 18.2-35.6 39.3 0 20.5 13.7 39 35.5 39 10.4 0 19.1-4.1 25.6-12.3h.3v10.3h12.6zm-36.9 9.6c15.6 0 24.9 12 24.9 26.8 0 15-8.5 28.1-24.8 28.1-15.8 0-24.3-13.7-24.3-28.2 0-13.9 9.5-26.7 24.2-26.7m125.5-9.6h-12.6v74.1h12.6zm-29.5 11.7c-3.3-7.7-11.2-13.7-19.7-13.7-12 0-22.1 8.5-22.1 21 0 23.3 33.4 17.7 33.4 34.2 0 6.8-5.2 11.4-12 11.4-8.4 0-12-4.9-15.1-11.8l-11.2 4.7c3.9 11.7 13.7 18.8 26.2 18.8 13.7 0 25.1-10.1 25.1-24.1 0-12.5-8.5-17.7-17.2-21.3-8.7-3.6-17.2-6.2-17.2-12.9 0-4.7 4.7-8.2 9.1-8.2 4.6 0 8.4 3.6 10.1 7.6zm118.8-11.7h-12.6v10.5h-.3c-6.2-7.9-15.3-12.6-25.4-12.6-22.2 0-35.6 18.1-35.6 39.3 0 20.5 13.7 39 35.5 39 10.4 0 19.1-4.1 25.6-12.3h.3v10.3h12.6v-74.2zm-36.9 9.6c15.6 0 24.9 12 24.9 26.8 0 15-8.5 28.1-24.8 28.1-15.8 0-24.3-13.7-24.3-28.2.1-13.9 9.5-26.7 24.2-26.7m-58.7-38.1c-4.9 0-9 4.1-9 9 0 5 4.1 9 9 9 4.9 0 9-3.9 9-9 0-4.9-4.1-9-9-9zm .2 14.1c-2.9 0-5.3-2.4-5.3-5.3 0-2.9 2.4-5.3 5.3-5.3 2.9 0 5.3 2.4 5.3 5.3-.1 3-2.4 5.3-5.3 5.3z"/><path d="m239.8 132.9c.7-2.7 2.3-7 5.5-7 2.4 0 3.1 1.6 3.1 3.8 0 1.8-.4 4.1-1.8 8-1.6 4.4-2.6 5.5-5.3 5.5-1.7 0-2.9-1.6-2.9-3.3 0-2 .8-5 1.4-7m-1.8 21.1l.3-.9h-3.3l2.7-11.3h.1c.7 1.7 2.3 2.3 4 2.3 5.2 0 10.1-6.6 10.1-11.8 0-6-3.8-7.3-5.9-7.3-2.4 0-3.7 1.2-5 2.8l-.1-.1.7-2.7c-2.3.2-4.7.5-5.8.5h-.9l-.3 1.1h3.6l-6.4 26.5h-2.5l-.3.9zm-20.5-27.4l-2.5 10.8c-.3 1.4-.9 3.2-.9 3.7 0 2.4 1.9 3.2 3.9 3.2 2.7 0 5.4-1.9 6.7-4.1l.1.1c-.4 2.1.4 4 2.9 4 3.6 0 5.5-3.7 6.5-6.8l-.8-.3c-.7 1.8-2.2 5.5-4.4 5.5-.9 0-1.2-.8-1.2-1.6 0-.7 1.4-5.8 1.9-7.8l2-7.7h-3.3l-2.6 10.1c-1.1 4-4 7.1-6.8 7.1-.5 0-1.8-.2-1.8-1.6 0-.8.4-1.9.5-2.5l3.3-13.6c-1.7.2-4.9.5-6.1.5h-.9l-.3 1.1h3.8zm-16.8 4.3c.9-2.5 2.5-5 5.4-5 2.3 0 3.3 1.5 3.3 3.8 0 2.8-.8 5.8-1.7 8.4-.9 2.6-2.3 5-5.3 5-2.1 0-3.5-1.7-3.5-3.8-.1-1.5 1.2-6.8 1.8-8.4m12.4 1.4c0-3.9-2.8-7.3-6.7-7.3-5.8 0-11.1 6.2-11.1 12.4 0 3.1 2.4 6.7 7.1 6.7 5.7 0 10.7-6.5 10.7-11.8m-30.2 11.3h3.3l2.2-8.6c1.1-4.4 3.8-7.6 4.7-7.6.8 0 1.3 1.2 2.6 1.2 1 0 1.8-.8 1.8-1.8 0-1.2-1.1-1.8-2.1-1.8-2.5 0-4.5 2.5-5.6 4.6h-.1l1.1-4.6c-1.7.2-4.9.5-6.1.5h-.9l-.3 1.1h3.6zm-10.5 1.2c1.6.2 3.5.5 3.5 2.7 0 4.1-6 5.3-9 5.3-4.8 0-5.1-3.2-5.1-3.8 0-2.4 1-3.8 2.9-5 1.9.5 5.7.6 7.7.8m8.7-20.1c-2.1 0-2.8 2.5-3.3 4.2h0c-1-2.2-2.8-3.8-5.3-3.8-4 0-8.1 3.1-8.1 7.5 0 1.2.6 2.7 1.4 3.5-2.6 1.2-4.4 3.1-4.4 4.9 0 1.7.8 2.5 2.3 2.8v.1c-2 .8-4.5 2.2-4.5 4.9 0 3.9 3.9 5.2 7.1 5.2 5 0 11.5-1.8 11.5-7.9 0-3.6-2.1-4.4-6.9-4.8-3.8-.3-6.8-.4-6.8-2.1 0-1.1 1.6-2.2 2.6-2.2 1 .7 2.2 1.1 3.5 1.1 3.9 0 6.5-2.2 7.7-5.3 1.9-4.7 1.4-5.3 1.9-5.4.5.4 1 .8 1.7.8.8 0 1.5-.8 1.5-1.6-.1-1.1-.8-1.9-1.9-1.9m-10.8 12.3c-1.5 0-2.8-.9-2.8-2.6 0-.6.6-8.4 4.9-8.5.7 0 2.7 0 2.7 2.7-.1 2.8-1.5 8.4-4.8 8.4"/></svg>