<svg style="display: none;" height="0" width="0" xmlns="http://www.w3.org/2000/svg"><defs><symbol id="waze" viewBox="0 0 36 32"><path d="m35.495 14.525c0 .064-.032.128-.032.192-.032 1.218-.257 2.405-.577 3.591-.513 1.731-1.379 3.238-2.533 4.617-1.315 1.571-2.886 2.822-4.681 3.784-.128.064-.289.16-.417.224.417 1.154.321 2.277-.353 3.335-.545.898-1.379 1.443-2.405 1.667-1.988.449-4.329-.962-4.489-3.463-1.764 0-3.559 0-5.355 0-.032.224-.064.481-.128.737-.192.802-.609 1.475-1.251 1.988-.545.449-1.186.737-1.892.802-.898.096-1.699-.096-2.469-.577-.93-.609-1.507-1.475-1.667-2.565-.096-.545-.064-1.09.096-1.603.032-.096.032-.128-.096-.192-1.25-.449-2.437-1.026-3.559-1.796-.77-.577-1.539-1.218-2.244-1.956-.385-.417-.77-.866-1.122-1.315-.513-.641-.417-1.667.128-2.277.385-.417.866-.609 1.411-.641.289 0 .577-.032.866-.096.609-.128.994-.545 1.218-1.122.224-.545.353-1.122.417-1.699.096-.898.16-1.796.256-2.693.096-.994.192-1.988.449-2.95.321-1.251.834-2.405 1.539-3.495.737-1.154 1.667-2.18 2.725-3.078 2.116-1.796 4.521-2.95 7.214-3.559.802-.192 1.603-.289 2.405-.353.802-.032 1.571-.032 2.341.032 1.796.128 3.559.577 5.226 1.315 1.379.577 2.661 1.347 3.816 2.309 2.148 1.796 3.719 4.008 4.585 6.701.257.866.449 1.731.513 2.629.032.257.032.545.064.802 0 .064 0 .16.032.224-.032.16-.032.321-.032.481zm-33.603 6.445c0 0-.032 0 0 0 0 .032.032.064.032.064.77.962 1.635 1.828 2.661 2.533 1.154.834 2.437 1.411 3.784 1.892.096.032.16 0 .224-.064.866-.705 1.892-.994 2.982-.802 1.186.192 2.052.834 2.661 1.86.032.032.096.096.128.096.321.032.673.064.994.064 1.667 0 3.303 0 4.97 0 .096 0 .128-.032.16-.096.449-.802 1.058-1.379 1.924-1.699 1.315-.481 2.533-.289 3.655.513.064.064.128.064.192.032 1.603-.77 3.014-1.828 4.232-3.11.866-.93 1.571-1.956 2.084-3.11.866-1.956 1.186-4.008.962-6.156-.16-1.315-.513-2.565-1.122-3.752-1.154-2.277-2.854-4.008-5.002-5.323-1.988-1.218-4.168-1.892-6.509-2.02-1.186-.064-2.373 0-3.527.224-1.443.289-2.822.737-4.104 1.411-1.924.994-3.591 2.341-4.874 4.136-.705 1.026-1.25 2.116-1.539 3.335-.256.962-.321 1.988-.417 2.982-.096.898-.16 1.828-.289 2.725-.096.802-.321 1.603-.705 2.309-.481.93-1.25 1.539-2.277 1.796-.385.064-.834.096-1.283.16z" fill="#3d3e3d"/><path d="m1.892 20.97c.449-.064.898-.096 1.347-.224 1.026-.256 1.764-.866 2.277-1.796.385-.737.609-1.507.705-2.309.128-.898.192-1.828.289-2.725.096-.994.16-1.988.417-2.982.321-1.186.834-2.309 1.539-3.335 1.251-1.796 2.918-3.142 4.874-4.136 1.315-.673 2.661-1.154 4.104-1.411 1.154-.224 2.341-.289 3.527-.224 2.341.16 4.489.834 6.509 2.02 2.148 1.315 3.88 3.046 5.002 5.323.609 1.186.962 2.437 1.122 3.752.224 2.148-.096 4.168-.962 6.156-.513 1.154-1.218 2.18-2.084 3.11-1.218 1.315-2.629 2.341-4.232 3.11-.096.032-.128.032-.192-.032-1.122-.834-2.341-1.026-3.655-.513-.834.321-1.475.898-1.924 1.699-.032.064-.096.096-.16.096-1.667 0-3.303 0-4.97 0-.321 0-.673-.032-.994-.064-.064 0-.128-.032-.128-.096-.609-1.026-1.475-1.667-2.661-1.86-1.122-.192-2.116.096-2.982.802-.064.064-.128.096-.224.064-1.347-.449-2.629-1.058-3.784-1.892-.994-.705-1.892-1.539-2.661-2.533-.064.064-.096.032-.096 0-.032 0 0 0 0 0z" fill="#d8e0e4"/><path d="m19.976 20.713c-1.892-.032-3.559-.673-4.874-2.052-.673-.705-1.154-1.539-1.347-2.469-.128-.641.321-1.186.962-1.154.385 0 .77.321.866.705.192.898.705 1.571 1.379 2.084 1.058.834 2.309 1.122 3.623.994.898-.096 1.699-.353 2.437-.834.834-.545 1.411-1.25 1.667-2.212.128-.513.641-.802 1.122-.673s.802.609.673 1.09c-.192.834-.577 1.571-1.154 2.212-1.026 1.154-2.309 1.828-3.816 2.148-.513.096-1.026.16-1.539.16zm-2.341-9.587c0-.962-.802-1.796-1.764-1.796-.994 0-1.796.802-1.796 1.764 0 .994.802 1.796 1.796 1.796.962.032 1.764-.77 1.764-1.764zm8.369 0c0-.994-.802-1.796-1.796-1.796s-1.796.802-1.796 1.796.802 1.796 1.796 1.796 1.796-.802 1.796-1.796z" fill="#3d3e3d"/><path d="m12.088 28.216c0 .673-.474 1.218-1.058 1.218s-1.058-.546-1.058-1.218c0-.673.474-1.218 1.058-1.218s1.058.546 1.058 1.218z" fill="#515252"/><path d="m24.786 28.216c0 .673-.474 1.218-1.058 1.218s-1.058-.546-1.058-1.218c0-.673.474-1.218 1.058-1.218s1.058.546 1.058 1.218z" fill="#515252"/></symbol><symbol id="about-us" viewBox="0 0 32 32"><path d="m16 0v0c-8.832 0-16 6.336-16 14.176 0 4 1.888 7.616 4.864 10.176l-.96 7.616c2.912-1.184 5.248-2.656 7.04-4.352 1.6.48 3.296.736 5.056.736 8.832 0 16-6.336 16-14.176s-7.168-14.176-16-14.176zm2.944 20.928l-.256 1.056c-.768.288-1.376.544-1.856.704-.448.16-.992.224-1.6.224-.928 0-1.664-.224-2.176-.672s-.768-1.024-.768-1.728c0-.288.032-.544.064-.832s.064-.608.192-.96l.768-2.56c.096-.32.16-.64.224-.928s.096-.544.096-.8c0-.448-.096-.736-.256-.896s-.512-.256-1.024-.256c-.256 0-.512.032-.768.128-.256.064-.48.16-.672.224l.256-1.056c.64-.256 1.248-.48 1.824-.672s1.12-.288 1.632-.288c.928 0 1.632.224 2.144.672s.768 1.024.768 1.76c0 .16-.032.416-.064.768-.032.384-.096.736-.192 1.024l-.768 2.528c-.096.288-.16.576-.224.928s-.096.608-.096.8c0 .448.096.768.288.928s.544.256 1.056.256c.224 0 .512-.032.8-.128.256-.096.48-.16.608-.224zm.064-12.512c0 .576-.224 1.088-.672 1.504s-.992.64-1.632.64c-.64 0-1.184-.224-1.632-.64s-.672-.928-.672-1.504c0-.608.224-1.088.672-1.536.448-.416.992-.64 1.632-.64s1.184.224 1.632.64c.448.416.672.928.672 1.536z"/></symbol><symbol id="arrow" viewBox="0 0 32 32"><path d="m16 32c-8.838 0-16-7.162-16-16s7.162-16 16-16c8.838 0 16 7.162 16 16s-7.162 16-16 16zm0-30.476c-8 0-14.476 6.476-14.476 14.476s6.476 14.476 14.476 14.476 14.476-6.476 14.476-14.476-6.476-14.476-14.476-14.476z"/><path d="m16 19.467c-.419 0-.762-.343-.762-.762v-11.848c0-.419.343-.762.762-.762s.762.343.762.762v11.848c0 .419-.343.762-.762.762z"/><path d="m16 25.143c-1.143-3.048-3.048-6.781-5.067-9.105l5.067 1.829 5.067-1.829c-2.019 2.324-3.962 6.057-5.067 9.105z"/></symbol><symbol id="articles" viewBox="0 0 41 32"><path d="m4.48 6.176l1.12 5.952-5.6 1.856c0 0 1.248 1.312 2.016 3.712l2.912 7.872c.256.768.64 2.24 1.376 3.168.544.608 1.408 1.184 2.432.416 1.28-.992 1.152-2.496.864-3.936-.352-1.888-3.52-17.888-3.52-17.888l29.664-5.664 3.392 18.176c.256 1.28-.352 2.944-1.6 3.36-3.52 1.28-26.784 6.816-28.448 7.392-.096.032-.224.064-.32.064-.64.064-1.44-.16-2.24-.512.448.576 1.824 2.112 3.008 1.76v0c0 0 25.664-6.368 28.064-7.2 2.464-.864 3.488-2.72 3.04-5.088-.48-2.336-3.68-19.616-3.68-19.616zm6.528 9.344l-1.184-6.272 1.12-.224 3.168 3.744-.8-4.192 1.088-.192 1.184 6.272-1.184.224-3.104-3.648.768 4.096zm5.792-1.088l-1.184-6.272 4.288-.8.192 1.056-3.104.608.256 1.408 2.88-.544.192 1.056-2.88.544.32 1.696 3.232-.608.192 1.056zm6.208-1.184l-2.56-6.016 1.184-.224 1.696 4.16.224-4.512 1.376-.256 1.856 4.16.032-4.576 1.184-.224-.192 6.56-1.248.256-2.048-4.48-.256 4.928zm6.08-3.296l1.12-.32c.16.416.352.672.576.832.256.16.544.192.896.128.384-.064.64-.224.8-.416.16-.224.224-.416.16-.672-.032-.16-.096-.256-.192-.352s-.256-.16-.48-.192c-.16-.032-.48-.064-.992-.096-.672-.064-1.12-.16-1.44-.352-.416-.288-.672-.672-.768-1.152-.064-.32-.032-.64.064-.96.128-.32.32-.576.608-.768s.64-.352 1.088-.448c.736-.128 1.312-.064 1.728.224s.704.704.832 1.28l-1.152.288c-.096-.32-.256-.512-.448-.64-.192-.096-.448-.128-.768-.064-.352.064-.576.192-.768.384-.096.128-.128.256-.096.416s.096.256.256.352c.16.096.544.16 1.152.224.608.032 1.056.096 1.344.224.288.096.544.288.768.512.192.256.352.576.416.96.064.352.032.704-.096 1.056s-.352.64-.64.864c-.32.224-.704.384-1.216.48-.736.128-1.312.064-1.792-.224-.384-.384-.736-.864-.96-1.568zm-4.736 6.752l-12.672 2.4-.192-1.088 12.672-2.4zm12.544 4.128l-9.44 1.792-1.408-7.392 9.472-1.792zm-11.936-1.056l-12.672 2.4-.192-1.088 12.672-2.4zm.608 3.232l-12.672 2.4-.224-1.088 12.672-2.4z"/></symbol><symbol id="commercial" viewBox="0 0 35 32"><path d="m21.408 28.768v-28.768l-14.24 3.808v3.68l-4.736 1.28v20h-2.432v3.232h35.328v-3.232h-2.208v-20l-2.688-1.28v-3.008l-8.096-4.352v28.64zm-17.408 0c0-1.28 0-2.56 0-3.84 2.304-.096 4.736-.192 7.296-.32 2.688-.128 5.568-.224 8.608-.352 0 1.504 0 3.008 0 4.512-3.04 0-5.888 0-8.608 0-2.56 0-4.992 0-7.296 0zm28 0c-1.152 0-2.368 0-3.648 0-1.344 0-2.784 0-4.288 0 0-1.504 0-3.008 0-4.512 1.504.128 2.944.256 4.288.352 1.28.096 2.496.224 3.648.32 0 1.28 0 2.56 0 3.84zm0-13.728c-1.152-.352-2.368-.736-3.648-1.12-1.344-.416-2.784-.832-4.288-1.312 0-1.504 0-3.008 0-4.512 1.504.576 2.944 1.152 4.288 1.664 1.28.512 2.496.96 3.648 1.408 0 1.312 0 2.592 0 3.872zm0 4.608c-1.152-.224-2.368-.48-3.648-.736-1.344-.288-2.784-.576-4.288-.864 0-1.504 0-3.008 0-4.512 1.504.448 2.944.832 4.288 1.248 1.28.352 2.496.704 3.648 1.056 0 1.248 0 2.528 0 3.808zm0 4.512c-1.152-.128-2.368-.256-3.648-.384-1.344-.128-2.784-.288-4.288-.448 0-1.504 0-3.008 0-4.512 1.504.288 2.944.544 4.288.8 1.28.224 2.496.48 3.648.672 0 1.312 0 2.592 0 3.872zm-28-9.12c0-1.28 0-2.56 0-3.84 2.304-.448 4.736-.928 7.296-1.408 2.688-.512 5.568-1.088 8.608-1.664 0 1.504 0 3.008 0 4.512-3.04.448-5.888.896-8.608 1.312-2.56.384-4.992.736-7.296 1.088zm0 4.608c0-1.28 0-2.56 0-3.84 2.304-.32 4.736-.672 7.296-1.056 2.688-.384 5.568-.8 8.608-1.248 0 1.504 0 3.008 0 4.512-3.04.32-5.888.608-8.608.864-2.56.288-4.992.544-7.296.768zm0 4.512c0-1.28 0-2.56 0-3.84 2.304-.224 4.736-.448 7.296-.672 2.688-.256 5.568-.512 8.608-.8 0 1.504 0 3.008 0 4.512-3.04.16-5.888.288-8.608.448-2.56.128-4.992.256-7.296.352z"/></symbol><symbol id="email" viewBox="0 0 50 32"><path d="m2.133 0h45.346l-19.746 12.552c-.794.496-1.985.843-2.927.843s-2.133-.347-2.927-.843zm31.653 16.868l-3.026 1.935 16.422 13.246h-44.155l16.174-12.998-3.026-1.935-16.174 12.949v-27.336l19.994 12.701c1.34.893 3.175 1.439 4.812 1.439 1.687 0 3.473-.546 4.862-1.439l19.944-12.701v26.791l-15.826-12.651z"/></symbol><symbol id="flag_en" viewBox="0 0 55 32"><path d="m0 29.53h54.889v2.47h-54.889z" fill="#cb001c"/><path d="m0 27.115h54.889v2.47h-54.889z" fill="#fff"/><path d="m0 24.645h54.889v2.47h-54.889z" fill="#cb001c"/><path d="m0 22.175h54.889v2.47h-54.889z" fill="#fff"/><path d="m0 19.705h54.889v2.47h-54.889z" fill="#cb001c"/><path d="m0 17.235h54.889v2.47h-54.889z" fill="#fff"/><path d="m0 14.765h54.889v2.47h-54.889z" fill="#cb001c"/><path d="m0 12.295h54.889v2.47h-54.889z" fill="#fff"/><path d="m0 9.825h54.889v2.47h-54.889z" fill="#cb001c"/><path d="m0 7.41h54.889v2.47h-54.889z" fill="#fff"/><path d="m0 4.94h54.889v2.47h-54.889z" fill="#cb001c"/><path d="m0 2.47h54.889v2.47h-54.889z" fill="#fff"/><path d="m0 0h54.889v2.47h-54.889z" fill="#cb001c"/><path d="m0 0h25.084v17.235h-25.084z" fill="#2a3560"/><path d="m2.25 1.921l.22.659h.659l-.549.384.22.659-.549-.439-.549.439.22-.659-.549-.384h.659z" fill="#fff"/><path d="m2.25 4.775l.22.659h.659l-.549.384.22.659-.549-.384-.549.384.22-.659-.549-.384h.659z" fill="#fff"/><path d="m2.25 7.63l.22.659h.659l-.549.439.22.659-.549-.439-.549.439.22-.659-.549-.439h.659z" fill="#fff"/><path d="m2.25 10.539l.22.659h.659l-.549.384.22.659-.549-.384-.549.384.22-.659-.549-.384h.659z" fill="#fff"/><path d="m2.25 13.393l.22.659h.659l-.549.439.22.604-.549-.384-.549.384.22-.604-.549-.439h.659z" fill="#fff"/><path d="m4.281 3.403l.22.659h.659l-.549.384.22.659-.549-.384-.549.384.165-.659-.549-.384h.714z" fill="#fff"/><path d="m4.281 6.312l.22.659h.659l-.549.384.22.659-.549-.439-.549.439.165-.659-.549-.384h.714z" fill="#fff"/><path d="m4.281 9.166l.22.659h.659l-.549.384.22.659-.549-.384-.549.384.165-.659-.549-.384h.714z" fill="#fff"/><path d="m4.281 12.075l.22.604h.659l-.549.439.22.659-.549-.439-.549.439.165-.659-.549-.439h.714z" fill="#fff"/><path d="m6.312 1.921l.22.659h.659l-.549.384.22.659-.549-.439-.549.439.165-.659-.549-.384h.714z" fill="#fff"/><path d="m6.312 4.775l.22.659h.659l-.549.384.22.659-.549-.384-.549.384.165-.659-.549-.384h.714z" fill="#fff"/><path d="m6.312 7.63l.22.659h.659l-.549.439.22.659-.549-.439-.549.439.165-.659-.549-.439h.714z" fill="#fff"/><path d="m6.312 10.539l.22.659h.659l-.549.384.22.659-.549-.384-.549.384.165-.659-.549-.384h.714z" fill="#fff"/><path d="m6.312 13.393l.22.659h.659l-.549.439.22.604-.549-.384-.549.384.165-.604-.549-.439h.714z" fill="#fff"/><path d="m8.288 3.403l.22.659h.714l-.604.384.22.659-.549-.384-.549.384.22-.659-.549-.384h.659z" fill="#fff"/><path d="m8.288 6.312l.22.659h.714l-.604.384.22.659-.549-.439-.549.439.22-.659-.549-.384h.659z" fill="#fff"/><path d="m8.288 9.166l.22.659h.714l-.604.384.22.659-.549-.384-.549.384.22-.659-.549-.384h.659z" fill="#fff"/><path d="m8.288 12.075l.22.604h.714l-.604.439.22.659-.549-.439-.549.439.22-.659-.549-.439h.659z" fill="#fff"/><path d="m10.319 1.921l.22.659h.714l-.604.384.22.659-.549-.439-.549.439.22-.659-.549-.384h.659z" fill="#fff"/><path d="m10.319 4.775l.22.659h.714l-.604.384.22.659-.549-.384-.549.384.22-.659-.549-.384h.659z" fill="#fff"/><path d="m10.319 7.63l.22.659h.714l-.604.439.22.659-.549-.439-.549.439.22-.659-.549-.439h.659z" fill="#fff"/><path d="m10.319 10.539l.22.659h.714l-.604.384.22.659-.549-.384-.549.384.22-.659-.549-.384h.659z" fill="#fff"/><path d="m10.319 13.393l.22.659h.714l-.604.439.22.604-.549-.384-.549.384.22-.604-.549-.439h.659z" fill="#fff"/><path d="m12.35 3.403l.22.659h.659l-.549.384.22.659-.549-.384-.549.384.165-.659-.549-.384h.714z" fill="#fff"/><path d="m12.35 6.312l.22.659h.659l-.549.384.22.659-.549-.439-.549.439.165-.659-.549-.384h.714z" fill="#fff"/><path d="m12.35 9.166l.22.659h.659l-.549.384.22.659-.549-.384-.549.384.165-.659-.549-.384h.714z" fill="#fff"/><path d="m12.35 12.075l.22.604h.659l-.549.439.22.659-.549-.439-.549.439.165-.659-.549-.439h.714z" fill="#fff"/><path d="m14.381 1.921l.22.659h.659l-.549.384.22.659-.549-.439-.549.439.165-.659-.549-.384h.714z" fill="#fff"/><path d="m14.381 4.775l.22.659h.659l-.549.384.22.659-.549-.384-.549.384.165-.659-.549-.384h.714z" fill="#fff"/><path d="m14.381 7.63l.22.659h.659l-.549.439.22.659-.549-.439-.549.439.165-.659-.549-.439h.714z" fill="#fff"/><path d="m14.381 10.539l.22.659h.659l-.549.384.22.659-.549-.384-.549.384.165-.659-.549-.384h.714z" fill="#fff"/><path d="m14.381 13.393l.22.659h.659l-.549.439.22.604-.549-.384-.549.384.165-.604-.549-.439h.714z" fill="#fff"/><path d="m16.357 3.403l.22.659h.714l-.604.384.22.659-.549-.384-.549.384.22-.659-.549-.384h.659z" fill="#fff"/><path d="m16.357 6.312l.22.659h.714l-.604.384.22.659-.549-.439-.549.439.22-.659-.549-.384h.659z" fill="#fff"/><path d="m16.357 9.166l.22.659h.714l-.604.384.22.659-.549-.384-.549.384.22-.659-.549-.384h.659z" fill="#fff"/><path d="m16.357 12.075l.22.604h.714l-.604.439.22.659-.549-.439-.549.439.22-.659-.549-.439h.659z" fill="#fff"/><path d="m18.388 1.921l.22.659h.714l-.604.384.22.659-.549-.439-.549.439.22-.659-.549-.384h.659z" fill="#fff"/><path d="m18.388 4.775l.22.659h.714l-.604.384.22.659-.549-.384-.549.384.22-.659-.549-.384h.659z" fill="#fff"/><path d="m18.388 7.63l.22.659h.714l-.604.439.22.659-.549-.439-.549.439.22-.659-.549-.439h.659z" fill="#fff"/><path d="m18.388 10.539l.22.659h.714l-.604.384.22.659-.549-.384-.549.384.22-.659-.549-.384h.659z" fill="#fff"/><path d="m18.388 13.393l.22.659h.714l-.604.439.22.604-.549-.384-.549.384.22-.604-.549-.439h.659z" fill="#fff"/><path d="m20.419 3.403l.22.659h.659l-.549.384.22.659-.549-.384-.549.384.165-.659-.549-.384h.714z" fill="#fff"/><path d="m20.419 6.312l.22.659h.659l-.549.384.22.659-.549-.439-.549.439.165-.659-.549-.384h.714z" fill="#fff"/><path d="m20.419 9.166l.22.659h.659l-.549.384.22.659-.549-.384-.549.384.165-.659-.549-.384h.714z" fill="#fff"/><path d="m20.419 12.075l.22.604h.659l-.549.439.22.659-.549-.439-.549.439.165-.659-.549-.439h.714z" fill="#fff"/><path d="m22.449 1.921l.22.659h.659l-.549.384.22.659-.549-.439-.549.439.165-.659-.549-.384h.714z" fill="#fff"/><path d="m22.449 4.775l.22.659h.659l-.549.384.22.659-.549-.384-.549.384.165-.659-.549-.384h.714z" fill="#fff"/><path d="m22.449 7.63l.22.659h.659l-.549.439.22.659-.549-.439-.549.439.165-.659-.549-.439h.714z" fill="#fff"/><path d="m22.449 10.539l.22.659h.659l-.549.384.22.659-.549-.384-.549.384.165-.659-.549-.384h.714z" fill="#fff"/><path d="m22.449 13.393l.22.659h.659l-.549.439.22.604-.549-.384-.549.384.165-.604-.549-.439h.714z" fill="#fff"/></symbol><symbol id="facebook" viewBox="0 0 32 32"><path d="m16 0c-8.832 0-16 7.168-16 16s7.168 16 16 16c8.832 0 16-7.168 16-16s-7.168-16-16-16zm4.256 15.744h-2.688c0 4.32 0 9.632 0 9.632h-4.032c0 0 0-5.28 0-9.632h-1.92v-3.424h1.92v-2.208c0-1.568.768-4.032 4.064-4.032h2.976v3.296c0 0-1.792 0-2.144 0s-.864.16-.864.928v2.016h3.04z"/></symbol><symbol id="flag_fr" viewBox="0 0 55 32"><path d="m0 0h18.278v32h-18.278z" fill="#323e95"/><path d="m18.278 0h18.278v32h-18.278z" fill="#f4f4f4"/><path d="m36.611 0h18.278v32h-18.278z" fill="#d80031"/></symbol><symbol id="gallery" viewBox="0 0 31 32"><path d="m30.08 3.072l-21.312-3.072c-.416-.064-.832.224-.896.672l-.384 2.656 1.248.032.288-2.08 20.448 2.944-2.368 16.544-.128 5.568c.352-.032.608-.32.672-.672l3.104-21.728c.064-.416-.224-.8-.672-.864z"/><path d="m23.008 7.328c-.032-.448-.416-.768-.864-.704l-21.44 1.984c-.448.032-.768.416-.704.864l2.016 21.856c.032.448.416.768.864.704l21.44-1.984c.448-.032.768-.416.704-.864zm-20.16 19.648l-1.568-17.216 20.576-1.888 1.6 17.216z"/><path d="m16.256 16.704l-2.912 2.4-4.192-4.16c-.16-.16-.352-.224-.576-.192s-.416.128-.544.288l-5.12 5.056.576 6.08 19.168-1.76-.544-5.856-5.024-1.92c-.288-.16-.608-.128-.832.064z"/><path d="m18.617 11.141c.086.933-.6 1.759-1.533 1.845s-1.759-.6-1.845-1.533c-.086-.933.6-1.759 1.533-1.845s1.759.6 1.845 1.533z"/><path d="m26.048 4.48l-21.536-.544c-.448 0-.8.32-.8.768l-.064 2.912 1.216-.128.064-2.336 20.64.512-.416 17.056.48 5.216c.352-.064.64-.384.64-.768l.544-21.92c0-.384-.352-.768-.768-.768z"/></symbol><symbol id="flag_he" viewBox="0 0 55 32"><path d="m0 0h54.889v32h-54.889z" fill="#fff"/><path d="m0 2.525h54.889v5.16h-54.889z" fill="#313883"/><path d="m0 24.316h54.889v5.16h-54.889z" fill="#313883"/><path d="m31.616 16.027l2.141-3.623h-4.226l-2.086-3.623-2.086 3.623h-4.226l2.141 3.623-2.141 3.623h4.226l2.086 3.623 2.086-3.623h4.226zm-4.94-3.622l.768-1.317.768 1.317h-1.537zm4.281 4.775l.714 1.262h-1.482zm-.768-3.568h1.427l-.714 1.262-.714-1.262zm-1.976 5.983l-.768 1.317-.768-1.317h1.537zm-2.196-1.152l-1.372-2.415 1.372-2.415h2.854l1.372 2.415-1.372 2.415zm-1.317 0h-1.427l.714-1.262.714 1.262zm-1.482-4.831h1.482l-.714 1.262z" fill="#313883"/></symbol><symbol id="home" viewBox="0 0 36 32"><path d="m35.552 13.92l-16.736-13.664c-.256-.192-.544-.288-.864-.256-.288-.032-.608.064-.864.256l-16.704 13.664c-.48.384-.512 1.056-.096 1.472l2.016 2.08c.416.416 1.12.48 1.6.096l14.08-11.488 14.08 11.488c.48.384 1.184.352 1.6-.096l2.016-2.08c.384-.416.32-1.088-.128-1.472zm-24.352-13.472h-4.896v7.072l4.896-4zm-6.112 17.984v13.568h9.088v-11.168h7.648v11.168h9.088v-13.568l-10.944-9.12c-.544-.48-1.28-.672-1.984-.608-.704-.064-1.408.16-1.984.608z"/></symbol><symbol id="location" viewBox="0 0 21 32"><path d="m20.576 10.304c0 5.696-7.872 21.696-10.304 21.696s-10.272-16.032-10.272-21.696 4.608-10.304 10.304-10.304 10.272 4.608 10.272 10.304zm-10.272-5.856c-3.232 0-5.824 2.624-5.824 5.824s2.624 5.824 5.824 5.824c3.232 0 5.824-2.624 5.824-5.824s-2.624-5.824-5.824-5.824z"/></symbol><symbol id="menu" viewBox="0 0 32 32"><path d="m31.68 6.4h-31.36c-.192 0-.32-.128-.32-.32v-5.76c0-.192.128-.32.32-.32h31.36c.192 0 .32.128.32.32v5.76c0 .192-.128.32-.32.32zm.32 12.48v-5.76c0-.192-.128-.32-.32-.32h-31.36c-.192 0-.32.128-.32.32v5.76c0 .192.128.32.32.32h31.36c.192 0 .32-.128.32-.32zm0 12.8v-5.76c0-.192-.128-.32-.32-.32h-31.36c-.192 0-.32.128-.32.32v5.76c0 .192.128.32.32.32h31.36c.192 0 .32-.128.32-.32z" fill="#004366"/></symbol><symbol id="news" viewBox="0 0 29 32"><path d="m .864 14.336c-.384.128-.256 1.632.256 3.584v0c-.832.256-1.312 1.184-1.024 2.016.256.832 1.184 1.312 2.016 1.024l.064-.032c.672 1.6 1.344 2.656 1.696 2.56l7.104-2.304-2.976-9.152z"/><path d="m11.456 27.552c-.896-.16-1.44-1.408-1.76-2.624l2.208-.704-1.344-2.08-1.728.48-2.592.704 5.6 8.672 3.264-1.056c0 0-1.44-3.04-3.648-3.392z"/><path d="m29.44 22.016l-2.528-7.808c.8-.384 2.144-1.44 1.408-3.712s-2.432-2.368-3.328-2.208l-2.496-7.808c-.128-.384-.512-.576-.896-.448-.064.032-.288.352-.704.864l7.008 21.696c.608.192 1.024.32 1.088.32.384-.096.576-.512.448-.896z"/><path d="m8.896 11.68c.704 2.4 2.496 7.68 2.976 9.152 4.736-1.536 11.328.256 14.784 1.376l-6.56-20.224c-2.144 2.912-6.368 8.128-11.2 9.696zm4.768 7.232c-.192.064-.416-.032-.48-.256l-1.984-6.144c-.064-.192.032-.416.256-.48.192-.064.416.032.48.256l1.984 6.144c.064.192-.064.416-.256.48zm1.952.352c-.192.064-.416-.032-.512-.256l-2.496-7.712c-.064-.192.032-.416.256-.512.192-.064.416.032.512.256l2.496 7.712c.064.224-.064.448-.256.512z"/></symbol><symbol id="phone" viewBox="0 0 32 32"><path d="m16 0c-8.832 0-16 7.168-16 16s7.168 16 16 16c8.832 0 16-7.168 16-16s-7.168-16-16-16zm9.824 22.208c-.736 2.496-2.688 4.128-5.6 3.808-.96-.064-5.248-.928-9.216-4.928-4-3.936-4.768-8.192-4.832-9.12-.32-2.88.96-5.088 3.328-5.952.704-.256 1.472.128 1.792.768l1.28 2.752c.256.544.128 1.216-.288 1.632l-1.952 1.952c0 0 .032 1.536 3.232 4.736 3.04 3.104 4.672 3.232 4.672 3.232l1.92-1.92c.448-.448 1.12-.544 1.696-.256l3.232 1.632c.608.288.928.992.736 1.664z" fill="#76cc1e"/></symbol><symbol id="projects" viewBox="0 0 28 32"><path d="m8.96 29.344v-1.504h.768c.32 0 .64 0 .96 0s .608 0 .928 0c .288 0 .608 0 .896 0 0-.416 0-.832 0-1.248-.288 0-.608 0-.896-.032-.288 0-.608 0-.928-.032-.32 0-.64 0-.96-.032-.256 0-.512 0-.768 0v-1.152c.256 0 .512.032.768.032.32 0 .64.032.96.032s.608.032.928.032c.288 0 .608.032.896.032 0-.416 0-.832 0-1.248-.288-.032-.608-.032-.896-.064s-.608-.032-.928-.064c-.32-.032-.64-.032-.96-.064-.256 0-.512-.032-.768-.032v-1.152c.256.032.512.032.768.064.32.032.64.032.96.064s.608.032.928.064c.288.032.608.032.896.064 0-.416 0-.832 0-1.248-.288-.032-.608-.064-.896-.096s-.608-.064-.928-.096c-.32-.032-.64-.064-.96-.096-.256-.032-.512-.064-.768-.064v-1.024c.256.032.512.064.768.096.32.032.64.064.96.096s.608.064.928.096c.288.032.608.064.896.096 0-.416 0-.832 0-1.248-.288-.032-.608-.064-.896-.128-.288-.032-.608-.096-.928-.128s-.64-.096-.96-.128c-.256-.032-.512-.064-.768-.096v-1.152l.768.128c.32.064.64.096.96.128s.608.096.928.128c.288.032.608.096.896.128 0-.416 0-.832 0-1.248-.288-.064-.608-.096-.896-.16s-.608-.096-.928-.16c-.32-.064-.64-.096-.96-.16-.256-.032-.512-.096-.768-.128v-1.152c.256.064.512.096.768.16.32.064.64.128.96.16.32.064.608.128.928.16.288.064.608.128.896.16 0-.416 0-.832 0-1.248-.288-.064-.608-.128-.896-.192s-.608-.128-.928-.192c-.32-.064-.64-.128-.96-.192-.256-.064-.512-.096-.768-.16v-1.024c.256.064.512.128.768.16.32.064.64.128.96.224.32.064.608.128.928.192.288.064.608.128.896.192 0-.416 0-.832 0-1.248-.288-.064-.608-.16-.896-.224s-.608-.16-.928-.224c-.32-.064-.64-.16-.96-.224-.256-.064-.512-.128-.768-.192v-1.152c.256.064.512.128.768.192.32.096.64.16.96.256.32.064.608.16.928.224.288.064.608.16.896.224 0-.416 0-.832 0-1.248-.288-.096-.608-.16-.896-.256s-.608-.16-.928-.256c-.32-.096-.64-.192-.96-.256-.256-.064-.512-.16-.768-.224v-2.08l4.16 1.504v20.576h1.12v-25.696l6.56-3.584v29.344h.576v-1.504h1.76c.608 0 1.216 0 1.792 0 0-.416 0-.8 0-1.216-.576 0-1.184-.032-1.792-.064l-1.76-.032v-1.152l1.76.096c.608.032 1.216.064 1.792.096 0-.416 0-.8 0-1.216-.576-.032-1.184-.096-1.792-.128l-1.76-.128v-1.152l1.76.192c.608.064 1.216.128 1.792.192 0-.416 0-.8 0-1.216-.576-.064-1.184-.16-1.792-.224l-1.76-.224v-1.184l1.76.256c.608.096 1.216.192 1.792.256 0-.416 0-.8 0-1.216-.576-.096-1.184-.224-1.792-.32l-1.76-.32v-1.152l1.76.352c.608.128 1.216.256 1.792.352 0-.416 0-.8 0-1.216-.576-.128-1.184-.256-1.792-.416l-1.76-.416v-1.152l1.76.448c.608.16 1.216.32 1.792.448 0-.416 0-.8 0-1.216-.576-.16-1.184-.32-1.792-.512l-1.76-.48v-1.056l1.76.544c.608.192 1.216.352 1.792.544 0-.416 0-.8 0-1.216-.576-.192-1.184-.384-1.792-.576l-1.76-.576v-1.152l1.76.608c.608.224 1.216.416 1.792.64 0-.416 0-.8 0-1.216-.576-.224-1.184-.448-1.792-.672l-1.76-.672v-1.152l1.76.704c.608.256 1.216.48 1.792.736 0-.416 0-.8 0-1.216-.576-.256-1.184-.512-1.792-.768l-1.76-.768v-1.152l1.76.8c.608.288 1.216.544 1.792.8 0-.416 0-.8 0-1.216-.576-.288-1.184-.576-1.792-.864l-1.76-.8v-1.152l1.76.896c.608.32 1.216.608 1.792.896 0-.416 0-.8 0-1.216-.576-.32-1.184-.64-1.792-.96l-1.76-.928v-2.016l4.16 2.688v26.624h1.984v2.656h-27.52v-2.656h1.824v-19.36l6.56-2.688v22.08zm10.4-5.152c-.672.064-1.312.096-1.952.16-.608.032-1.216.096-1.792.128 0 .416 0 .8 0 1.216.576-.032 1.184-.064 1.792-.096.64-.032 1.28-.064 1.952-.096 0-.448 0-.864 0-1.312zm0 2.464c-.672.032-1.312.032-1.952.064-.608.032-1.216.032-1.792.064 0 .416 0 .8 0 1.216.576 0 1.184 0 1.792 0 .64 0 1.28 0 1.952 0 0-.48 0-.928 0-1.344zm0-4.928c-.672.096-1.312.16-1.952.256-.608.064-1.216.16-1.792.224 0 .416 0 .8 0 1.216.576-.064 1.184-.128 1.792-.192.64-.064 1.28-.128 1.952-.192 0-.448 0-.864 0-1.312zm0-2.464c-.672.128-1.312.224-1.952.352-.608.096-1.216.224-1.792.32 0 .416 0 .8 0 1.216.576-.096 1.184-.192 1.792-.256.64-.096 1.28-.192 1.952-.288 0-.48 0-.896 0-1.344zm0-2.464c-.672.16-1.312.288-1.952.448-.608.128-1.216.288-1.792.416 0 .416 0 .8 0 1.216.576-.128 1.184-.224 1.792-.352.64-.128 1.28-.256 1.952-.384 0-.48 0-.896 0-1.344zm0-2.464c-.672.192-1.312.352-1.952.544-.608.16-1.216.352-1.792.512 0 .416 0 .8 0 1.216.576-.16 1.184-.288 1.792-.448.64-.16 1.28-.32 1.952-.48 0-.448 0-.896 0-1.344zm0-2.464c-.672.224-1.312.416-1.952.64-.608.192-1.216.384-1.792.576 0 .416 0 .8 0 1.216.576-.16 1.184-.352 1.792-.544.64-.192 1.28-.384 1.952-.576 0-.416 0-.864 0-1.312zm0-2.464c-.672.256-1.312.512-1.952.736-.608.224-1.216.448-1.792.672 0 .416 0 .8 0 1.216.576-.192 1.184-.416 1.792-.64.64-.224 1.28-.448 1.952-.672 0-.416 0-.864 0-1.312zm0-2.464c-.672.288-1.312.576-1.952.832-.608.256-1.216.512-1.792.768 0 .416 0 .8 0 1.216.576-.224 1.184-.48 1.792-.736.64-.256 1.28-.512 1.952-.768 0-.416 0-.864 0-1.312zm0-2.464c-.672.32-1.312.64-1.952.928-.608.288-1.216.576-1.792.864 0 .416 0 .8 0 1.216.576-.256 1.184-.544 1.792-.8.64-.288 1.28-.576 1.952-.864 0-.448 0-.896 0-1.344zm0-2.464c-.672.352-1.312.704-1.952 1.024-.608.32-1.216.64-1.792.96 0 .416 0 .8 0 1.216.576-.288 1.184-.608 1.792-.896.64-.32 1.28-.64 1.952-.992 0-.416 0-.864 0-1.312zm-12.544 7.296c-.32.128-.672.256-.992.384s-.64.224-.96.352c-.32.128-.608.224-.896.352-.288.096-.608.224-.896.32 0 .416 0 .8 0 1.216.288-.096.576-.192.896-.32.288-.096.608-.224.896-.32.32-.096.64-.224.96-.32s.64-.224.992-.352c0-.448 0-.896 0-1.312zm0 14.752c-.32.032-.672.064-.992.064-.32.032-.64.064-.96.064-.32.032-.608.032-.896.064s-.608.032-.896.064c0 .416 0 .8 0 1.216.288 0 .576-.032.896-.032.288 0 .608-.032.896-.032.32 0 .64-.032.96-.032s.64-.032.992-.064c0-.416 0-.864 0-1.312zm0 2.464c-.32 0-.672.032-.992.032s-.64.032-.96.032c-.32 0-.608 0-.896.032-.288 0-.608.032-.896.032 0 .416 0 .8 0 1.216.288 0 .576 0 .896 0 .288 0 .608 0 .896 0 .32 0 .64 0 .96 0s .64 0 .992 0c0-.448 0-.896 0-1.344zm0-4.928c-.32.032-.672.096-.992.128s-.64.064-.96.128c-.32.032-.608.064-.896.128-.288.032-.608.064-.896.096 0 .416 0 .8 0 1.216.288-.032.576-.064.896-.096.288-.032.608-.064.896-.096.32-.032.64-.064.96-.096s.64-.064.992-.096c0-.416 0-.864 0-1.312zm0-2.464c-.32.064-.672.128-.992.16-.32.064-.64.096-.96.16s-.608.096-.896.16c-.288.064-.608.096-.896.16 0 .416 0 .8 0 1.216.288-.032.576-.096.896-.128.288-.032.608-.096.896-.128.32-.032.64-.096.96-.128s.64-.096.992-.16c0-.416 0-.864 0-1.312zm0-2.432c-.32.064-.672.16-.992.224s-.64.128-.96.224c-.32.064-.608.128-.896.192s-.608.128-.896.192c0 .416 0 .8 0 1.216.288-.064.576-.128.896-.16.288-.064.608-.128.896-.192.32-.064.64-.128.96-.192s.64-.128.992-.192c0-.448 0-.896 0-1.312zm0-2.464c-.32.096-.672.192-.992.256-.32.096-.64.16-.96.256s-.608.16-.896.256c-.288.096-.608.16-.896.256 0 .416 0 .8 0 1.216.288-.064.576-.16.896-.224.288-.064.608-.16.896-.224.32-.064.64-.16.96-.224s.64-.16.992-.256c0-.448 0-.896 0-1.312zm0-2.464c-.32.096-.672.224-.992.32s-.64.192-.96.32c-.32.096-.608.192-.896.288s-.608.192-.896.288c0 .416 0 .8 0 1.216.288-.096.576-.16.896-.256.288-.096.608-.192.896-.256.32-.096.64-.192.96-.288s.64-.192.992-.288c0-.48 0-.928 0-1.344z"/></symbol><symbol id="residential" viewBox="0 0 34 32"><path d="m0 28.672h3.296v-11.552l4.48-.576v-13.024l.608-.16 11.712-3.36.768.32 9.76 4.032.512.224v24.096h3.072v3.328h-34.208zm21.792-4.512c0 .768 0 1.536 0 2.304 1.344 0 2.656 0 3.904 0 1.216 0 2.4 0 3.552 0 0-.704 0-1.408 0-2.112-1.152-.032-2.336-.064-3.552-.096-1.248-.032-2.56-.064-3.904-.096zm0-19.136c0 .768 0 1.536 0 2.304 1.344.32 2.656.608 3.904.928 1.216.288 2.4.576 3.552.832 0-.704 0-1.408 0-2.112-1.152-.288-2.336-.608-3.552-.928-1.248-.32-2.56-.672-3.904-1.024zm0 14.368c0 .768 0 1.536 0 2.304 1.344.064 2.656.16 3.904.224 1.216.064 2.4.128 3.552.192 0-.704 0-1.408 0-2.112-1.152-.096-2.336-.192-3.552-.32-1.248-.064-2.56-.192-3.904-.288zm0-4.8c0 .768 0 1.536 0 2.304 1.344.16 2.656.32 3.904.448 1.216.128 2.4.288 3.552.416 0-.704 0-1.408 0-2.112-1.152-.16-2.336-.352-3.552-.512-1.248-.16-2.56-.352-3.904-.544zm0-4.768c0 .768 0 1.536 0 2.304 1.344.224 2.656.48 3.904.672 1.216.224 2.4.416 3.552.608 0-.704 0-1.408 0-2.112-1.152-.224-2.336-.48-3.552-.736-1.248-.192-2.56-.48-3.904-.736zm-5.76-4.288c0 .736 0 1.504 0 2.24.608-.096 1.248-.224 1.888-.32 0-.768 0-1.504 0-2.272-.672.128-1.28.256-1.888.352zm-3.52.704c0 .736 0 1.44 0 2.176.576-.096 1.152-.192 1.76-.288 0-.736 0-1.472 0-2.208-.608.096-1.184.192-1.76.32zm-3.328 13.984c0 .704 0 1.408 0 2.112.544-.032 1.088-.032 1.664-.064 0-.704 0-1.408 0-2.144-.576.032-1.12.064-1.664.096zm0 4.448c0 .704 0 1.408 0 2.08.544 0 1.088 0 1.664 0 0-.704 0-1.408 0-2.112-.576.032-1.12.032-1.664.032zm-3.136.064c0 .672 0 1.344 0 2.016.512 0 1.024 0 1.536 0 0-.672 0-1.376 0-2.048-.512.032-1.024.032-1.536.032zm9.952-.192c0 .736 0 1.504 0 2.24.608 0 1.248 0 1.888 0 0-.768 0-1.504 0-2.272-.64 0-1.248.032-1.888.032zm-3.488.064c0 .736 0 1.44 0 2.144.576 0 1.152 0 1.76 0 0-.736 0-1.472 0-2.208-.608.032-1.184.064-1.76.064zm-6.464-4.192c0 .672 0 1.344 0 2.048.512-.032 1.024-.032 1.536-.064 0-.672 0-1.376 0-2.08-.512.032-1.024.064-1.536.096zm9.952-.608c0 .736 0 1.472 0 2.24.608-.032 1.248-.064 1.888-.096 0-.768 0-1.504 0-2.272-.64.032-1.248.064-1.888.128zm-3.488.224c0 .704 0 1.44 0 2.176.576-.032 1.152-.064 1.76-.064 0-.736 0-1.472 0-2.208-.608 0-1.184.032-1.76.096zm3.488-4.992c0 .736 0 1.504 0 2.24.608-.064 1.248-.096 1.888-.16 0-.768 0-1.504 0-2.272-.64.064-1.248.128-1.888.192zm-3.488.384c0 .736 0 1.44 0 2.176.576-.064 1.152-.096 1.76-.16 0-.736 0-1.472 0-2.208-.608.064-1.184.128-1.76.192zm3.52-5.12c0 .736 0 1.504 0 2.24.608-.064 1.248-.16 1.888-.256 0-.768 0-1.504 0-2.272-.672.096-1.28.192-1.888.288zm-3.52.512c0 .736 0 1.44 0 2.176.576-.064 1.152-.16 1.76-.224 0-.736 0-1.472 0-2.208-.608.096-1.184.192-1.76.256zm-7.552 17.856h14.304v-26.72l-9.824 2.816v13.152l-4.48.576z"/></symbol><symbol id="globe" viewBox="0 0 24 24"><path id="globus" d="m12 0c-6.6 0-12 5.4-12 12 0 6.6 5.4 12 12 12 6.6 0 12-5.4 12-12 0-6.6-5.4-12-12-12zm7.1 4.2c-.1 0-.2.1-.3.1-.1-.1-.1-.2-.2-.2-.3-.2-.7-.2-1.1-.2-.1 0-.1 0-.2 0 0 0-.1 0-.1 0h-.1c-.4 0-.5 0-.6-.1 0 0 0-.1.1-.1.1-.1.1-.1.3-.1.1 0 .3 0 .5-.1.2.1.3.1.5.2.1 0 .1 0 .2.1.1 0 .2.1.3.2l0 0c .1.1.2.1.3 0 0 0 .1 0 .1-.1-.2-.1.1.1.3.3zm2.2 11c0 0-.1.1-.1.1-.2.2-.4.3-.5.6 0 .1 0 .2 0 .2 0 .1.1.1.2.1 0 0 0 0 0 0-.1.1-.2.3-.2.5l0 0c-.1.3-.2.6-.3.8-.1.1-.3.2-.4.2-.1 0-.2.1-.3.1-.2.1-.3.4-.4.6l0 0c-.1.1-.1.3-.2.5 0 .1-.1.3-.1.4l0 0c-.1.2-.2.5-.1.7 0 0 0 0 0 0-1.9 1.7-4.3 2.6-6.9 2.6-2.5 0-4.8-.8-6.7-2.4 0 0 0-.1 0-.1 0-.1 0-.3 0-.4 0-.2-.1-.3-.2-.4-.1-.2-.2-.3-.2-.5 0-.2.1-.2.2-.3.1-.1.3-.1.3-.3.1-.2 0-.4-.1-.6 0-.1-.1-.1-.1-.2-.1-.2 0-.5.1-.7.1-.3.2-.7 0-1-.2-.2-.5-.4-.7-.5 0 0-.1 0-.1-.1-.1 0-.2-.1-.3-.1-.2-.1-.3-.3-.5-.5l0 0c-.4-.5-.8-.9-1.3-1.3-.2.1-.4-.1-.5-.2l0 0c-.1-.1-.2-.2-.4-.3 0-.2 0-.4 0-.6 0-1.6.3-3.1 1-4.5.7-.6 1.5-.6 2.2-1 .4-.1.6-.4.9-.6.2-.2.5-.4.7-.7.4-.5.5-1 .3-1.6-.1-.2-.2-.4-.3-.6 1.7-1.1 3.7-1.7 5.7-1.7 1.9 0 3.7.5 5.3 1.5 0 0 0 0-.1 0 0 0 0 0 0 0-.3 0-1.3.3-1.5.5-.3.2-.5.3-.7.3.2-.1.3-.2.3-.4 0-.2-.2-.3-.5-.4-.1-.1-.3-.1-.5-.1-.2 0-.4 0-.6 0-.1 0-.2 0-.2 0-.8 0-1.4.4-2.1 1.3 0 .1-.2.2-.1.4 0 .1.2.2.3.2 0 0 0 0-.1 0 0 0-.1.1-.1.2 0 .3 0 .4-.1.4 0 0 0 0 0 0 0 0 0 0 0 0 0 0 0 0 0 0 0 0 0 0 0 0 0 0 0 0 0 0 0 0 0 0 0 0 0 0 0 0 0 0 0 0 0 0 0 0-.1.2-.3.2-.6.3-.1 0-.2 0-.2 0 0 0 .1-.1.1-.1 0-.2-.1-.4-.2-.5l0 0c-.1-.1-.1-.1-.1-.1 0 0 0 0 0 0 0 0 0-.1 0-.2 0-.2-.1-.4-.3-.5 0 0-.1 0-.2 0-.1 0-.2.2-.3.3 0 0 0 0 0 .1-.2.2-.2.4-.2.5 0-.1-.1-.1-.2-.1-.1 0-.2 0-.2 0-.2.1-.3.3-.3.5 0 .2.2.3.4.3.1 0 .2 0 .3-.1 0 0 .1-.1.1-.2 0 0 0 0 0 .1.1.2.4.3.6.3h0c0 0 .1 0 .1 0-.1 0-.2.1-.2.2-.2.2 0 .5 0 .5l0 0c0 0 0 0 0 0 0 0-.1 0-.1 0-.1 0-.2 0-.2 0-.2 0-.3 0-.4 0 0 0 0 0 0 0-.5.3-.8.6-.7 1 0 .2.2.6 1 .6 0 0-.1 0-.1 0-.4.1-.8.2-1 .4-.1.2-.2.3-.3.5 0 .1-.1.2-.1.3 0 .1-.1.1-.2.2-.1.1-.3.2-.3.4 0 0 0 0 0 0-.1.3-.2.7-.2 1.1 0 .1 0 .2 0 .3 0 .9 0 1.9 1.2 2.5 0 0 .2.1.3.1.2 0 .3 0 .5-.1.1 0 .2-.1.4-.1.2 0 .3 0 .5 0 .2 0 .3 0 .5 0 .2 0 .3 0 .5.1.2.1.2.1.3.1 0 0 .1 0 .1 0 .1 0 .1 0 .2-.1 0 0 0 0 0 0 0 0-.1.1-.1.1-.1.1-.1.3-.1.4 0 .4.3.6.5.8.2.2.3.3.4.5.1.3 0 .7 0 1.1 0 .3-.1.6-.1.9 0 .4.2.7.3 1 .1.1.1.2.2.3.1.1.1.3.1.4.1.3.2.5.6.5 0 0 .1 0 .1 0 1.2-.1 2-1 2.4-1.9.1-.2.2-.3.3-.4.1-.1.1-.1.2-.2 0 0 0 0 0 .1 0 0 0 .1 0 .1-.1.2-.2.5-.1.7 0 .1.1.2.2.2 0 0 .1 0 .1 0 .2 0 .4-.2.6-.4.1-.1.1-.2.2-.3 0 0 0-.1 0-.1.1-.1.2-.2.3-.4.1-.1.1-.1.2-.2 0 0 .2-.3.2-.5 0-.1-.1-.1-.1-.2-.1-.1-.3 0-.5.1-.1 0-.1.1-.2.2 0 0 0 0 0 0-.1 0-.2 0-.2 0-.1 0-.2.1-.3.2 0-.2 0-.4 0-.6 0-.2 0-.5 0-.6.2-.4.5-.7.9-1.1.4-.4.9-.8 1-1.4.1-.3.1-.5 0-.6-.1-.2-.4-.2-.6-.2 0 0-.1 0-.2 0-.1 0-.1 0-.2 0-.3 0-.5 0-.6-.2-.3-.4-.7-1.7-.8-2.3.3.2.5.6.7 1.1.2.5.4 1 .8 1.1.2.1.5 0 .8-.2.4-.2 1-.8 1-1.4 0-.2 0-.3-.1-.4.2.1.4.1.6.1.3 0 .5.1.7.2.2.2.3.7.4 1.2.1.7.2 1.4.8 1.6.1 0 .2 0 .3-.1.2-.4.1-.8.1-1.2 0-.3-.1-.6 0-.8.1-.3.2-.4.2-.5 0 0 0 0 0 0 .1.5.1 1 .1 1.5 0 .8-.1 1.6-.3 2.4-.7.1-1 .4-1.3.7zm-7.7-10.8c0 0 0 0 0 0 .1 0 .1.1.1.1-.1 0-.1 0-.2.1-.1.1-.5.2-.7.3-.1-.3.5-.9.5-1 0 0 .1 0 .1.1 0 0 0 .1 0 .1.1 0 .1.2.2.3zm-.7 3.3c0 .1.1.2.2.2 0 0 0 0 .1 0 0 0 .2 0 .2-.1 0-.1 0-.1.1-.1 0 0 0 0 .1 0 0 0 0 0 0 0 0 0 0 0 0 0l0 0c .2.2.3.5.7.5 0 0 .1 0 .1 0 0 0 .2 0 .2-.1 0-.1 0-.2 0-.2 0 0 0 0 0 0 .2.1.4.2.5.3.1 0 .2.1.3.1.1 0 .2 0 .3.1 0 0 0 .1-.1.2-.1.2-.3.3-.5.2 0 0 0 0 0 0-.1-.1-.2-.2-.4-.2 0 0-.1 0-.1 0-.1 0-.2 0-.2 0 0 0-.1 0-.1 0 0 0 0 0 0 0-.1 0-.2 0-.3 0-.2 0-.3 0-.5 0-.1 0-.1 0-.2 0-.3-.1-.5-.2-.7-.5-.2-.3-.5-.6-1.1-.6 0 0 0 0 0 0-.3 0-.6.1-.9.2 0 0 .1-.1.1-.1l0 0c0 0 0 0 0 0 0-.1.1-.3.1-.4 0 0 0 0 0 0 0 0 0 0 .1 0 .1 0 .1 0 .2 0 .1 0 .1 0 .2 0 .1 0 .1 0 .1 0 .2-.1.3-.1.4-.1.2 0 .4.1.6.2.1.1.3.2.4.2 0 0 .1 0 .1.1 0 .1 0 .1 0 .1z"/></symbol><symbol id="flag_ru" viewBox="0 0 55 32"><path d="m0 0h54.889v10.648h-54.889z" fill="#f4f4f4"/><path d="m0 10.648h54.889v10.648h-54.889z" fill="#323e95"/><path d="m0 21.352h54.889v10.648h-54.889z" fill="#d8001e"/></symbol><symbol id="triangle_shape" viewBox="0 0 640 59.2"><path d="m0 59.2v-59.2l320 51.5 320-51.5v59.2z"/></symbol></defs></svg>
