<svg style="position: absolute; width: 0; height: 0;" width="0" height="0" version="1.1" xmlns="http://www.w3.org/2000/svg" xmlns:xlink="http://www.w3.org/1999/xlink">
<defs>
<symbol id="waze" viewBox="0 0 36 32">
<path fill="#3d3e3d" class="path1 fill-color2" d="M35.495 14.525c0 0.064-0.032 0.128-0.032 0.192-0.032 1.218-0.257 2.405-0.577 3.591-0.513 1.731-1.379 3.238-2.533 4.617-1.315 1.571-2.886 2.822-4.681 3.784-0.128 0.064-0.289 0.16-0.417 0.224 0.417 1.154 0.321 2.277-0.353 3.335-0.545 0.898-1.379 1.443-2.405 1.667-1.988 0.449-4.329-0.962-4.489-3.463-1.764 0-3.559 0-5.355 0-0.032 0.224-0.064 0.481-0.128 0.737-0.192 0.802-0.609 1.475-1.251 1.988-0.545 0.449-1.186 0.737-1.892 0.802-0.898 0.096-1.699-0.096-2.469-0.577-0.93-0.609-1.507-1.475-1.667-2.565-0.096-0.545-0.064-1.090 0.096-1.603 0.032-0.096 0.032-0.128-0.096-0.192-1.25-0.449-2.437-1.026-3.559-1.796-0.77-0.577-1.539-1.218-2.244-1.956-0.385-0.417-0.77-0.866-1.122-1.315-0.513-0.641-0.417-1.667 0.128-2.277 0.385-0.417 0.866-0.609 1.411-0.641 0.289 0 0.577-0.032 0.866-0.096 0.609-0.128 0.994-0.545 1.218-1.122 0.224-0.545 0.353-1.122 0.417-1.699 0.096-0.898 0.16-1.796 0.256-2.693 0.096-0.994 0.192-1.988 0.449-2.95 0.321-1.251 0.834-2.405 1.539-3.495 0.737-1.154 1.667-2.18 2.725-3.078 2.116-1.796 4.521-2.95 7.214-3.559 0.802-0.192 1.603-0.289 2.405-0.353 0.802-0.032 1.571-0.032 2.341 0.032 1.796 0.128 3.559 0.577 5.226 1.315 1.379 0.577 2.661 1.347 3.816 2.309 2.148 1.796 3.719 4.008 4.585 6.701 0.257 0.866 0.449 1.731 0.513 2.629 0.032 0.257 0.032 0.545 0.064 0.802 0 0.064 0 0.16 0.032 0.224-0.032 0.16-0.032 0.321-0.032 0.481zM1.892 20.97c0 0-0.032 0 0 0 0 0.032 0.032 0.064 0.032 0.064 0.77 0.962 1.635 1.828 2.661 2.533 1.154 0.834 2.437 1.411 3.784 1.892 0.096 0.032 0.16 0 0.224-0.064 0.866-0.705 1.892-0.994 2.982-0.802 1.186 0.192 2.052 0.834 2.661 1.86 0.032 0.032 0.096 0.096 0.128 0.096 0.321 0.032 0.673 0.064 0.994 0.064 1.667 0 3.303 0 4.97 0 0.096 0 0.128-0.032 0.16-0.096 0.449-0.802 1.058-1.379 1.924-1.699 1.315-0.481 2.533-0.289 3.655 0.513 0.064 0.064 0.128 0.064 0.192 0.032 1.603-0.77 3.014-1.828 4.232-3.11 0.866-0.93 1.571-1.956 2.084-3.11 0.866-1.956 1.186-4.008 0.962-6.156-0.16-1.315-0.513-2.565-1.122-3.752-1.154-2.277-2.854-4.008-5.002-5.323-1.988-1.218-4.168-1.892-6.509-2.020-1.186-0.064-2.373 0-3.527 0.224-1.443 0.289-2.822 0.737-4.104 1.411-1.924 0.994-3.591 2.341-4.874 4.136-0.705 1.026-1.25 2.116-1.539 3.335-0.256 0.962-0.321 1.988-0.417 2.982-0.096 0.898-0.16 1.828-0.289 2.725-0.096 0.802-0.321 1.603-0.705 2.309-0.481 0.93-1.25 1.539-2.277 1.796-0.385 0.064-0.834 0.096-1.283 0.16z"></path>
<path fill="#d8e0e4" class="path2 fill-color11" d="M1.892 20.97c0.449-0.064 0.898-0.096 1.347-0.224 1.026-0.256 1.764-0.866 2.277-1.796 0.385-0.737 0.609-1.507 0.705-2.309 0.128-0.898 0.192-1.828 0.289-2.725 0.096-0.994 0.16-1.988 0.417-2.982 0.321-1.186 0.834-2.309 1.539-3.335 1.251-1.796 2.918-3.142 4.874-4.136 1.315-0.673 2.661-1.154 4.104-1.411 1.154-0.224 2.341-0.289 3.527-0.224 2.341 0.16 4.489 0.834 6.509 2.020 2.148 1.315 3.88 3.046 5.002 5.323 0.609 1.186 0.962 2.437 1.122 3.752 0.224 2.148-0.096 4.168-0.962 6.156-0.513 1.154-1.218 2.18-2.084 3.11-1.218 1.315-2.629 2.341-4.232 3.11-0.096 0.032-0.128 0.032-0.192-0.032-1.122-0.834-2.341-1.026-3.655-0.513-0.834 0.321-1.475 0.898-1.924 1.699-0.032 0.064-0.096 0.096-0.16 0.096-1.667 0-3.303 0-4.97 0-0.321 0-0.673-0.032-0.994-0.064-0.064 0-0.128-0.032-0.128-0.096-0.609-1.026-1.475-1.667-2.661-1.86-1.122-0.192-2.116 0.096-2.982 0.802-0.064 0.064-0.128 0.096-0.224 0.064-1.347-0.449-2.629-1.058-3.784-1.892-0.994-0.705-1.892-1.539-2.661-2.533-0.064 0.064-0.096 0.032-0.096 0-0.032 0 0 0 0 0z"></path>
<path fill="#3d3e3d" class="path3 fill-color2" d="M19.976 20.713c-1.892-0.032-3.559-0.673-4.874-2.052-0.673-0.705-1.154-1.539-1.347-2.469-0.128-0.641 0.321-1.186 0.962-1.154 0.385 0 0.77 0.321 0.866 0.705 0.192 0.898 0.705 1.571 1.379 2.084 1.058 0.834 2.309 1.122 3.623 0.994 0.898-0.096 1.699-0.353 2.437-0.834 0.834-0.545 1.411-1.25 1.667-2.212 0.128-0.513 0.641-0.802 1.122-0.673s0.802 0.609 0.673 1.090c-0.192 0.834-0.577 1.571-1.154 2.212-1.026 1.154-2.309 1.828-3.816 2.148-0.513 0.096-1.026 0.16-1.539 0.16zM17.635 11.126c0-0.962-0.802-1.796-1.764-1.796-0.994 0-1.796 0.802-1.796 1.764 0 0.994 0.802 1.796 1.796 1.796 0.962 0.032 1.764-0.77 1.764-1.764zM26.004 11.126c0-0.994-0.802-1.796-1.796-1.796s-1.796 0.802-1.796 1.796 0.802 1.796 1.796 1.796 1.796-0.802 1.796-1.796z"></path>
<path fill="#515252" class="path4 fill-color4" d="M12.088 28.216c0 0.673-0.474 1.218-1.058 1.218s-1.058-0.546-1.058-1.218c0-0.673 0.474-1.218 1.058-1.218s1.058 0.546 1.058 1.218z"></path>
<path fill="#515252" class="path5 fill-color4" d="M24.786 28.216c0 0.673-0.474 1.218-1.058 1.218s-1.058-0.546-1.058-1.218c0-0.673 0.474-1.218 1.058-1.218s1.058 0.546 1.058 1.218z"></path>
</symbol>
<symbol id="about-us" viewBox="0 0 32 32">
<path class="path1" d="M16 0v0c-8.832 0-16 6.336-16 14.176 0 4 1.888 7.616 4.864 10.176l-0.96 7.616c2.912-1.184 5.248-2.656 7.040-4.352 1.6 0.48 3.296 0.736 5.056 0.736 8.832 0 16-6.336 16-14.176s-7.168-14.176-16-14.176zM18.944 20.928l-0.256 1.056c-0.768 0.288-1.376 0.544-1.856 0.704-0.448 0.16-0.992 0.224-1.6 0.224-0.928 0-1.664-0.224-2.176-0.672s-0.768-1.024-0.768-1.728c0-0.288 0.032-0.544 0.064-0.832s0.064-0.608 0.192-0.96l0.768-2.56c0.096-0.32 0.16-0.64 0.224-0.928s0.096-0.544 0.096-0.8c0-0.448-0.096-0.736-0.256-0.896s-0.512-0.256-1.024-0.256c-0.256 0-0.512 0.032-0.768 0.128-0.256 0.064-0.48 0.16-0.672 0.224l0.256-1.056c0.64-0.256 1.248-0.48 1.824-0.672s1.12-0.288 1.632-0.288c0.928 0 1.632 0.224 2.144 0.672s0.768 1.024 0.768 1.76c0 0.16-0.032 0.416-0.064 0.768-0.032 0.384-0.096 0.736-0.192 1.024l-0.768 2.528c-0.096 0.288-0.16 0.576-0.224 0.928s-0.096 0.608-0.096 0.8c0 0.448 0.096 0.768 0.288 0.928s0.544 0.256 1.056 0.256c0.224 0 0.512-0.032 0.8-0.128 0.256-0.096 0.48-0.16 0.608-0.224v0zM19.008 8.416c0 0.576-0.224 1.088-0.672 1.504s-0.992 0.64-1.632 0.64c-0.64 0-1.184-0.224-1.632-0.64s-0.672-0.928-0.672-1.504c0-0.608 0.224-1.088 0.672-1.536 0.448-0.416 0.992-0.64 1.632-0.64s1.184 0.224 1.632 0.64c0.448 0.416 0.672 0.928 0.672 1.536v0z"></path>
</symbol>
<symbol id="arrow" viewBox="0 0 32 32">
<path class="path1" d="M16 32c-8.838 0-16-7.162-16-16s7.162-16 16-16c8.838 0 16 7.162 16 16s-7.162 16-16 16zM16 1.524c-8 0-14.476 6.476-14.476 14.476s6.476 14.476 14.476 14.476 14.476-6.476 14.476-14.476-6.476-14.476-14.476-14.476z"></path>
<path class="path2" d="M16 19.467c-0.419 0-0.762-0.343-0.762-0.762v-11.848c0-0.419 0.343-0.762 0.762-0.762s0.762 0.343 0.762 0.762v11.848c0 0.419-0.343 0.762-0.762 0.762z"></path>
<path class="path3" d="M16 25.143c-1.143-3.048-3.048-6.781-5.067-9.105l5.067 1.829 5.067-1.829c-2.019 2.324-3.962 6.057-5.067 9.105z"></path>
</symbol>
<symbol id="articles" viewBox="0 0 41 32">
<path class="path1" d="M4.48 6.176l1.12 5.952-5.6 1.856c0 0 1.248 1.312 2.016 3.712l2.912 7.872c0.256 0.768 0.64 2.24 1.376 3.168 0.544 0.608 1.408 1.184 2.432 0.416 1.28-0.992 1.152-2.496 0.864-3.936-0.352-1.888-3.52-17.888-3.52-17.888l29.664-5.664 3.392 18.176c0.256 1.28-0.352 2.944-1.6 3.36-3.52 1.28-26.784 6.816-28.448 7.392-0.096 0.032-0.224 0.064-0.32 0.064-0.64 0.064-1.44-0.16-2.24-0.512 0.448 0.576 1.824 2.112 3.008 1.76v0c0 0 25.664-6.368 28.064-7.2 2.464-0.864 3.488-2.72 3.040-5.088-0.48-2.336-3.68-19.616-3.68-19.616l-32.48 6.176zM11.008 15.52l-1.184-6.272 1.12-0.224 3.168 3.744-0.8-4.192 1.088-0.192 1.184 6.272-1.184 0.224-3.104-3.648 0.768 4.096-1.056 0.192zM16.8 14.432l-1.184-6.272 4.288-0.8 0.192 1.056-3.104 0.608 0.256 1.408 2.88-0.544 0.192 1.056-2.88 0.544 0.32 1.696 3.232-0.608 0.192 1.056-4.384 0.8zM23.008 13.248l-2.56-6.016 1.184-0.224 1.696 4.16 0.224-4.512 1.376-0.256 1.856 4.16 0.032-4.576 1.184-0.224-0.192 6.56-1.248 0.256-2.048-4.48-0.256 4.928-1.248 0.224zM29.088 9.952l1.12-0.32c0.16 0.416 0.352 0.672 0.576 0.832 0.256 0.16 0.544 0.192 0.896 0.128 0.384-0.064 0.64-0.224 0.8-0.416 0.16-0.224 0.224-0.416 0.16-0.672-0.032-0.16-0.096-0.256-0.192-0.352s-0.256-0.16-0.48-0.192c-0.16-0.032-0.48-0.064-0.992-0.096-0.672-0.064-1.12-0.16-1.44-0.352-0.416-0.288-0.672-0.672-0.768-1.152-0.064-0.32-0.032-0.64 0.064-0.96 0.128-0.32 0.32-0.576 0.608-0.768s0.64-0.352 1.088-0.448c0.736-0.128 1.312-0.064 1.728 0.224s0.704 0.704 0.832 1.28l-1.152 0.288c-0.096-0.32-0.256-0.512-0.448-0.64-0.192-0.096-0.448-0.128-0.768-0.064-0.352 0.064-0.576 0.192-0.768 0.384-0.096 0.128-0.128 0.256-0.096 0.416s0.096 0.256 0.256 0.352c0.16 0.096 0.544 0.16 1.152 0.224 0.608 0.032 1.056 0.096 1.344 0.224 0.288 0.096 0.544 0.288 0.768 0.512 0.192 0.256 0.352 0.576 0.416 0.96 0.064 0.352 0.032 0.704-0.096 1.056s-0.352 0.64-0.64 0.864c-0.32 0.224-0.704 0.384-1.216 0.48-0.736 0.128-1.312 0.064-1.792-0.224-0.384-0.384-0.736-0.864-0.96-1.568zM24.352 16.704l-12.672 2.4-0.192-1.088 12.672-2.4 0.192 1.088zM36.896 20.832l-9.44 1.792-1.408-7.392 9.472-1.792 1.376 7.392zM24.96 19.776l-12.672 2.4-0.192-1.088 12.672-2.4 0.192 1.088zM25.568 23.008l-12.672 2.4-0.224-1.088 12.672-2.4 0.224 1.088z"></path>
</symbol>
<symbol id="commercial" viewBox="0 0 35 32">
<path class="path1" d="M21.408 28.768v-28.768l-14.24 3.808v3.68l-4.736 1.28v20h-2.432v3.232h35.328v-3.232h-2.208v-20l-2.688-1.28v-3.008l-8.096-4.352v28.64h-0.928zM4 28.768c0-1.28 0-2.56 0-3.84 2.304-0.096 4.736-0.192 7.296-0.32 2.688-0.128 5.568-0.224 8.608-0.352 0 1.504 0 3.008 0 4.512-3.040 0-5.888 0-8.608 0-2.56 0-4.992 0-7.296 0v0zM32 28.768c-1.152 0-2.368 0-3.648 0-1.344 0-2.784 0-4.288 0 0-1.504 0-3.008 0-4.512 1.504 0.128 2.944 0.256 4.288 0.352 1.28 0.096 2.496 0.224 3.648 0.32 0 1.28 0 2.56 0 3.84v0zM32 15.040c-1.152-0.352-2.368-0.736-3.648-1.12-1.344-0.416-2.784-0.832-4.288-1.312 0-1.504 0-3.008 0-4.512 1.504 0.576 2.944 1.152 4.288 1.664 1.28 0.512 2.496 0.96 3.648 1.408 0 1.312 0 2.592 0 3.872v0zM32 19.648c-1.152-0.224-2.368-0.48-3.648-0.736-1.344-0.288-2.784-0.576-4.288-0.864 0-1.504 0-3.008 0-4.512 1.504 0.448 2.944 0.832 4.288 1.248 1.28 0.352 2.496 0.704 3.648 1.056 0 1.248 0 2.528 0 3.808v0zM32 24.16c-1.152-0.128-2.368-0.256-3.648-0.384-1.344-0.128-2.784-0.288-4.288-0.448 0-1.504 0-3.008 0-4.512 1.504 0.288 2.944 0.544 4.288 0.8 1.28 0.224 2.496 0.48 3.648 0.672 0 1.312 0 2.592 0 3.872v0zM4 15.040c0-1.28 0-2.56 0-3.84 2.304-0.448 4.736-0.928 7.296-1.408 2.688-0.512 5.568-1.088 8.608-1.664 0 1.504 0 3.008 0 4.512-3.040 0.448-5.888 0.896-8.608 1.312-2.56 0.384-4.992 0.736-7.296 1.088v0zM4 19.648c0-1.28 0-2.56 0-3.84 2.304-0.32 4.736-0.672 7.296-1.056 2.688-0.384 5.568-0.8 8.608-1.248 0 1.504 0 3.008 0 4.512-3.040 0.32-5.888 0.608-8.608 0.864-2.56 0.288-4.992 0.544-7.296 0.768v0zM4 24.16c0-1.28 0-2.56 0-3.84 2.304-0.224 4.736-0.448 7.296-0.672 2.688-0.256 5.568-0.512 8.608-0.8 0 1.504 0 3.008 0 4.512-3.040 0.16-5.888 0.288-8.608 0.448-2.56 0.128-4.992 0.256-7.296 0.352z"></path>
</symbol>
<symbol id="email" viewBox="0 0 50 32">
<path class="path1" d="M2.133 0h45.346l-19.746 12.552c-0.794 0.496-1.985 0.843-2.927 0.843s-2.133-0.347-2.927-0.843l-19.746-12.552zM33.786 16.868l-3.026 1.935 16.422 13.246h-44.155l16.174-12.998-3.026-1.935-16.174 12.949v-27.336l19.994 12.701c1.34 0.893 3.175 1.439 4.812 1.439 1.687 0 3.473-0.546 4.862-1.439l19.944-12.701v26.791l-15.826-12.651z"></path>
</symbol>
<symbol id="flag_en" viewBox="0 0 55 32">
<path fill="#cb001c" class="path1 fill-color7" d="M0 29.53h54.889v2.47h-54.889v-2.47z"></path>
<path fill="#fff" class="path2 fill-color13" d="M0 27.115h54.889v2.47h-54.889v-2.47z"></path>
<path fill="#cb001c" class="path3 fill-color7" d="M0 24.645h54.889v2.47h-54.889v-2.47z"></path>
<path fill="#fff" class="path4 fill-color13" d="M0 22.175h54.889v2.47h-54.889v-2.47z"></path>
<path fill="#cb001c" class="path5 fill-color7" d="M0 19.705h54.889v2.47h-54.889v-2.47z"></path>
<path fill="#fff" class="path6 fill-color13" d="M0 17.235h54.889v2.47h-54.889v-2.47z"></path>
<path fill="#cb001c" class="path7 fill-color7" d="M0 14.765h54.889v2.47h-54.889v-2.47z"></path>
<path fill="#fff" class="path8 fill-color13" d="M0 12.295h54.889v2.47h-54.889v-2.47z"></path>
<path fill="#cb001c" class="path9 fill-color7" d="M0 9.825h54.889v2.47h-54.889v-2.47z"></path>
<path fill="#fff" class="path10 fill-color13" d="M0 7.41h54.889v2.47h-54.889v-2.47z"></path>
<path fill="#cb001c" class="path11 fill-color7" d="M0 4.94h54.889v2.47h-54.889v-2.47z"></path>
<path fill="#fff" class="path12 fill-color13" d="M0 2.47h54.889v2.47h-54.889v-2.47z"></path>
<path fill="#cb001c" class="path13 fill-color7" d="M0 0h54.889v2.47h-54.889v-2.47z"></path>
<path fill="#2a3560" class="path14 fill-color3" d="M0 0h25.084v17.235h-25.084v-17.235z"></path>
<path fill="#fff" class="path15 fill-color13" d="M2.25 1.921l0.22 0.659h0.659l-0.549 0.384 0.22 0.659-0.549-0.439-0.549 0.439 0.22-0.659-0.549-0.384h0.659z"></path>
<path fill="#fff" class="path16 fill-color13" d="M2.25 4.775l0.22 0.659h0.659l-0.549 0.384 0.22 0.659-0.549-0.384-0.549 0.384 0.22-0.659-0.549-0.384h0.659z"></path>
<path fill="#fff" class="path17 fill-color13" d="M2.25 7.63l0.22 0.659h0.659l-0.549 0.439 0.22 0.659-0.549-0.439-0.549 0.439 0.22-0.659-0.549-0.439h0.659z"></path>
<path fill="#fff" class="path18 fill-color13" d="M2.25 10.539l0.22 0.659h0.659l-0.549 0.384 0.22 0.659-0.549-0.384-0.549 0.384 0.22-0.659-0.549-0.384h0.659z"></path>
<path fill="#fff" class="path19 fill-color13" d="M2.25 13.393l0.22 0.659h0.659l-0.549 0.439 0.22 0.604-0.549-0.384-0.549 0.384 0.22-0.604-0.549-0.439h0.659z"></path>
<path fill="#fff" class="path20 fill-color13" d="M4.281 3.403l0.22 0.659h0.659l-0.549 0.384 0.22 0.659-0.549-0.384-0.549 0.384 0.165-0.659-0.549-0.384h0.714z"></path>
<path fill="#fff" class="path21 fill-color13" d="M4.281 6.312l0.22 0.659h0.659l-0.549 0.384 0.22 0.659-0.549-0.439-0.549 0.439 0.165-0.659-0.549-0.384h0.714z"></path>
<path fill="#fff" class="path22 fill-color13" d="M4.281 9.166l0.22 0.659h0.659l-0.549 0.384 0.22 0.659-0.549-0.384-0.549 0.384 0.165-0.659-0.549-0.384h0.714z"></path>
<path fill="#fff" class="path23 fill-color13" d="M4.281 12.075l0.22 0.604h0.659l-0.549 0.439 0.22 0.659-0.549-0.439-0.549 0.439 0.165-0.659-0.549-0.439h0.714z"></path>
<path fill="#fff" class="path24 fill-color13" d="M6.312 1.921l0.22 0.659h0.659l-0.549 0.384 0.22 0.659-0.549-0.439-0.549 0.439 0.165-0.659-0.549-0.384h0.714z"></path>
<path fill="#fff" class="path25 fill-color13" d="M6.312 4.775l0.22 0.659h0.659l-0.549 0.384 0.22 0.659-0.549-0.384-0.549 0.384 0.165-0.659-0.549-0.384h0.714z"></path>
<path fill="#fff" class="path26 fill-color13" d="M6.312 7.63l0.22 0.659h0.659l-0.549 0.439 0.22 0.659-0.549-0.439-0.549 0.439 0.165-0.659-0.549-0.439h0.714z"></path>
<path fill="#fff" class="path27 fill-color13" d="M6.312 10.539l0.22 0.659h0.659l-0.549 0.384 0.22 0.659-0.549-0.384-0.549 0.384 0.165-0.659-0.549-0.384h0.714z"></path>
<path fill="#fff" class="path28 fill-color13" d="M6.312 13.393l0.22 0.659h0.659l-0.549 0.439 0.22 0.604-0.549-0.384-0.549 0.384 0.165-0.604-0.549-0.439h0.714z"></path>
<path fill="#fff" class="path29 fill-color13" d="M8.288 3.403l0.22 0.659h0.714l-0.604 0.384 0.22 0.659-0.549-0.384-0.549 0.384 0.22-0.659-0.549-0.384h0.659z"></path>
<path fill="#fff" class="path30 fill-color13" d="M8.288 6.312l0.22 0.659h0.714l-0.604 0.384 0.22 0.659-0.549-0.439-0.549 0.439 0.22-0.659-0.549-0.384h0.659z"></path>
<path fill="#fff" class="path31 fill-color13" d="M8.288 9.166l0.22 0.659h0.714l-0.604 0.384 0.22 0.659-0.549-0.384-0.549 0.384 0.22-0.659-0.549-0.384h0.659z"></path>
<path fill="#fff" class="path32 fill-color13" d="M8.288 12.075l0.22 0.604h0.714l-0.604 0.439 0.22 0.659-0.549-0.439-0.549 0.439 0.22-0.659-0.549-0.439h0.659z"></path>
<path fill="#fff" class="path33 fill-color13" d="M10.319 1.921l0.22 0.659h0.714l-0.604 0.384 0.22 0.659-0.549-0.439-0.549 0.439 0.22-0.659-0.549-0.384h0.659z"></path>
<path fill="#fff" class="path34 fill-color13" d="M10.319 4.775l0.22 0.659h0.714l-0.604 0.384 0.22 0.659-0.549-0.384-0.549 0.384 0.22-0.659-0.549-0.384h0.659z"></path>
<path fill="#fff" class="path35 fill-color13" d="M10.319 7.63l0.22 0.659h0.714l-0.604 0.439 0.22 0.659-0.549-0.439-0.549 0.439 0.22-0.659-0.549-0.439h0.659z"></path>
<path fill="#fff" class="path36 fill-color13" d="M10.319 10.539l0.22 0.659h0.714l-0.604 0.384 0.22 0.659-0.549-0.384-0.549 0.384 0.22-0.659-0.549-0.384h0.659z"></path>
<path fill="#fff" class="path37 fill-color13" d="M10.319 13.393l0.22 0.659h0.714l-0.604 0.439 0.22 0.604-0.549-0.384-0.549 0.384 0.22-0.604-0.549-0.439h0.659z"></path>
<path fill="#fff" class="path38 fill-color13" d="M12.35 3.403l0.22 0.659h0.659l-0.549 0.384 0.22 0.659-0.549-0.384-0.549 0.384 0.165-0.659-0.549-0.384h0.714z"></path>
<path fill="#fff" class="path39 fill-color13" d="M12.35 6.312l0.22 0.659h0.659l-0.549 0.384 0.22 0.659-0.549-0.439-0.549 0.439 0.165-0.659-0.549-0.384h0.714z"></path>
<path fill="#fff" class="path40 fill-color13" d="M12.35 9.166l0.22 0.659h0.659l-0.549 0.384 0.22 0.659-0.549-0.384-0.549 0.384 0.165-0.659-0.549-0.384h0.714z"></path>
<path fill="#fff" class="path41 fill-color13" d="M12.35 12.075l0.22 0.604h0.659l-0.549 0.439 0.22 0.659-0.549-0.439-0.549 0.439 0.165-0.659-0.549-0.439h0.714z"></path>
<path fill="#fff" class="path42 fill-color13" d="M14.381 1.921l0.22 0.659h0.659l-0.549 0.384 0.22 0.659-0.549-0.439-0.549 0.439 0.165-0.659-0.549-0.384h0.714z"></path>
<path fill="#fff" class="path43 fill-color13" d="M14.381 4.775l0.22 0.659h0.659l-0.549 0.384 0.22 0.659-0.549-0.384-0.549 0.384 0.165-0.659-0.549-0.384h0.714z"></path>
<path fill="#fff" class="path44 fill-color13" d="M14.381 7.63l0.22 0.659h0.659l-0.549 0.439 0.22 0.659-0.549-0.439-0.549 0.439 0.165-0.659-0.549-0.439h0.714z"></path>
<path fill="#fff" class="path45 fill-color13" d="M14.381 10.539l0.22 0.659h0.659l-0.549 0.384 0.22 0.659-0.549-0.384-0.549 0.384 0.165-0.659-0.549-0.384h0.714z"></path>
<path fill="#fff" class="path46 fill-color13" d="M14.381 13.393l0.22 0.659h0.659l-0.549 0.439 0.22 0.604-0.549-0.384-0.549 0.384 0.165-0.604-0.549-0.439h0.714z"></path>
<path fill="#fff" class="path47 fill-color13" d="M16.357 3.403l0.22 0.659h0.714l-0.604 0.384 0.22 0.659-0.549-0.384-0.549 0.384 0.22-0.659-0.549-0.384h0.659z"></path>
<path fill="#fff" class="path48 fill-color13" d="M16.357 6.312l0.22 0.659h0.714l-0.604 0.384 0.22 0.659-0.549-0.439-0.549 0.439 0.22-0.659-0.549-0.384h0.659z"></path>
<path fill="#fff" class="path49 fill-color13" d="M16.357 9.166l0.22 0.659h0.714l-0.604 0.384 0.22 0.659-0.549-0.384-0.549 0.384 0.22-0.659-0.549-0.384h0.659z"></path>
<path fill="#fff" class="path50 fill-color13" d="M16.357 12.075l0.22 0.604h0.714l-0.604 0.439 0.22 0.659-0.549-0.439-0.549 0.439 0.22-0.659-0.549-0.439h0.659z"></path>
<path fill="#fff" class="path51 fill-color13" d="M18.388 1.921l0.22 0.659h0.714l-0.604 0.384 0.22 0.659-0.549-0.439-0.549 0.439 0.22-0.659-0.549-0.384h0.659z"></path>
<path fill="#fff" class="path52 fill-color13" d="M18.388 4.775l0.22 0.659h0.714l-0.604 0.384 0.22 0.659-0.549-0.384-0.549 0.384 0.22-0.659-0.549-0.384h0.659z"></path>
<path fill="#fff" class="path53 fill-color13" d="M18.388 7.63l0.22 0.659h0.714l-0.604 0.439 0.22 0.659-0.549-0.439-0.549 0.439 0.22-0.659-0.549-0.439h0.659z"></path>
<path fill="#fff" class="path54 fill-color13" d="M18.388 10.539l0.22 0.659h0.714l-0.604 0.384 0.22 0.659-0.549-0.384-0.549 0.384 0.22-0.659-0.549-0.384h0.659z"></path>
<path fill="#fff" class="path55 fill-color13" d="M18.388 13.393l0.22 0.659h0.714l-0.604 0.439 0.22 0.604-0.549-0.384-0.549 0.384 0.22-0.604-0.549-0.439h0.659z"></path>
<path fill="#fff" class="path56 fill-color13" d="M20.419 3.403l0.22 0.659h0.659l-0.549 0.384 0.22 0.659-0.549-0.384-0.549 0.384 0.165-0.659-0.549-0.384h0.714z"></path>
<path fill="#fff" class="path57 fill-color13" d="M20.419 6.312l0.22 0.659h0.659l-0.549 0.384 0.22 0.659-0.549-0.439-0.549 0.439 0.165-0.659-0.549-0.384h0.714z"></path>
<path fill="#fff" class="path58 fill-color13" d="M20.419 9.166l0.22 0.659h0.659l-0.549 0.384 0.22 0.659-0.549-0.384-0.549 0.384 0.165-0.659-0.549-0.384h0.714z"></path>
<path fill="#fff" class="path59 fill-color13" d="M20.419 12.075l0.22 0.604h0.659l-0.549 0.439 0.22 0.659-0.549-0.439-0.549 0.439 0.165-0.659-0.549-0.439h0.714z"></path>
<path fill="#fff" class="path60 fill-color13" d="M22.449 1.921l0.22 0.659h0.659l-0.549 0.384 0.22 0.659-0.549-0.439-0.549 0.439 0.165-0.659-0.549-0.384h0.714z"></path>
<path fill="#fff" class="path61 fill-color13" d="M22.449 4.775l0.22 0.659h0.659l-0.549 0.384 0.22 0.659-0.549-0.384-0.549 0.384 0.165-0.659-0.549-0.384h0.714z"></path>
<path fill="#fff" class="path62 fill-color13" d="M22.449 7.63l0.22 0.659h0.659l-0.549 0.439 0.22 0.659-0.549-0.439-0.549 0.439 0.165-0.659-0.549-0.439h0.714z"></path>
<path fill="#fff" class="path63 fill-color13" d="M22.449 10.539l0.22 0.659h0.659l-0.549 0.384 0.22 0.659-0.549-0.384-0.549 0.384 0.165-0.659-0.549-0.384h0.714z"></path>
<path fill="#fff" class="path64 fill-color13" d="M22.449 13.393l0.22 0.659h0.659l-0.549 0.439 0.22 0.604-0.549-0.384-0.549 0.384 0.165-0.604-0.549-0.439h0.714z"></path>
</symbol>
<symbol id="facebook" viewBox="0 0 32 32">
<path class="path1" d="M16 0c-8.832 0-16 7.168-16 16s7.168 16 16 16c8.832 0 16-7.168 16-16s-7.168-16-16-16zM20.256 15.744h-2.688c0 4.32 0 9.632 0 9.632h-4.032c0 0 0-5.28 0-9.632h-1.92v-3.424h1.92v-2.208c0-1.568 0.768-4.032 4.064-4.032h2.976v3.296c0 0-1.792 0-2.144 0s-0.864 0.16-0.864 0.928v2.016h3.040l-0.352 3.424z"></path>
</symbol>
<symbol id="flag_fr" viewBox="0 0 55 32">
<path fill="#323e95" class="path1 fill-color6" d="M0 0h18.278v32h-18.278v-32z"></path>
<path fill="#f4f4f4" class="path2 fill-color12" d="M18.278 0h18.278v32h-18.278v-32z"></path>
<path fill="#d80031" class="path3 fill-color8" d="M36.611 0h18.278v32h-18.278v-32z"></path>
</symbol>
<symbol id="gallery" viewBox="0 0 31 32">
<path class="path1" d="M30.080 3.072l-21.312-3.072c-0.416-0.064-0.832 0.224-0.896 0.672l-0.384 2.656 1.248 0.032 0.288-2.080 20.448 2.944-2.368 16.544-0.128 5.568c0.352-0.032 0.608-0.32 0.672-0.672l3.104-21.728c0.064-0.416-0.224-0.8-0.672-0.864z"></path>
<path class="path2" d="M23.008 7.328c-0.032-0.448-0.416-0.768-0.864-0.704l-21.44 1.984c-0.448 0.032-0.768 0.416-0.704 0.864l2.016 21.856c0.032 0.448 0.416 0.768 0.864 0.704l21.44-1.984c0.448-0.032 0.768-0.416 0.704-0.864l-2.016-21.856zM2.848 26.976l-1.568-17.216 20.576-1.888 1.6 17.216-20.608 1.888z"></path>
<path class="path3" d="M16.256 16.704l-2.912 2.4-4.192-4.16c-0.16-0.16-0.352-0.224-0.576-0.192s-0.416 0.128-0.544 0.288l-5.12 5.056 0.576 6.080 19.168-1.76-0.544-5.856-5.024-1.92c-0.288-0.16-0.608-0.128-0.832 0.064z"></path>
<path class="path4" d="M18.617 11.141c0.086 0.933-0.6 1.759-1.533 1.845s-1.759-0.6-1.845-1.533c-0.086-0.933 0.6-1.759 1.533-1.845s1.759 0.6 1.845 1.533z"></path>
<path class="path5" d="M26.048 4.48l-21.536-0.544c-0.448 0-0.8 0.32-0.8 0.768l-0.064 2.912 1.216-0.128 0.064-2.336 20.64 0.512-0.416 17.056 0.48 5.216c0.352-0.064 0.64-0.384 0.64-0.768l0.544-21.92c0-0.384-0.352-0.768-0.768-0.768z"></path>
</symbol>
<symbol id="flag_he" viewBox="0 0 55 32">
<path fill="#fff" class="path1 fill-color13" d="M0 0h54.889v32h-54.889v-32z"></path>
<path fill="#313883" class="path2 fill-color5" d="M0 2.525h54.889v5.16h-54.889v-5.16z"></path>
<path fill="#313883" class="path3 fill-color5" d="M0 24.316h54.889v5.16h-54.889v-5.16z"></path>
<path fill="#313883" class="path4 fill-color5" d="M31.616 16.027l2.141-3.623h-4.226l-2.086-3.623-2.086 3.623h-4.226l2.141 3.623-2.141 3.623h4.226l2.086 3.623 2.086-3.623h4.226l-2.141-3.623zM26.676 12.405l0.768-1.317 0.768 1.317h-1.537zM30.957 17.18l0.714 1.262h-1.482l0.768-1.262zM30.189 13.612h1.427l-0.714 1.262-0.714-1.262zM28.213 19.595l-0.768 1.317-0.768-1.317h1.537zM26.017 18.443l-1.372-2.415 1.372-2.415h2.854l1.372 2.415-1.372 2.415h-2.854zM24.7 18.443h-1.427l0.714-1.262 0.714 1.262zM23.218 13.612h1.482l-0.714 1.262-0.768-1.262z"></path>
</symbol>
<symbol id="home" viewBox="0 0 36 32">
<path class="path1" d="M35.552 13.92l-16.736-13.664c-0.256-0.192-0.544-0.288-0.864-0.256-0.288-0.032-0.608 0.064-0.864 0.256l-16.704 13.664c-0.48 0.384-0.512 1.056-0.096 1.472l2.016 2.080c0.416 0.416 1.12 0.48 1.6 0.096l14.080-11.488 14.080 11.488c0.48 0.384 1.184 0.352 1.6-0.096l2.016-2.080c0.384-0.416 0.32-1.088-0.128-1.472v0zM11.2 0.448h-4.896v7.072l4.896-4v-3.072zM5.088 18.432v13.568h9.088v-11.168h7.648v11.168h9.088v-13.568l-10.944-9.12c-0.544-0.48-1.28-0.672-1.984-0.608-0.704-0.064-1.408 0.16-1.984 0.608l-10.912 9.12z"></path>
</symbol>
<symbol id="location" viewBox="0 0 21 32">
<path class="path1" d="M20.576 10.304c0 5.696-7.872 21.696-10.304 21.696s-10.272-16.032-10.272-21.696 4.608-10.304 10.304-10.304 10.272 4.608 10.272 10.304zM10.304 4.448c-3.232 0-5.824 2.624-5.824 5.824s2.624 5.824 5.824 5.824c3.232 0 5.824-2.624 5.824-5.824s-2.624-5.824-5.824-5.824z"></path>
</symbol>
<symbol id="menu" viewBox="0 0 32 32">
<path fill="#004366" class="path1 fill-color1" d="M31.68 6.4h-31.36c-0.192 0-0.32-0.128-0.32-0.32v-5.76c0-0.192 0.128-0.32 0.32-0.32h31.36c0.192 0 0.32 0.128 0.32 0.32v5.76c0 0.192-0.128 0.32-0.32 0.32zM32 18.88v-5.76c0-0.192-0.128-0.32-0.32-0.32h-31.36c-0.192 0-0.32 0.128-0.32 0.32v5.76c0 0.192 0.128 0.32 0.32 0.32h31.36c0.192 0 0.32-0.128 0.32-0.32zM32 31.68v-5.76c0-0.192-0.128-0.32-0.32-0.32h-31.36c-0.192 0-0.32 0.128-0.32 0.32v5.76c0 0.192 0.128 0.32 0.32 0.32h31.36c0.192 0 0.32-0.128 0.32-0.32z"></path>
</symbol>
<symbol id="news" viewBox="0 0 29 32">
<path class="path1" d="M0.864 14.336c-0.384 0.128-0.256 1.632 0.256 3.584v0c-0.832 0.256-1.312 1.184-1.024 2.016 0.256 0.832 1.184 1.312 2.016 1.024l0.064-0.032c0.672 1.6 1.344 2.656 1.696 2.56l7.104-2.304-2.976-9.152-7.136 2.304z"></path>
<path class="path2" d="M11.456 27.552c-0.896-0.16-1.44-1.408-1.76-2.624l2.208-0.704-1.344-2.080-1.728 0.48-2.592 0.704 5.6 8.672 3.264-1.056c0 0-1.44-3.040-3.648-3.392z"></path>
<path class="path3" d="M29.44 22.016l-2.528-7.808c0.8-0.384 2.144-1.44 1.408-3.712s-2.432-2.368-3.328-2.208l-2.496-7.808c-0.128-0.384-0.512-0.576-0.896-0.448-0.064 0.032-0.288 0.352-0.704 0.864l7.008 21.696c0.608 0.192 1.024 0.32 1.088 0.32 0.384-0.096 0.576-0.512 0.448-0.896z"></path>
<path class="path4" d="M8.896 11.68c0.704 2.4 2.496 7.68 2.976 9.152 4.736-1.536 11.328 0.256 14.784 1.376l-6.56-20.224c-2.144 2.912-6.368 8.128-11.2 9.696zM13.664 18.912c-0.192 0.064-0.416-0.032-0.48-0.256l-1.984-6.144c-0.064-0.192 0.032-0.416 0.256-0.48 0.192-0.064 0.416 0.032 0.48 0.256l1.984 6.144c0.064 0.192-0.064 0.416-0.256 0.48zM15.616 19.264c-0.192 0.064-0.416-0.032-0.512-0.256l-2.496-7.712c-0.064-0.192 0.032-0.416 0.256-0.512 0.192-0.064 0.416 0.032 0.512 0.256l2.496 7.712c0.064 0.224-0.064 0.448-0.256 0.512z"></path>
</symbol>
<symbol id="phone" viewBox="0 0 32 32">
<path fill="#76cc1e" class="path1 fill-color10" d="M16 0c-8.832 0-16 7.168-16 16s7.168 16 16 16c8.832 0 16-7.168 16-16s-7.168-16-16-16zM25.824 22.208c-0.736 2.496-2.688 4.128-5.6 3.808-0.96-0.064-5.248-0.928-9.216-4.928-4-3.936-4.768-8.192-4.832-9.12-0.32-2.88 0.96-5.088 3.328-5.952 0.704-0.256 1.472 0.128 1.792 0.768l1.28 2.752c0.256 0.544 0.128 1.216-0.288 1.632l-1.952 1.952c0 0 0.032 1.536 3.232 4.736 3.040 3.104 4.672 3.232 4.672 3.232l1.92-1.92c0.448-0.448 1.12-0.544 1.696-0.256l3.232 1.632c0.608 0.288 0.928 0.992 0.736 1.664z"></path>
</symbol>
<symbol id="projects" viewBox="0 0 28 32">

<path class="path1" d="M8.96 29.344v-1.504h0.768c0.32 0 0.64 0 0.96 0s0.608 0 0.928 0c0.288 0 0.608 0 0.896 0 0-0.416 0-0.832 0-1.248-0.288 0-0.608 0-0.896-0.032-0.288 0-0.608 0-0.928-0.032-0.32 0-0.64 0-0.96-0.032-0.256 0-0.512 0-0.768 0v-1.152c0.256 0 0.512 0.032 0.768 0.032 0.32 0 0.64 0.032 0.96 0.032s0.608 0.032 0.928 0.032c0.288 0 0.608 0.032 0.896 0.032 0-0.416 0-0.832 0-1.248-0.288-0.032-0.608-0.032-0.896-0.064s-0.608-0.032-0.928-0.064c-0.32-0.032-0.64-0.032-0.96-0.064-0.256 0-0.512-0.032-0.768-0.032v-1.152c0.256 0.032 0.512 0.032 0.768 0.064 0.32 0.032 0.64 0.032 0.96 0.064s0.608 0.032 0.928 0.064c0.288 0.032 0.608 0.032 0.896 0.064 0-0.416 0-0.832 0-1.248-0.288-0.032-0.608-0.064-0.896-0.096s-0.608-0.064-0.928-0.096c-0.32-0.032-0.64-0.064-0.96-0.096-0.256-0.032-0.512-0.064-0.768-0.064v-1.024c0.256 0.032 0.512 0.064 0.768 0.096 0.32 0.032 0.64 0.064 0.96 0.096s0.608 0.064 0.928 0.096c0.288 0.032 0.608 0.064 0.896 0.096 0-0.416 0-0.832 0-1.248-0.288-0.032-0.608-0.064-0.896-0.128-0.288-0.032-0.608-0.096-0.928-0.128s-0.64-0.096-0.96-0.128c-0.256-0.032-0.512-0.064-0.768-0.096v-1.152l0.768 0.128c0.32 0.064 0.64 0.096 0.96 0.128s0.608 0.096 0.928 0.128c0.288 0.032 0.608 0.096 0.896 0.128 0-0.416 0-0.832 0-1.248-0.288-0.064-0.608-0.096-0.896-0.16s-0.608-0.096-0.928-0.16c-0.32-0.064-0.64-0.096-0.96-0.16-0.256-0.032-0.512-0.096-0.768-0.128v-1.152c0.256 0.064 0.512 0.096 0.768 0.16 0.32 0.064 0.64 0.128 0.96 0.16 0.32 0.064 0.608 0.128 0.928 0.16 0.288 0.064 0.608 0.128 0.896 0.16 0-0.416 0-0.832 0-1.248-0.288-0.064-0.608-0.128-0.896-0.192s-0.608-0.128-0.928-0.192c-0.32-0.064-0.64-0.128-0.96-0.192-0.256-0.064-0.512-0.096-0.768-0.16v-1.024c0.256 0.064 0.512 0.128 0.768 0.16 0.32 0.064 0.64 0.128 0.96 0.224 0.32 0.064 0.608 0.128 0.928 0.192 0.288 0.064 0.608 0.128 0.896 0.192 0-0.416 0-0.832 0-1.248-0.288-0.064-0.608-0.16-0.896-0.224s-0.608-0.16-0.928-0.224c-0.32-0.064-0.64-0.16-0.96-0.224-0.256-0.064-0.512-0.128-0.768-0.192v-1.152c0.256 0.064 0.512 0.128 0.768 0.192 0.32 0.096 0.64 0.16 0.96 0.256 0.32 0.064 0.608 0.16 0.928 0.224 0.288 0.064 0.608 0.16 0.896 0.224 0-0.416 0-0.832 0-1.248-0.288-0.096-0.608-0.16-0.896-0.256s-0.608-0.16-0.928-0.256c-0.32-0.096-0.64-0.192-0.96-0.256-0.256-0.064-0.512-0.16-0.768-0.224v-2.080l4.16 1.504v20.576h1.12v-25.696l6.56-3.584v29.344h0.576v-1.504h1.76c0.608 0 1.216 0 1.792 0 0-0.416 0-0.8 0-1.216-0.576 0-1.184-0.032-1.792-0.064l-1.76-0.032v-1.152l1.76 0.096c0.608 0.032 1.216 0.064 1.792 0.096 0-0.416 0-0.8 0-1.216-0.576-0.032-1.184-0.096-1.792-0.128l-1.76-0.128v-1.152l1.76 0.192c0.608 0.064 1.216 0.128 1.792 0.192 0-0.416 0-0.8 0-1.216-0.576-0.064-1.184-0.16-1.792-0.224l-1.76-0.224v-1.184l1.76 0.256c0.608 0.096 1.216 0.192 1.792 0.256 0-0.416 0-0.8 0-1.216-0.576-0.096-1.184-0.224-1.792-0.32l-1.76-0.32v-1.152l1.76 0.352c0.608 0.128 1.216 0.256 1.792 0.352 0-0.416 0-0.8 0-1.216-0.576-0.128-1.184-0.256-1.792-0.416l-1.76-0.416v-1.152l1.76 0.448c0.608 0.16 1.216 0.32 1.792 0.448 0-0.416 0-0.8 0-1.216-0.576-0.16-1.184-0.32-1.792-0.512l-1.76-0.48v-1.056l1.76 0.544c0.608 0.192 1.216 0.352 1.792 0.544 0-0.416 0-0.8 0-1.216-0.576-0.192-1.184-0.384-1.792-0.576l-1.76-0.576v-1.152l1.76 0.608c0.608 0.224 1.216 0.416 1.792 0.64 0-0.416 0-0.8 0-1.216-0.576-0.224-1.184-0.448-1.792-0.672l-1.76-0.672v-1.152l1.76 0.704c0.608 0.256 1.216 0.48 1.792 0.736 0-0.416 0-0.8 0-1.216-0.576-0.256-1.184-0.512-1.792-0.768l-1.76-0.768v-1.152l1.76 0.8c0.608 0.288 1.216 0.544 1.792 0.8 0-0.416 0-0.8 0-1.216-0.576-0.288-1.184-0.576-1.792-0.864l-1.76-0.8v-1.152l1.76 0.896c0.608 0.32 1.216 0.608 1.792 0.896 0-0.416 0-0.8 0-1.216-0.576-0.32-1.184-0.64-1.792-0.96l-1.76-0.928v-2.016l4.16 2.688v26.624h1.984v2.656h-27.52v-2.656h1.824v-19.36l6.56-2.688v22.080h0.576zM19.36 24.192c-0.672 0.064-1.312 0.096-1.952 0.16-0.608 0.032-1.216 0.096-1.792 0.128 0 0.416 0 0.8 0 1.216 0.576-0.032 1.184-0.064 1.792-0.096 0.64-0.032 1.28-0.064 1.952-0.096 0-0.448 0-0.864 0-1.312v0zM19.36 26.656c-0.672 0.032-1.312 0.032-1.952 0.064-0.608 0.032-1.216 0.032-1.792 0.064 0 0.416 0 0.8 0 1.216 0.576 0 1.184 0 1.792 0 0.64 0 1.28 0 1.952 0 0-0.48 0-0.928 0-1.344v0zM19.36 21.728c-0.672 0.096-1.312 0.16-1.952 0.256-0.608 0.064-1.216 0.16-1.792 0.224 0 0.416 0 0.8 0 1.216 0.576-0.064 1.184-0.128 1.792-0.192 0.64-0.064 1.28-0.128 1.952-0.192 0-0.448 0-0.864 0-1.312v0zM19.36 19.264c-0.672 0.128-1.312 0.224-1.952 0.352-0.608 0.096-1.216 0.224-1.792 0.32 0 0.416 0 0.8 0 1.216 0.576-0.096 1.184-0.192 1.792-0.256 0.64-0.096 1.28-0.192 1.952-0.288 0-0.48 0-0.896 0-1.344v0zM19.36 16.8c-0.672 0.16-1.312 0.288-1.952 0.448-0.608 0.128-1.216 0.288-1.792 0.416 0 0.416 0 0.8 0 1.216 0.576-0.128 1.184-0.224 1.792-0.352 0.64-0.128 1.28-0.256 1.952-0.384 0-0.48 0-0.896 0-1.344v0zM19.36 14.336c-0.672 0.192-1.312 0.352-1.952 0.544-0.608 0.16-1.216 0.352-1.792 0.512 0 0.416 0 0.8 0 1.216 0.576-0.16 1.184-0.288 1.792-0.448 0.64-0.16 1.28-0.32 1.952-0.48 0-0.448 0-0.896 0-1.344v0zM19.36 11.872c-0.672 0.224-1.312 0.416-1.952 0.64-0.608 0.192-1.216 0.384-1.792 0.576 0 0.416 0 0.8 0 1.216 0.576-0.16 1.184-0.352 1.792-0.544 0.64-0.192 1.28-0.384 1.952-0.576 0-0.416 0-0.864 0-1.312v0zM19.36 9.408c-0.672 0.256-1.312 0.512-1.952 0.736-0.608 0.224-1.216 0.448-1.792 0.672 0 0.416 0 0.8 0 1.216 0.576-0.192 1.184-0.416 1.792-0.64 0.64-0.224 1.28-0.448 1.952-0.672 0-0.416 0-0.864 0-1.312v0zM19.36 6.944c-0.672 0.288-1.312 0.576-1.952 0.832-0.608 0.256-1.216 0.512-1.792 0.768 0 0.416 0 0.8 0 1.216 0.576-0.224 1.184-0.48 1.792-0.736 0.64-0.256 1.28-0.512 1.952-0.768 0-0.416 0-0.864 0-1.312v0zM19.36 4.48c-0.672 0.32-1.312 0.64-1.952 0.928-0.608 0.288-1.216 0.576-1.792 0.864 0 0.416 0 0.8 0 1.216 0.576-0.256 1.184-0.544 1.792-0.8 0.64-0.288 1.28-0.576 1.952-0.864 0-0.448 0-0.896 0-1.344v0zM19.36 2.016c-0.672 0.352-1.312 0.704-1.952 1.024-0.608 0.32-1.216 0.64-1.792 0.96 0 0.416 0 0.8 0 1.216 0.576-0.288 1.184-0.608 1.792-0.896 0.64-0.32 1.28-0.64 1.952-0.992 0-0.416 0-0.864 0-1.312v0zM6.816 9.312c-0.32 0.128-0.672 0.256-0.992 0.384s-0.64 0.224-0.96 0.352c-0.32 0.128-0.608 0.224-0.896 0.352-0.288 0.096-0.608 0.224-0.896 0.32 0 0.416 0 0.8 0 1.216 0.288-0.096 0.576-0.192 0.896-0.32 0.288-0.096 0.608-0.224 0.896-0.32 0.32-0.096 0.64-0.224 0.96-0.32s0.64-0.224 0.992-0.352c0-0.448 0-0.896 0-1.312v0zM6.816 24.064c-0.32 0.032-0.672 0.064-0.992 0.064-0.32 0.032-0.64 0.064-0.96 0.064-0.32 0.032-0.608 0.032-0.896 0.064s-0.608 0.032-0.896 0.064c0 0.416 0 0.8 0 1.216 0.288 0 0.576-0.032 0.896-0.032 0.288 0 0.608-0.032 0.896-0.032 0.32 0 0.64-0.032 0.96-0.032s0.64-0.032 0.992-0.064c0-0.416 0-0.864 0-1.312v0zM6.816 26.528c-0.32 0-0.672 0.032-0.992 0.032s-0.64 0.032-0.96 0.032c-0.32 0-0.608 0-0.896 0.032-0.288 0-0.608 0.032-0.896 0.032 0 0.416 0 0.8 0 1.216 0.288 0 0.576 0 0.896 0 0.288 0 0.608 0 0.896 0 0.32 0 0.64 0 0.96 0s0.64 0 0.992 0c0-0.448 0-0.896 0-1.344v0zM6.816 21.6c-0.32 0.032-0.672 0.096-0.992 0.128s-0.64 0.064-0.96 0.128c-0.32 0.032-0.608 0.064-0.896 0.128-0.288 0.032-0.608 0.064-0.896 0.096 0 0.416 0 0.8 0 1.216 0.288-0.032 0.576-0.064 0.896-0.096 0.288-0.032 0.608-0.064 0.896-0.096 0.32-0.032 0.64-0.064 0.96-0.096s0.64-0.064 0.992-0.096c0-0.416 0-0.864 0-1.312v0zM6.816 19.136c-0.32 0.064-0.672 0.128-0.992 0.16-0.32 0.064-0.64 0.096-0.96 0.16s-0.608 0.096-0.896 0.16c-0.288 0.064-0.608 0.096-0.896 0.16 0 0.416 0 0.8 0 1.216 0.288-0.032 0.576-0.096 0.896-0.128 0.288-0.032 0.608-0.096 0.896-0.128 0.32-0.032 0.64-0.096 0.96-0.128s0.64-0.096 0.992-0.16c0-0.416 0-0.864 0-1.312v0zM6.816 16.704c-0.32 0.064-0.672 0.16-0.992 0.224s-0.64 0.128-0.96 0.224c-0.32 0.064-0.608 0.128-0.896 0.192s-0.608 0.128-0.896 0.192c0 0.416 0 0.8 0 1.216 0.288-0.064 0.576-0.128 0.896-0.16 0.288-0.064 0.608-0.128 0.896-0.192 0.32-0.064 0.64-0.128 0.96-0.192s0.64-0.128 0.992-0.192c0-0.448 0-0.896 0-1.312v0zM6.816 14.24c-0.32 0.096-0.672 0.192-0.992 0.256-0.32 0.096-0.64 0.16-0.96 0.256s-0.608 0.16-0.896 0.256c-0.288 0.096-0.608 0.16-0.896 0.256 0 0.416 0 0.8 0 1.216 0.288-0.064 0.576-0.16 0.896-0.224 0.288-0.064 0.608-0.16 0.896-0.224 0.32-0.064 0.64-0.16 0.96-0.224s0.64-0.16 0.992-0.256c0-0.448 0-0.896 0-1.312v0zM6.816 11.776c-0.32 0.096-0.672 0.224-0.992 0.32s-0.64 0.192-0.96 0.32c-0.32 0.096-0.608 0.192-0.896 0.288s-0.608 0.192-0.896 0.288c0 0.416 0 0.8 0 1.216 0.288-0.096 0.576-0.16 0.896-0.256 0.288-0.096 0.608-0.192 0.896-0.256 0.32-0.096 0.64-0.192 0.96-0.288s0.64-0.192 0.992-0.288c0-0.48 0-0.928 0-1.344z"></path>
</symbol>
<symbol id="residential" viewBox="0 0 34 32">
<path class="path1" d="M0 28.672h3.296v-11.552l4.48-0.576v-13.024l0.608-0.16 11.712-3.36 0.768 0.32 9.76 4.032 0.512 0.224v24.096h3.072v3.328h-34.208v-3.328zM21.792 24.16c0 0.768 0 1.536 0 2.304 1.344 0 2.656 0 3.904 0 1.216 0 2.4 0 3.552 0 0-0.704 0-1.408 0-2.112-1.152-0.032-2.336-0.064-3.552-0.096-1.248-0.032-2.56-0.064-3.904-0.096v0zM21.792 5.024c0 0.768 0 1.536 0 2.304 1.344 0.32 2.656 0.608 3.904 0.928 1.216 0.288 2.4 0.576 3.552 0.832 0-0.704 0-1.408 0-2.112-1.152-0.288-2.336-0.608-3.552-0.928-1.248-0.32-2.56-0.672-3.904-1.024v0zM21.792 19.392c0 0.768 0 1.536 0 2.304 1.344 0.064 2.656 0.16 3.904 0.224 1.216 0.064 2.4 0.128 3.552 0.192 0-0.704 0-1.408 0-2.112-1.152-0.096-2.336-0.192-3.552-0.32-1.248-0.064-2.56-0.192-3.904-0.288v0zM21.792 14.592c0 0.768 0 1.536 0 2.304 1.344 0.16 2.656 0.32 3.904 0.448 1.216 0.128 2.4 0.288 3.552 0.416 0-0.704 0-1.408 0-2.112-1.152-0.16-2.336-0.352-3.552-0.512-1.248-0.16-2.56-0.352-3.904-0.544v0zM21.792 9.824c0 0.768 0 1.536 0 2.304 1.344 0.224 2.656 0.48 3.904 0.672 1.216 0.224 2.4 0.416 3.552 0.608 0-0.704 0-1.408 0-2.112-1.152-0.224-2.336-0.48-3.552-0.736-1.248-0.192-2.56-0.48-3.904-0.736v0zM16.032 5.536c0 0.736 0 1.504 0 2.24 0.608-0.096 1.248-0.224 1.888-0.32 0-0.768 0-1.504 0-2.272-0.672 0.128-1.28 0.256-1.888 0.352v0zM12.512 6.24c0 0.736 0 1.44 0 2.176 0.576-0.096 1.152-0.192 1.76-0.288 0-0.736 0-1.472 0-2.208-0.608 0.096-1.184 0.192-1.76 0.32v0zM9.184 20.224c0 0.704 0 1.408 0 2.112 0.544-0.032 1.088-0.032 1.664-0.064 0-0.704 0-1.408 0-2.144-0.576 0.032-1.12 0.064-1.664 0.096v0zM9.184 24.672c0 0.704 0 1.408 0 2.080 0.544 0 1.088 0 1.664 0 0-0.704 0-1.408 0-2.112-0.576 0.032-1.12 0.032-1.664 0.032v0zM6.048 24.736c0 0.672 0 1.344 0 2.016 0.512 0 1.024 0 1.536 0 0-0.672 0-1.376 0-2.048-0.512 0.032-1.024 0.032-1.536 0.032v0zM16 24.544c0 0.736 0 1.504 0 2.24 0.608 0 1.248 0 1.888 0 0-0.768 0-1.504 0-2.272-0.64 0-1.248 0.032-1.888 0.032v0zM12.512 24.608c0 0.736 0 1.44 0 2.144 0.576 0 1.152 0 1.76 0 0-0.736 0-1.472 0-2.208-0.608 0.032-1.184 0.064-1.76 0.064v0zM6.048 20.416c0 0.672 0 1.344 0 2.048 0.512-0.032 1.024-0.032 1.536-0.064 0-0.672 0-1.376 0-2.080-0.512 0.032-1.024 0.064-1.536 0.096v0zM16 19.808c0 0.736 0 1.472 0 2.24 0.608-0.032 1.248-0.064 1.888-0.096 0-0.768 0-1.504 0-2.272-0.64 0.032-1.248 0.064-1.888 0.128v0zM12.512 20.032c0 0.704 0 1.44 0 2.176 0.576-0.032 1.152-0.064 1.76-0.064 0-0.736 0-1.472 0-2.208-0.608 0-1.184 0.032-1.76 0.096v0zM16 15.040c0 0.736 0 1.504 0 2.24 0.608-0.064 1.248-0.096 1.888-0.16 0-0.768 0-1.504 0-2.272-0.64 0.064-1.248 0.128-1.888 0.192v0zM12.512 15.424c0 0.736 0 1.44 0 2.176 0.576-0.064 1.152-0.096 1.76-0.16 0-0.736 0-1.472 0-2.208-0.608 0.064-1.184 0.128-1.76 0.192v0zM16.032 10.304c0 0.736 0 1.504 0 2.24 0.608-0.064 1.248-0.16 1.888-0.256 0-0.768 0-1.504 0-2.272-0.672 0.096-1.28 0.192-1.888 0.288v0zM12.512 10.816c0 0.736 0 1.44 0 2.176 0.576-0.064 1.152-0.16 1.76-0.224 0-0.736 0-1.472 0-2.208-0.608 0.096-1.184 0.192-1.76 0.256v0zM4.96 28.672h14.304v-26.72l-9.824 2.816v13.152l-4.48 0.576v10.176z"></path>
</symbol>
<symbol id="flag_ru" viewBox="0 0 55 32">
<path fill="#f4f4f4" d="M0 0h54.889v10.648h-54.889v-10.648z"></path>
<path fill="#323e95" d="M0 10.648h54.889v10.648h-54.889v-10.648z"></path>
<path fill="#d8001e" d="M0 21.352h54.889v10.648h-54.889v-10.648z"></path>
</symbol>
<symbol id="triangle_shape" viewBox="0 0 640 59.2">
	<path d="M 0,59.2 0,0 320,51.5 640,0 l 0,59.2 z"/>
</symbol>
</defs>
</svg>